<svg width="195" height="208" viewBox="0 0 195 208" fill="none" xmlns="http://www.w3.org/2000/svg">
<path d="M64.4152 91.0001C64.2307 91.0001 64.0644 91.3845 63.9883 92.1609V94.1351C64.065 94.9108 64.2313 95.2952 64.4199 95.2952C64.6091 95.2952 64.7707 94.9114 64.8515 94.1351V92.1609C64.7707 91.3845 64.6091 91.0001 64.4152 91.0001Z" fill="#BBCAEA"/>
<path d="M64.4152 82.4109C64.2307 82.4109 64.0644 82.7953 63.9883 83.5716V85.5458C64.065 86.3216 64.2313 86.706 64.4199 86.706C64.6091 86.706 64.7707 86.3222 64.8515 85.5458V83.5716C64.7707 82.7947 64.6091 82.4109 64.4152 82.4109Z" fill="#BBCAEA"/>
<path d="M64.4152 73.8207C64.2307 73.8207 64.0644 74.205 63.9883 74.9814V76.9556C64.065 77.7314 64.2313 78.1158 64.4199 78.1158C64.6091 78.1158 64.7707 77.732 64.8515 76.9556V74.9814C64.7707 74.205 64.6091 73.8207 64.4152 73.8207Z" fill="#BBCAEA"/>
<path d="M64.4152 65.2303C64.2307 65.2303 64.0644 65.6147 63.9883 66.3911V68.3653C64.065 69.1411 64.2313 69.5255 64.4199 69.5255C64.6091 69.5255 64.7707 69.1417 64.8515 68.3653V66.3911C64.7707 65.6147 64.6091 65.2303 64.4152 65.2303Z" fill="#BBCAEA"/>
<path d="M64.4152 56.64C64.2307 56.64 64.0644 57.0244 63.9883 57.8008V59.7749C64.065 60.5507 64.2313 60.9351 64.4199 60.9351C64.6091 60.9351 64.7707 60.5513 64.8515 59.7749V57.8008C64.7707 57.0244 64.6091 56.64 64.4152 56.64Z" fill="#BBCAEA"/>
<path d="M72.9264 56.5805C72.9264 56.3954 72.5434 56.2285 71.7697 56.1515H69.8026C69.0295 56.2285 68.6465 56.3954 68.6465 56.5852C68.6465 56.7745 69.0295 56.9373 69.8026 57.0184H71.7697C72.5434 56.9367 72.9264 56.7745 72.9264 56.5805Z" fill="#BBCAEA"/>
<path d="M81.4811 56.5805C81.4811 56.3954 81.0981 56.2285 80.3244 56.1515H78.3572C77.5842 56.2285 77.2012 56.3954 77.2012 56.5852C77.2012 56.7745 77.5842 56.9373 78.3572 57.0184H80.3244C81.0981 56.9367 81.4811 56.7745 81.4811 56.5805Z" fill="#BBCAEA"/>
<path d="M90.0436 56.5805C90.0436 56.3954 89.6606 56.2285 88.8869 56.1515H86.9197C86.1467 56.2285 85.7637 56.3954 85.7637 56.5852C85.7637 56.7745 86.1467 56.9373 86.9197 57.0184H88.8869C89.6612 56.9367 90.0436 56.7745 90.0436 56.5805Z" fill="#BBCAEA"/>
<path d="M98.5983 56.5805C98.5983 56.3954 98.2153 56.2285 97.4416 56.1515H95.4744C94.7014 56.2285 94.3184 56.3954 94.3184 56.5852C94.3184 56.7745 94.7014 56.9373 95.4744 57.0184H97.4416C98.2158 56.9367 98.5983 56.7745 98.5983 56.5805Z" fill="#BBCAEA"/>
<path d="M107.167 56.5805C107.167 56.3954 106.784 56.2285 106.01 56.1515H104.043C103.27 56.2285 102.887 56.3954 102.887 56.5852C102.887 56.7745 103.27 56.9373 104.043 57.0184H106.01C106.784 56.9367 107.167 56.7745 107.167 56.5805Z" fill="#BBCAEA"/>
<path d="M115.727 56.5806C115.727 56.3955 115.344 56.2286 114.571 56.1516H112.603C111.83 56.2286 111.447 56.3955 111.447 56.5853C111.447 56.7746 111.83 56.9374 112.603 57.0185H114.571C115.344 56.9368 115.727 56.7746 115.727 56.5806Z" fill="#BBCAEA"/>
<path d="M124.29 56.5805C124.29 56.3954 123.907 56.2285 123.133 56.1515H121.166C120.393 56.2285 120.01 56.3954 120.01 56.5852C120.01 56.7745 120.393 56.9373 121.166 57.0184H123.133C123.907 56.9367 124.29 56.7745 124.29 56.5805Z" fill="#BBCAEA"/>
<path d="M132.844 56.5805C132.844 56.3954 132.461 56.2285 131.688 56.1515H129.721C128.947 56.2285 128.564 56.3954 128.564 56.5852C128.564 56.7745 128.947 56.9373 129.721 57.0184H131.688C132.462 56.9367 132.844 56.7745 132.844 56.5805Z" fill="#BBCAEA"/>
<path d="M141.403 56.5806C141.403 56.3955 141.02 56.2286 140.246 56.1516H138.279C137.506 56.2286 137.123 56.3955 137.123 56.5853C137.123 56.7746 137.506 56.9374 138.279 57.0185H140.246C141.02 56.9368 141.403 56.7746 141.403 56.5806Z" fill="#BBCAEA"/>
<path d="M149.962 56.5805C149.962 56.3954 149.579 56.2285 148.805 56.1515H146.838C146.065 56.2285 145.682 56.3954 145.682 56.5852C145.682 56.7745 146.065 56.9373 146.838 57.0184H148.805C149.579 56.9367 149.962 56.7745 149.962 56.5805Z" fill="#BBCAEA"/>
<path d="M158.528 56.5805C158.528 56.3954 158.145 56.2285 157.371 56.1515H155.404C154.631 56.2285 154.248 56.3954 154.248 56.5852C154.248 56.7745 154.631 56.9373 155.404 57.0184H157.371C158.145 56.9367 158.528 56.7745 158.528 56.5805Z" fill="#BBCAEA"/>
<path d="M161.1 62.5971C161.285 62.5971 161.451 62.2128 161.527 61.4364V59.4628C161.451 58.6864 161.284 58.3026 161.096 58.3026C160.907 58.3026 160.745 58.6864 160.664 59.4628V61.4364C160.745 62.2128 160.907 62.5971 161.1 62.5971Z" fill="#BBCAEA"/>
<path d="M161.1 71.1867C161.285 71.1867 161.451 70.8024 161.527 70.026V68.0524C161.451 67.276 161.284 66.8922 161.096 66.8922C160.907 66.8922 160.745 67.276 160.664 68.0524V70.026C160.745 70.8029 160.907 71.1867 161.1 71.1867Z" fill="#BBCAEA"/>
<path d="M161.1 79.7769C161.285 79.7769 161.451 79.3926 161.527 78.6162V76.6426C161.451 75.8662 161.284 75.4824 161.096 75.4824C160.907 75.4824 160.745 75.8662 160.664 76.6426V78.6162C160.745 79.3926 160.907 79.7769 161.1 79.7769Z" fill="#BBCAEA"/>
<path d="M161.1 86.8044C161.285 86.8044 161.451 86.5599 161.527 86.0656V84.8102C161.451 84.3165 161.284 84.072 161.096 84.072C160.907 84.072 160.745 84.3165 160.664 84.8102V86.0656C160.745 86.5599 160.907 86.8044 161.1 86.8044Z" fill="#BBCAEA"/>
<path d="M170.105 203.541H24.7279C21.6527 203.541 19.1367 201.016 19.1367 197.93V101.195C19.1367 98.1092 21.6527 95.5844 24.7279 95.5844H170.105C173.181 95.5844 175.696 98.1092 175.696 101.195V197.93C175.696 201.016 173.181 203.541 170.105 203.541Z" fill="#5BA5F4"/>
<path d="M194.282 201.013H1.17969V204.489H194.282V201.013Z" fill="#4A9BE5"/>
<path d="M139.553 204.49H1.18164C1.18164 204.49 5.79831 207.636 14.5584 207.636C23.3186 207.636 139.554 207.636 139.554 207.636C139.554 207.636 172.147 207.636 180.907 207.636C189.667 207.636 194.283 204.49 194.283 204.49H139.553Z" fill="#184785"/>
<path d="M170.231 194.248H25.4731C25.0502 194.248 24.707 193.904 24.707 193.479V102.482C24.707 102.058 25.0496 101.713 25.4731 101.713H170.232C170.655 101.713 170.998 102.057 170.998 102.482V193.479C170.997 193.904 170.654 194.248 170.231 194.248Z" fill="#A9CBF7"/>
<path d="M113.923 201.013C113.798 201.699 113.463 202.318 112.99 202.793C112.376 203.405 111.533 203.786 110.607 203.786H85.3113C83.6632 203.786 82.2835 202.583 81.9941 201.013H113.923Z" fill="#184785"/>
<path d="M134.164 42.1435L134.319 63.7853C134.33 65.3016 133.114 66.5394 131.604 66.5499L119.239 66.6393C117.728 66.6504 116.494 65.4297 116.484 63.914L116.34 43.8114L120.458 39.4969L131.409 39.4182C132.92 39.407 134.154 40.6271 134.164 42.1435Z" fill="#297EEC"/>
<path d="M120.458 39.4971L120.489 43.7816L116.34 43.8116L120.458 39.4971Z" fill="#85CCE5"/>
<path d="M130.859 44.8856L119.688 44.9663L119.69 45.343L130.861 45.2623L130.859 44.8856Z" fill="#E2EDF2"/>
<path d="M130.878 47.1467L119.707 47.2274L119.71 47.6041L130.881 47.5234L130.878 47.1467Z" fill="#E2EDF2"/>
<path d="M130.89 49.4079L119.719 49.4886L119.721 49.8654L130.893 49.7847L130.89 49.4079Z" fill="#E2EDF2"/>
<path d="M130.908 51.6687L119.736 51.7494L119.739 52.1261L130.91 52.0454L130.908 51.6687Z" fill="#E2EDF2"/>
<path d="M130.925 53.9297L119.754 54.0104L119.757 54.3871L130.928 54.3064L130.925 53.9297Z" fill="#E2EDF2"/>
<path d="M130.939 56.191L119.768 56.2717L119.77 56.6485L130.942 56.5677L130.939 56.191Z" fill="#E2EDF2"/>
<path d="M130.956 58.4516L119.785 58.5323L119.788 58.9091L130.959 58.8284L130.956 58.4516Z" fill="#E2EDF2"/>
<path d="M130.972 60.7131L119.801 60.7938L119.803 61.1706L130.975 61.0898L130.972 60.7131Z" fill="#E2EDF2"/>
<path d="M168.558 76.5946L145.08 69.0358C144.263 68.7725 143.813 67.8945 144.075 67.074L148.662 52.7247C148.924 51.9042 149.799 51.4528 150.617 51.7155L174.095 59.2743C174.913 59.5376 175.363 60.4156 175.101 61.2361L170.514 75.5854C170.251 76.4059 169.376 76.8579 168.558 76.5946Z" fill="#184785"/>
<path d="M167.597 72.5136L163.498 71.1942L160.516 65.3663L163.097 64.0339C163.465 63.8441 163.918 63.9893 164.108 64.3548L168.027 72.0041C168.172 72.2915 167.9 72.6112 167.597 72.5136Z" fill="white"/>
<path d="M162.138 70.7542L148.237 66.2786C147.931 66.1805 147.896 65.7603 148.182 65.6127L156.468 61.3312C156.838 61.1425 157.287 61.2871 157.478 61.6562L162.138 70.7542Z" fill="white"/>
<path d="M163.327 61.4473C163.029 62.3806 162.03 62.8961 161.1 62.5969C160.167 62.2966 159.656 61.2951 159.954 60.3618C160.253 59.4261 161.25 58.9095 162.182 59.2098C163.112 59.509 163.626 60.5117 163.327 61.4473Z" fill="white"/>
<path d="M105.919 63.5031H91.2904C90.5753 63.5031 89.9961 62.9212 89.9961 62.2042V49.6716C89.9961 48.9539 90.5759 48.3727 91.2904 48.3727H105.919C106.634 48.3727 107.213 48.9545 107.213 49.6716V62.2042C107.213 62.9212 106.634 63.5031 105.919 63.5031Z" fill="black"/>
<path d="M96.7175 52.7652C98.109 51.3688 100.374 51.3688 101.765 52.7652C103.157 54.1617 103.157 56.4344 101.765 57.8308C100.374 59.2273 98.109 59.2273 96.7175 57.8308C95.326 56.4344 95.326 54.1622 96.7175 52.7652ZM97.8999 53.9518C97.1602 54.6941 97.1602 55.9025 97.8999 56.6454C98.6396 57.3877 99.8437 57.3877 100.584 56.6454C101.324 55.9031 101.324 54.6947 100.584 53.9518C99.8437 53.209 98.6396 53.209 97.8999 53.9518Z" fill="white"/>
<path d="M94.6435 59.9124C94.9697 60.2398 95.4992 60.2398 95.8254 59.9124L97.8997 57.8307C98.226 57.5034 98.226 56.9721 97.8997 56.6447C97.5735 56.3173 97.0441 56.3173 96.7179 56.6447L94.6435 58.7264C94.3167 59.0538 94.3167 59.5851 94.6435 59.9124Z" fill="white"/>
<path d="M7.07499 118.718C8.03253 118.718 8.80969 117.938 8.80969 116.977V104.662C8.80969 103.7 8.03253 102.921 7.07499 102.921H2.44895C1.49083 102.921 0.714844 103.701 0.714844 104.662V116.977C0.714844 117.938 1.49083 118.718 2.44895 118.718H7.07499Z" fill="#5BA5F4"/>
<path d="M7.07499 135.994C8.03253 135.994 8.80969 135.214 8.80969 134.253V121.938C8.80969 120.977 8.03253 120.198 7.07499 120.198H2.44895C1.49083 120.198 0.714844 120.977 0.714844 121.938V134.253C0.714844 135.214 1.49083 135.994 2.44895 135.994H7.07499Z" fill="#5BA5F4"/>
<path d="M2.42969 196.379C2.42969 199.447 4.59424 201.932 7.26305 201.932H54.3662C57.0356 201.932 59.1996 199.446 59.1996 196.379V97.6572C59.1996 94.5899 57.0356 92.1044 54.3662 92.1044H7.26305C4.59424 92.1044 2.42969 94.5904 2.42969 97.6572V196.379Z" fill="#1E2633"/>
<path d="M56.8663 100.33H4.76172V188.014H56.8663V100.33Z" fill="#5BA5F4"/>
<path d="M24.9727 96.6281C24.9727 97.4233 25.6151 98.068 26.4075 98.068H35.2198C36.0127 98.068 36.6546 97.4238 36.6546 96.6281C36.6546 95.8335 36.0127 95.1887 35.2198 95.1887H26.4075C25.6151 95.1887 24.9727 95.8335 24.9727 96.6281Z" fill="#5BA5F4"/>
<path d="M22.9434 197.672C22.9434 198.633 23.7205 199.412 24.6781 199.412H36.9492C37.9073 199.412 38.6839 198.633 38.6839 197.672V193.029C38.6839 192.068 37.9067 191.288 36.9492 191.288H24.6781C23.7199 191.288 22.9434 192.068 22.9434 193.029V197.672Z" fill="#5BA5F4"/>
<path d="M40.4039 21.35C40.4039 21.35 36.8859 18.8098 32.9515 22.4049C30.6002 24.5537 31.1788 27.6474 30.2324 32.6349C30.0051 33.8321 27.4605 34.1788 26.4461 36.2653C25.9571 37.2714 26.4239 40.0684 25.871 40.7772C23.4482 43.881 24.8216 47.2322 27.0511 48.4036C34.8379 52.4947 36.7155 47.6607 38.6932 45.0653C40.6704 42.4705 44.1169 27.1367 40.4039 21.35Z" fill="#0F335B"/>
<path d="M40.1289 34.1513C40.1289 34.1513 42.3198 33.6494 43.3336 30.9352C44.3473 28.2211 43.7183 23.7932 43.0419 23.1826C42.3661 22.5713 40.1289 34.1513 40.1289 34.1513Z" fill="#0F335B"/>
<path d="M35.1697 32.5714L34.2695 30.4938L34.8856 30.8676C34.8856 30.8676 35.1779 31.6833 35.2909 32.2082C35.4039 32.733 35.1697 32.5714 35.1697 32.5714Z" fill="#0F335B"/>
<path d="M35.1289 30.1898C35.1289 30.4255 35.1289 39.5123 35.1289 39.5123C35.1289 39.5123 36.1409 40.7366 37.6519 40.7366C39.1629 40.7366 40.2797 39.5123 40.2797 39.5123V33.6468L35.1289 30.1898Z" fill="#FE7D6B"/>
<path d="M38.9033 35.4119C36.5086 35.4524 34.9238 33.1462 34.8858 30.867L34.8249 27.2531C34.7862 24.9739 36.5191 23.0967 38.6948 23.0596C40.8705 23.0226 42.6661 24.8399 42.7042 27.1191L42.6685 30.723C42.7077 33.0022 41.2986 35.3713 38.9033 35.4119Z" fill="#FE7D6B"/>
<path d="M33.6505 30.0388C33.9627 30.6853 34.6098 31.018 35.0959 30.7817C36.0002 30.3427 35.6371 29.6339 35.3249 28.9874C35.0128 28.3409 34.5759 28.1281 33.9662 28.4396C33.4854 28.6859 33.339 29.3917 33.6505 30.0388Z" fill="#FE7D6B"/>
<path d="M33.8677 29.373C33.8735 29.1949 33.928 28.9763 34.0873 28.8746C34.2255 28.7864 34.451 28.8387 34.4925 29.0098C34.5007 29.0433 34.4469 29.0638 34.4346 29.0303C34.4047 28.9492 34.3204 28.9134 34.2384 28.931C34.1517 28.9498 34.0879 29.0274 34.0533 29.1044C33.9789 29.2701 33.9836 29.4711 34.0316 29.6433C34.0802 29.8179 34.1839 29.9883 34.3297 30.0982C34.3971 30.1494 34.4785 30.1864 34.5634 30.1946C34.6354 30.2017 34.7315 30.1864 34.7901 30.1423C34.8141 30.1241 34.8592 30.1441 34.8445 30.1782C34.8129 30.251 34.7614 30.3098 34.6817 30.328C34.598 30.3474 34.5048 30.3327 34.4246 30.3039C34.2436 30.2399 34.1037 30.0918 34.0088 29.9284C33.911 29.7621 33.8618 29.5663 33.8677 29.373Z" fill="#DEAC93"/>
<path d="M40.4062 21.3498C40.4062 21.3498 42.1644 20.3319 43.4487 23.9282C44.4021 26.597 42.6967 28.6782 42.6967 28.6782C42.6967 28.6782 42.8232 26.4642 42.2657 25.294C41.9869 24.7087 41.0487 24.607 41.0487 24.607L40.4062 21.3498Z" fill="#0F335B"/>
<path d="M41.0465 24.6072C41.0465 24.6072 39.1449 23.6909 38.3332 25.1161C37.5215 26.5414 36.6852 28.3733 33.8454 28.8823C31.0056 29.3912 31.3985 26.2346 34.0357 24.4026C36.6723 22.5701 41.4565 20.8804 41.0465 24.6072Z" fill="#0F335B"/>
<path d="M30.0057 33.8344L30.117 33.8097C29.2004 29.5993 30.0028 26.807 30.8373 25.2054C31.7914 23.3753 33.0282 22.5742 33.2321 22.4925L33.1899 22.3861C32.9357 22.4878 31.7012 23.3006 30.736 25.1525C29.8927 26.7711 29.0816 29.5905 30.0057 33.8344Z" fill="#0F335B"/>
<path d="M79.1035 129.887L79.469 130.504C79.469 130.504 89.9948 135.554 91.8578 133.103C93.7207 130.652 85.0765 127.292 85.0765 127.292L79.1035 129.887Z" fill="#184785"/>
<path d="M74.7422 121.282L79.0994 129.887C79.0994 129.887 88.4095 133.434 89.5597 131.461C90.7099 129.487 81.9012 125.789 81.9012 125.789L79.9334 118.112L74.7422 121.282Z" fill="#FE7D6B"/>
<path d="M55.4729 100.301L55.0898 100.907C55.0898 100.907 55.3557 112.612 58.3771 113.173C61.3979 113.733 60.479 104.476 60.479 104.476L55.4729 100.301Z" fill="#184785"/>
<path d="M61.156 92.5121L55.4746 100.301C55.4746 100.301 56.5282 110.238 58.8023 110.377C61.0763 110.515 60.3841 100.957 60.3841 100.957L66.3191 95.7269L61.156 92.5121Z" fill="#FE7D6B"/>
<path d="M49.356 71.5968L50.129 71.4546C50.129 71.4546 71.1778 55.9838 80.6015 62.1885C92.2834 69.8794 67.3506 99.5619 67.3506 99.5619L59.1064 93.9292L62.1928 81.8655L36.498 87.4748L38.3469 69.9147L49.356 71.5968Z" fill="#1E2633"/>
<path d="M27.782 71.6505C27.782 71.6505 23.9425 77.9656 24.7583 87.8694C25.5554 97.5492 57.5505 97.5492 57.5505 97.5492L74.2415 124.186L82.9858 122.405C82.9858 122.405 75.4234 83.3974 72.1736 81.1852C68.9238 78.973 45.0042 76.521 45.0042 76.521L44.1239 70.994L27.782 71.6505Z" fill="#184785"/>
<path d="M73.2822 11.1504C69.2577 21.3898 61.6097 33.126 54.3587 41.1197C51.6976 44.0513 49.0938 46.4786 46.7418 48.1483L42.8625 38.1082L42.377 36.8505L43.5951 35.7567L43.8159 35.5575L57.8715 22.9396L67.0111 7.77979L73.2822 11.1504Z" fill="black"/>
<path d="M58.1647 71.6473C57.0877 66.7668 55.4215 60.9971 52.7814 54.7508C49.6124 47.2514 45.9352 41.1831 42.6625 36.5477C40.4441 37.2342 38.2263 37.9212 36.0078 38.6077C40.5015 50.3722 44.9952 62.1367 49.4895 73.9012L58.1647 71.6473Z" fill="black"/>
<path d="M53.518 71.6474C52.6741 67.0326 51.4068 61.7906 49.4812 56.1455C46.9594 48.7525 43.9444 42.5338 41.1058 37.5428C40.4663 37.7197 39.384 37.9307 38.0616 37.7562C36.9658 37.6116 36.1131 37.256 35.5667 36.9745C31.1597 38.04 26.7527 39.1056 22.3457 40.1717C28.0892 52.1496 33.8326 64.1268 39.5755 76.1047L53.518 71.6474Z" fill="white"/>
<path d="M45.0526 72.3721C44.1607 74.0318 42.9279 75.8708 41.2119 77.6387C34.8401 84.2018 26.4044 85.0487 23.4082 85.2027C24.7962 78.8623 26.1842 72.5214 27.5722 66.181C26.8747 59.9511 26.1777 53.7212 25.4802 47.4913L26.8747 40.8659C29.3994 39.6593 31.9235 38.4521 34.4483 37.2455C36.6368 42.0172 38.8482 47.5765 40.7803 53.8769C42.8541 60.6387 44.187 66.888 45.0526 72.3721Z" fill="black"/>
<path d="M38.3887 54.5327L38.9579 50.361L41.5137 49.0398C41.5137 49.0398 42.781 49.2543 42.2475 50.8988C41.714 52.5421 38.3887 54.5327 38.3887 54.5327Z" fill="#EA6759"/>
<path d="M36.7773 55.5142L38.3885 54.5327L40.4646 51.0639L43.2493 49.6652C43.4139 49.5823 43.6136 49.6575 43.6839 49.828C44.0365 50.1283 44.2303 50.5644 44.2332 51.1644C44.8599 51.6899 44.9794 52.2788 44.6971 52.9182C45.5609 53.2861 45.8848 53.7387 45.63 54.2823C46.0183 54.92 46.2467 55.5324 46.0921 56.28L41.8075 59.3873L37.5984 60.9501L36.7773 55.5142Z" fill="#FE7D6B"/>
<path d="M34.4471 37.2449C31.1142 37.7915 27.7813 38.3386 24.4484 38.8852C21.3772 39.2531 18.7834 41.3296 17.7204 44.2441C15.0311 51.6159 13.2092 59.5144 12.7735 66.2956C12.497 70.596 16.4519 73.9413 20.644 73.0062C27.5213 71.4728 33.1411 67.0108 38.1315 61.8006L37.3051 54.6492L23.2601 61.3857C26.9889 53.3391 30.7183 45.292 34.4471 37.2449Z" fill="black"/>
<path d="M27.7665 50.5497C27.4503 51.4731 27.1094 52.3864 26.7627 53.2979C26.4213 54.2113 26.0506 55.1128 25.6962 56.0203L24.5759 58.7209C24.1894 59.6154 23.8005 60.5093 23.3806 61.3909L23.2207 61.3257C23.5323 60.4 23.8743 59.4873 24.2187 58.5751L25.291 55.8551C25.6675 54.9559 26.0283 54.0508 26.4172 53.1569C26.8019 52.2612 27.192 51.3678 27.606 50.4845L27.7665 50.5497Z" fill="#D37E0D"/>
<path d="M23.2891 61.2528C24.434 60.6539 25.583 60.0638 26.7403 59.492C27.894 58.9119 29.0612 58.36 30.2208 57.7923L33.7265 56.1455C34.9013 55.6095 36.0767 55.0758 37.2667 54.5715L37.3411 54.7279C36.2014 55.3373 35.0471 55.9168 33.8922 56.4946L30.4088 58.1884C29.2387 58.7344 28.0762 59.2957 26.9008 59.8293C25.7289 60.3706 24.5482 60.8943 23.3634 61.4091L23.2891 61.2528Z" fill="#D37E0D"/>
<g opacity="0.3">
<path d="M38.1745 42.8965C38.8926 43.4748 39.7898 43.7752 40.6694 43.717C41.5491 43.657 42.3947 43.2486 43.0442 42.5933L43.1807 42.6991C42.6729 43.5424 41.7037 44.099 40.6969 44.1566C39.6908 44.2154 38.6677 43.784 38.0527 43.0188L38.1745 42.8965Z" fill="#1F3C88"/>
<path d="M44.5957 64.3513C45.1503 63.7953 45.6446 63.1876 46.0622 62.5323C46.4756 61.8746 46.834 61.1823 47.0906 60.4494C47.36 59.7224 47.5485 58.9654 47.6499 58.1949C47.7588 57.425 47.7746 56.6415 47.7184 55.8563L47.8888 55.8311C48.0633 56.6157 48.0996 57.4314 48.0329 58.2372C47.9591 59.043 47.7781 59.8399 47.5005 60.601C47.21 61.3563 46.844 62.0862 46.3702 62.7415C45.9011 63.3992 45.3453 63.994 44.7087 64.4812L44.5957 64.3513Z" fill="#1F3C88"/>
<path d="M45.6582 64.566C46.286 64.124 46.8886 63.6756 47.4497 63.1731C48.0137 62.6741 48.532 62.1328 49.0579 61.5709L49.199 61.6702C48.8453 62.3726 48.3293 62.9862 47.739 63.5045C47.1452 64.0188 46.4722 64.4496 45.7378 64.72L45.6582 64.566Z" fill="#1F3C88"/>
</g>
<path d="M81.3866 131.08L81.7338 132.221L80.4847 132.369L79.4668 130.503L81.3866 131.08Z" fill="#184785"/>
<path d="M55.4463 102.886L54.5889 103.713L53.8926 102.661L55.0914 100.907L55.4463 102.886Z" fill="#184785"/>
<path d="M34.0061 75.9213C34.4857 74.2445 52.0827 73.464 52.0827 73.464L44.1267 79.48C44.1267 79.48 33.5258 77.5975 34.0061 75.9213Z" fill="#7FABD3"/>
<path d="M44.123 79.4799L71.6087 78.5836L76.137 64.2384C76.397 63.3774 75.7551 62.5082 74.8585 62.5082H50.8334C49.8946 62.5082 49.0665 63.1247 48.7942 64.0257L44.123 79.4799Z" fill="#93BBE5"/>
<path d="M61.9423 71.7019C62.5369 71.6238 62.9559 71.0768 62.8782 70.4801C62.8004 69.8834 62.2553 69.4629 61.6607 69.5409C61.066 69.619 60.647 70.166 60.7248 70.7627C60.8026 71.3595 61.3477 71.78 61.9423 71.7019Z" fill="#7FABD3"/>
<path d="M40.3017 30.8748C40.3069 30.8748 40.3122 30.8742 40.3181 30.8737C40.4662 30.8525 41.2082 30.7279 41.251 30.3259C41.2885 29.9744 40.7145 28.913 40.5992 28.7038C40.5687 28.6479 40.499 28.628 40.4434 28.6591C40.3883 28.6897 40.3678 28.7596 40.3989 28.8154C40.6525 29.275 41.046 30.0855 41.0232 30.3018C41.0056 30.4681 40.5728 30.6057 40.2858 30.6462C40.2232 30.655 40.1798 30.7132 40.1886 30.7761C40.1962 30.8337 40.2454 30.8748 40.3017 30.8748Z" fill="#C6493C"/>
<path d="M42.1065 28.8724C42.1218 29.0687 41.99 29.2386 41.8125 29.2521C41.6351 29.2656 41.4793 29.1181 41.4641 28.9218C41.4489 28.7255 41.5806 28.5556 41.7581 28.5421C41.9361 28.5286 42.0919 28.6767 42.1065 28.8724Z" fill="#363435"/>
<path d="M38.0906 27.9691C38.1182 27.9691 38.1451 27.9591 38.1674 27.9397C38.6634 27.4925 39.3006 27.8175 39.307 27.8204C39.3633 27.8498 39.4324 27.828 39.4617 27.7716C39.4909 27.7152 39.4693 27.6459 39.413 27.6165C39.3814 27.6 38.6271 27.2162 38.0145 27.7687C37.9677 27.811 37.9636 27.8839 38.0057 27.9309C38.028 27.9562 38.0596 27.9691 38.0906 27.9691Z" fill="black"/>
<path d="M41.2497 27.6811C41.2743 27.6811 41.2995 27.6728 41.32 27.6564C41.3364 27.6434 41.7288 27.3437 42.1188 27.6205C42.1704 27.657 42.2424 27.6446 42.2787 27.5929C42.315 27.5412 42.3027 27.4695 42.2512 27.4324C41.8254 27.1315 41.3633 27.329 41.1783 27.4754C41.1285 27.5147 41.1203 27.587 41.1595 27.637C41.1824 27.6658 41.2158 27.6811 41.2497 27.6811Z" fill="black"/>
<path d="M39.1738 31.5519C40.7568 31.8481 41.4315 31.5366 41.4315 31.5366C41.4315 31.5366 41.524 32.5222 40.6087 32.6439C39.2992 32.8179 39.1738 31.5519 39.1738 31.5519Z" fill="#D65E42"/>
<path d="M41.377 31.5577C41.377 31.5577 41.3437 31.7416 41.329 31.7793C41.3138 31.8157 41.1656 31.9285 40.5249 31.9908C39.9832 32.0443 39.4128 31.908 39.2517 31.8651C39.1867 31.6887 39.1738 31.553 39.1738 31.553C39.2664 31.5706 39.356 31.5853 39.4426 31.5982C40.5923 31.7763 41.1996 31.6182 41.3759 31.5577C41.377 31.5577 41.377 31.5577 41.377 31.5577Z" fill="white"/>
<path d="M39.1228 29.5799C39.3054 29.5658 39.4408 29.3907 39.4254 29.1887C39.4099 28.9868 39.2494 28.8345 39.0668 28.8485C38.8843 28.8626 38.7489 29.0377 38.7643 29.2397C38.7798 29.4417 38.9403 29.594 39.1228 29.5799Z" fill="#363435"/>
<path d="M73.0613 8.94291C73.3272 8.81714 73.5691 8.6849 73.7946 8.54326C74.8663 7.8709 75.5345 6.9993 76.3041 5.75861C76.6578 5.18734 76.3714 4.70012 75.9902 4.72716C76.2514 4.32692 76.4845 3.90258 76.6842 3.44885C76.9747 2.79765 76.4739 2.37567 76.0329 2.55257C76.143 2.34452 76.2473 2.12941 76.3451 1.9049C76.7304 1.01626 75.7969 0.577226 75.4086 1.47468C74.8892 2.67541 74.0394 3.52349 73.0795 4.29165C73.7378 3.59814 74.3299 2.8335 74.8529 2.00599C75.3366 1.23783 74.3919 0.634234 73.91 1.39945C72.9981 2.84232 71.6857 4.01366 70.2344 4.95049C70.4324 4.44211 70.6807 3.95841 71.0239 3.52349C71.5832 2.81646 70.6502 2.20816 70.0845 2.92108C68.9191 4.39744 68.31 5.56819 67.7636 7.37839C67.7589 7.3919 67.7595 7.40484 67.7559 7.42012L67.1504 8.22648C68.8804 9.01403 70.56 9.89679 72.2034 10.8448C72.7451 9.66347 73.0613 8.94291 73.0613 8.94291Z" fill="#FE7D6B"/>
<path d="M73.2502 4.21512L73.1881 4.13989C73.1705 4.15459 71.4341 5.5904 70.8672 5.60451L70.8695 5.70207C71.0768 5.69737 71.4153 5.52575 71.7738 5.30124C72.4537 4.87396 73.2028 4.2545 73.2502 4.21512Z" fill="#995033"/>
<path d="M76.0692 2.58184L75.9895 2.526C75.969 2.55539 73.9316 5.46169 71.7734 6.39441L71.8121 6.48433C72.0639 6.37561 72.3134 6.24102 72.5588 6.08703C74.4417 4.90453 76.051 2.60828 76.0692 2.58184Z" fill="#995033"/>
<path d="M76.0271 4.75879L75.9533 4.69531C75.9298 4.72235 73.6312 7.41942 72.6883 7.25545L72.6719 7.35183C72.9143 7.39415 73.2323 7.26838 73.5755 7.05327C74.6414 6.38385 75.9544 4.84401 76.0271 4.75879Z" fill="#995033"/>
<path d="M111.07 117.396C110.762 117.433 110.471 117.451 110.19 117.451C108.855 117.451 107.77 117.047 106.388 116.368C105.753 116.055 105.737 115.457 106.094 115.267C105.636 115.055 105.191 114.806 104.758 114.512C104.134 114.092 104.347 113.433 104.842 113.343C104.627 113.219 104.414 113.085 104.2 112.939C103.359 112.36 103.95 111.442 104.799 112.027C105.934 112.81 107.169 113.092 108.457 113.241C107.481 112.99 106.523 112.638 105.593 112.19C104.73 111.774 105.24 110.703 106.098 111.117C107.721 111.896 109.55 112.207 111.373 112.231C110.912 111.886 110.42 111.593 109.869 111.396C108.974 111.077 109.47 110.008 110.375 110.328C112.243 110.995 113.442 111.701 114.942 113.016C114.954 113.026 114.96 113.037 114.972 113.049L115.964 113.43C114.854 115.108 113.843 116.843 112.9 118.617C111.755 117.864 111.07 117.396 111.07 117.396Z" fill="#CC724A"/>
<path d="M115.965 113.432L131.379 119.361L132.196 115.926L141.638 117.311C141.638 117.311 140.675 123.896 138.544 127.974V127.976C138.156 128.708 137.765 129.362 137.312 129.882C136.605 130.691 134.764 130.406 132.344 129.506C126.334 127.268 116.855 121.221 112.9 118.617C113.843 116.845 114.855 115.11 115.965 113.432Z" fill="#CC724A"/>
<path d="M131.385 119.36L134.708 121.481L131.761 117.786L131.385 119.36Z" fill="#995033"/>
<path d="M108.26 113.268L108.273 113.165C108.297 113.168 110.654 113.479 111.169 113.172L111.222 113.261C111.034 113.373 110.635 113.41 110.188 113.41C109.341 113.41 108.324 113.276 108.26 113.268Z" fill="#995033"/>
<path d="M104.822 113.391L104.863 113.297C104.897 113.312 108.345 114.77 110.798 114.392L110.814 114.493C110.528 114.538 110.229 114.557 109.923 114.557C107.576 114.558 104.853 113.405 104.822 113.391Z" fill="#995033"/>
<path d="M106.078 115.317L106.109 115.219C106.145 115.23 109.71 116.353 110.463 115.677L110.531 115.754C110.338 115.928 109.983 115.994 109.555 115.994C108.226 115.993 106.191 115.352 106.078 115.317Z" fill="#995033"/>
<path d="M168.44 161.615C168.44 161.615 177.3 128.501 171.876 118.492C166.023 107.691 149.986 113.07 147.994 116.797C144.594 123.162 142.68 159.113 142.68 159.113L168.44 161.615Z" fill="black"/>
<path d="M152.296 167.137H148.898V195.185H152.296V167.137Z" fill="#0F335B"/>
<path d="M160.592 199.662C161.487 198.577 156.101 194.639 150.562 194.639C145.022 194.639 140.092 198.54 140.531 199.662C140.97 200.784 159.697 200.747 160.592 199.662Z" fill="#0F335B"/>
<path d="M98.08 187.163L96.1848 197.518C96.1848 197.518 87.7544 201.831 88.7705 202.853C90.247 204.338 100.6 201.26 100.6 201.26L103.535 188.835L98.08 187.163Z" fill="#CC724A"/>
<path d="M112.315 190.016L110.514 200.338C110.514 200.338 102.445 205.332 103.537 206.267C105.124 207.626 115.205 203.704 115.205 203.704L117.937 191.245L112.315 190.016Z" fill="#CC724A"/>
<path d="M151.037 155.771C148.75 159.172 131.611 160.981 121.086 161.782C116.277 162.147 112.847 162.302 112.847 162.302L105.494 194.392L92.7793 193C92.7793 193 99.2841 151.519 102.817 147.014C104.817 144.465 114.744 143.06 124.105 142.396C131.074 141.902 138.1 141.342 138.1 141.342L139.193 138.427H151.542C151.542 138.427 154.369 150.814 151.037 155.771Z" fill="#0F335B"/>
<path d="M166.124 141.714C166.124 141.714 167.537 147.697 166.124 155.356C164.711 163.014 150.378 162.161 147.147 162.612C143.917 163.063 126.148 163.386 126.148 163.386L119.636 196.572L107.579 194.939C107.579 194.939 106.897 159.362 110.682 150.238C112.915 144.853 142.193 143.736 142.193 143.736L142.606 139.458L166.124 141.714Z" fill="#184785"/>
<path d="M162.333 151.413C162.327 151.413 162.32 151.412 162.313 151.411C159.572 151.025 157.948 149.9 157.068 149.025C156.108 148.07 155.805 147.213 155.793 147.177C155.767 147.103 155.807 147.022 155.88 146.996C155.954 146.97 156.035 147.009 156.061 147.083C156.072 147.117 157.277 150.414 162.353 151.13C162.43 151.141 162.484 151.213 162.474 151.29C162.463 151.361 162.403 151.413 162.333 151.413Z" fill="#0F335B"/>
<path d="M171.298 117.527C171.298 117.527 174.262 128.707 172.123 144.22C172.123 144.22 166.751 144.464 158.156 151.39C154.984 153.945 152.13 159.244 150.466 161.84C141.945 162.701 132.722 163.192 131.262 163.276C130.289 163.332 130.516 166.75 131.391 167.41C132.029 167.892 170.243 168.151 170.963 166.453C172.506 162.817 178.199 125.563 171.298 117.527Z" fill="black"/>
<path d="M126.295 163.187C126.379 163.187 126.447 163.121 126.45 163.037C126.453 162.951 126.506 160.904 125.1 158.985C125.049 158.917 124.952 158.901 124.883 158.953C124.814 159.003 124.8 159.101 124.851 159.169C126.191 160.998 126.142 163.007 126.141 163.027C126.139 163.112 126.206 163.184 126.291 163.187C126.292 163.187 126.294 163.187 126.295 163.187Z" fill="#0F335B"/>
<path d="M125.867 163.443C125.892 163.443 125.918 163.437 125.941 163.424C126.016 163.383 126.044 163.289 126.003 163.213C124.984 161.339 123.176 160.756 123.099 160.732C123.017 160.707 122.931 160.753 122.906 160.835C122.88 160.916 122.926 161.003 123.007 161.029C123.025 161.034 124.773 161.602 125.731 163.362C125.76 163.413 125.813 163.443 125.867 163.443Z" fill="#0F335B"/>
<path d="M110.515 200.338L115.599 201.913L114.736 205.85C114.736 205.85 103.407 209.219 102.314 207.151C101.221 205.083 110.515 200.338 110.515 200.338Z" fill="#0F335B"/>
<path d="M96.1853 197.517L101.033 199.428L100.228 202.837C100.228 202.837 89.5072 206.001 87.711 203.976C85.9142 201.951 96.1853 197.517 96.1853 197.517Z" fill="#0F335B"/>
<path d="M94.9355 198.088C95.103 198.161 95.25 198.238 95.3953 198.318C95.5399 198.397 95.6781 198.482 95.8164 198.569C95.9534 198.659 96.0893 198.75 96.2275 198.846C96.2983 198.892 96.3651 198.944 96.4401 198.99C96.5127 199.037 96.5836 199.088 96.6679 199.131C96.6369 199.044 96.5947 198.964 96.5502 198.885C96.501 198.81 96.4512 198.733 96.3915 198.666C96.2743 198.528 96.1367 198.407 95.9833 198.308C95.8292 198.211 95.66 198.134 95.4814 198.091C95.3039 198.049 95.1136 198.033 94.9355 198.088Z" fill="white"/>
<path d="M92.834 199.132C93.0354 199.158 93.2234 199.185 93.4044 199.223C93.5848 199.261 93.7558 199.311 93.9157 199.381C94.0773 199.447 94.222 199.542 94.3573 199.657C94.5002 199.768 94.6097 199.918 94.7473 200.072C94.7303 199.871 94.6682 199.662 94.5376 199.493C94.4135 199.32 94.2378 199.177 94.0398 199.096C93.8431 199.01 93.6305 198.974 93.4243 198.98C93.2176 198.989 93.0138 199.031 92.834 199.132Z" fill="white"/>
<path d="M91.1328 200.071C91.305 200.119 91.4584 200.169 91.6048 200.228C91.7507 200.287 91.8889 200.351 92.0183 200.432C92.1466 200.513 92.2754 200.597 92.3943 200.701C92.4599 200.748 92.5132 200.808 92.5794 200.859C92.6432 200.914 92.6994 200.976 92.7744 201.03C92.7603 200.942 92.7363 200.856 92.7041 200.772C92.666 200.692 92.6297 200.607 92.5741 200.536C92.4745 200.384 92.3316 200.262 92.1764 200.165C92.0195 200.068 91.8403 200.011 91.6599 199.991C91.4813 199.974 91.295 199.991 91.1328 200.071Z" fill="white"/>
<path d="M109.43 201.031C109.637 201.09 109.833 201.143 110.025 201.202C110.217 201.26 110.404 201.324 110.587 201.396C110.68 201.429 110.768 201.472 110.859 201.508C110.947 201.553 111.039 201.589 111.125 201.638C111.306 201.724 111.473 201.834 111.666 201.937C111.567 201.746 111.43 201.57 111.26 201.435C111.179 201.361 111.085 201.306 110.993 201.246C110.897 201.195 110.801 201.143 110.699 201.106C110.496 201.027 110.283 200.977 110.069 200.962C109.854 200.948 109.635 200.961 109.43 201.031Z" fill="white"/>
<path d="M107.287 202.157C107.496 202.188 107.689 202.221 107.877 202.265C108.066 202.307 108.246 202.363 108.421 202.431C108.595 202.5 108.765 202.579 108.928 202.68C109.097 202.773 109.25 202.895 109.428 203.012C109.352 202.816 109.234 202.631 109.076 202.486C108.922 202.335 108.734 202.22 108.532 202.142C108.331 202.064 108.116 202.022 107.903 202.023C107.691 202.025 107.477 202.061 107.287 202.157Z" fill="white"/>
<path d="M105.943 203.011C106.103 203.094 106.248 203.168 106.391 203.246C106.533 203.323 106.669 203.403 106.8 203.49C106.931 203.577 107.061 203.665 107.187 203.766C107.318 203.862 107.439 203.972 107.586 204.079C107.548 203.904 107.471 203.737 107.362 203.596C107.256 203.45 107.119 203.328 106.968 203.229C106.818 203.131 106.65 203.059 106.476 203.018C106.302 202.98 106.12 202.966 105.943 203.011Z" fill="white"/>
<path d="M139.323 141.481C143.089 141.928 147.278 142.239 151.83 142.288C157.09 142.344 161.89 142.04 166.135 141.562C166.172 139.51 166.202 136.436 166.135 132.695C166.051 128.039 165.859 124.725 165.808 123.667C165.597 119.336 165.784 112.696 167.579 102.661C165.576 101.244 163.776 100.704 162.6 100.356C160.94 99.8657 159.483 99.8774 156.639 99.7798C154.744 99.7146 155.201 99.8128 153.047 99.7546C149.249 99.6517 147.65 99.4143 144.854 99.9274C144.535 99.9861 144.234 100.061 143.9 100.155C141.237 100.914 139.26 102.195 138.006 103.162C138.445 115.935 138.884 128.708 139.323 141.481Z" fill="#1E2633"/>
<path d="M166.105 129.411L165.35 131.21C165.35 131.21 164.792 125.265 164.534 123.412C164.276 121.56 163.959 113.718 163.959 113.718L166.177 120.081L165.736 120.311L166.105 129.411Z" fill="#1E2633"/>
<path d="M141.693 108.55C141.782 109.511 141.875 110.964 141.822 112.729C141.754 114.993 141.482 116.572 141.35 117.51C140.843 121.116 141.643 123.693 141.393 126.385C141.063 129.924 140.713 134.774 140.448 141.635C140.076 141.578 139.704 141.521 139.332 141.463L138.603 120.377C138.579 119.465 138.61 118.474 138.726 117.42C139.146 113.611 140.504 110.594 141.693 108.55Z" fill="#1E2633"/>
<path d="M159.616 104.695L142.004 104.451C140.734 104.433 139.38 104.415 138.042 104.237C138.041 104.208 138.04 104.179 138.039 104.15C139.378 104.328 140.734 104.347 142.006 104.365L159.617 104.609C162.139 104.643 164.726 104.679 167.286 104.457C167.281 104.486 167.276 104.516 167.271 104.544C165.665 104.683 164.048 104.721 162.444 104.721C161.495 104.721 160.551 104.708 159.616 104.695Z" fill="#5BA5F4"/>
<path d="M159.065 101.441C157.809 101.348 156.538 101.203 155.308 101.062C153.857 100.895 152.355 100.724 150.871 100.638C147.962 100.47 145.022 100.625 142.129 100.857C142.217 100.821 142.307 100.785 142.398 100.75C145.205 100.53 148.054 100.389 150.876 100.552C152.361 100.638 153.864 100.81 155.318 100.976C156.546 101.117 157.817 101.263 159.071 101.355C161.197 101.512 163.314 101.523 165.381 101.461C165.437 101.487 165.493 101.514 165.549 101.541C164.749 101.567 163.941 101.582 163.128 101.582C161.785 101.582 160.427 101.541 159.065 101.441Z" fill="#5BA5F4"/>
<path d="M157.412 107.033C151.013 106.334 144.493 106.466 138.128 106.687C138.127 106.658 138.126 106.63 138.125 106.601C144.493 106.38 151.016 106.248 157.421 106.948C158.421 107.057 159.437 107.189 160.42 107.315C162.496 107.584 164.622 107.86 166.749 107.944C166.745 107.972 166.741 108.001 166.737 108.029C164.609 107.944 162.484 107.67 160.409 107.401C159.427 107.274 158.411 107.142 157.412 107.033Z" fill="#5BA5F4"/>
<path d="M160.071 110.24C157.434 109.612 154.717 109.393 152.406 109.261C147.696 108.992 142.934 109.014 138.214 109.324C138.213 109.295 138.212 109.266 138.211 109.237C142.933 108.928 147.698 108.905 152.412 109.175C154.726 109.307 157.448 109.527 160.092 110.156C161.03 110.38 161.983 110.658 162.905 110.928C164.011 111.251 165.132 111.579 166.262 111.821C166.259 111.85 166.255 111.879 166.252 111.907C165.117 111.664 163.991 111.335 162.881 111.01C161.959 110.741 161.007 110.463 160.071 110.24Z" fill="#5BA5F4"/>
<path d="M155.108 112.674C153.929 112.398 152.709 112.112 151.499 111.886C147.257 111.093 142.975 110.969 138.284 111.214C138.283 111.185 138.282 111.156 138.281 111.128C142.978 110.883 147.265 111.008 151.515 111.801C152.727 112.027 153.947 112.314 155.128 112.59C156.453 112.901 157.824 113.223 159.188 113.46C161.452 113.855 163.751 114.03 166.047 114.095C166.045 114.124 166.042 114.152 166.04 114.181C163.741 114.115 161.44 113.94 159.173 113.545C157.807 113.307 156.435 112.985 155.108 112.674Z" fill="#5BA5F4"/>
<path d="M156.548 115.18C150.535 114.278 144.427 114.527 138.413 115.039C138.412 115.01 138.411 114.982 138.41 114.953C144.428 114.44 150.54 114.191 156.561 115.094C158.464 115.38 160.387 115.786 162.247 116.179C163.437 116.43 164.638 116.684 165.849 116.909C165.847 116.938 165.846 116.968 165.844 116.996C164.629 116.771 163.423 116.516 162.23 116.264C160.371 115.871 158.449 115.465 156.548 115.18Z" fill="#5BA5F4"/>
<path d="M138.558 119.257C138.556 119.228 138.556 119.199 138.555 119.171C147.608 119.322 156.713 119.298 165.763 119.098C165.762 119.127 165.761 119.156 165.76 119.185C160.618 119.299 155.459 119.355 150.3 119.355C146.382 119.355 142.465 119.322 138.558 119.257Z" fill="#5BA5F4"/>
<path d="M138.673 122.614C138.672 122.585 138.671 122.556 138.67 122.528L159.733 123.818C161.743 123.942 163.787 124.067 165.834 124.243C165.835 124.271 165.837 124.3 165.839 124.33C163.788 124.153 161.742 124.028 159.728 123.905L138.673 122.614Z" fill="#5BA5F4"/>
<path d="M138.844 127.602C147.87 127.579 156.955 127.448 165.972 127.21C165.973 127.238 165.975 127.267 165.976 127.296C156.958 127.533 147.873 127.665 138.847 127.688C138.845 127.66 138.845 127.631 138.844 127.602Z" fill="#5BA5F4"/>
<path d="M149.669 130.18C150.981 130.243 152.31 130.377 153.595 130.507C154.031 130.551 154.482 130.596 154.925 130.638C158.632 130.988 162.368 131.151 166.101 131.126C166.102 131.155 166.102 131.184 166.103 131.212C165.856 131.214 165.609 131.215 165.361 131.215C161.872 131.215 158.381 131.051 154.917 130.723C154.473 130.682 154.023 130.636 153.586 130.592C152.303 130.463 150.975 130.329 149.665 130.266C147.094 130.143 144.494 130.29 142.289 130.45C141.181 130.531 140.066 130.624 138.952 130.728C138.951 130.699 138.95 130.67 138.949 130.641C140.062 130.538 141.176 130.445 142.283 130.364C144.489 130.204 147.093 130.056 149.669 130.18Z" fill="#5BA5F4"/>
<path d="M152.56 133.09C155.991 133.007 159.065 133.113 161.957 133.414C163.414 133.566 164.809 133.766 166.156 134.015C166.157 134.046 166.157 134.077 166.157 134.108C162.116 133.36 157.625 133.053 152.563 133.177C148.125 133.285 143.629 133.698 139.281 134.097C139.21 134.103 139.14 134.11 139.069 134.116C139.068 134.087 139.068 134.058 139.066 134.03C139.135 134.023 139.205 134.017 139.273 134.011C143.623 133.612 148.121 133.199 152.56 133.09Z" fill="#5BA5F4"/>
<path d="M161.273 137.666C161.444 137.676 161.615 137.686 161.786 137.697C163.232 137.785 164.706 137.875 166.178 137.864C166.178 137.893 166.178 137.921 166.178 137.95C166.094 137.95 166.01 137.951 165.926 137.951C164.536 137.951 163.146 137.867 161.782 137.783C161.611 137.773 161.439 137.763 161.268 137.752C153.947 137.313 146.536 137.181 139.183 137.36C139.181 137.331 139.181 137.303 139.18 137.274C146.535 137.094 153.949 137.226 161.273 137.666Z" fill="#5BA5F4"/>
<path d="M150.277 139.562C153.286 139.4 156.353 139.507 159.32 139.611C161.57 139.689 163.868 139.769 166.164 139.732C166.164 139.761 166.163 139.79 166.162 139.819C163.865 139.856 161.567 139.776 159.316 139.697C156.352 139.593 153.287 139.487 150.281 139.648C148.298 139.755 146.283 139.982 144.335 140.201C142.674 140.388 140.988 140.578 139.294 140.696C139.293 140.667 139.292 140.638 139.291 140.61C140.983 140.492 142.667 140.302 144.325 140.115C146.275 139.896 148.291 139.669 150.277 139.562Z" fill="#5BA5F4"/>
<path d="M161.168 125.653C153.742 125.098 146.215 124.82 138.749 124.824C138.748 124.795 138.747 124.766 138.746 124.737C146.215 124.734 153.745 125.012 161.174 125.567C161.517 125.593 161.859 125.618 162.202 125.645C163.425 125.738 164.667 125.833 165.916 125.9C165.917 125.929 165.919 125.958 165.92 125.986C164.668 125.919 163.422 125.824 162.195 125.731C161.853 125.704 161.51 125.678 161.168 125.653Z" fill="#5BA5F4"/>
<path d="M138.584 119.982C147.636 120.068 156.742 120.615 165.746 121.611C165.747 121.64 165.747 121.669 165.748 121.698C156.743 120.702 147.639 120.155 138.587 120.069C138.586 120.04 138.585 120.011 138.584 119.982Z" fill="#5BA5F4"/>
<path d="M156.591 117.836C154.272 117.604 151.903 117.525 149.612 117.448L138.481 117.075C138.48 117.046 138.48 117.018 138.479 116.989L149.615 117.363C151.907 117.44 154.278 117.519 156.6 117.751C157.641 117.855 158.697 117.992 159.719 118.125C161.704 118.382 163.74 118.646 165.773 118.683C165.772 118.712 165.771 118.74 165.77 118.769C163.734 118.732 161.695 118.468 159.708 118.21C158.687 118.077 157.631 117.94 156.591 117.836Z" fill="#5BA5F4"/>
<path d="M160.556 102.782C158.162 102.708 155.727 102.592 153.372 102.48C148.878 102.267 144.264 102.048 139.674 102.1C139.722 102.071 139.77 102.041 139.82 102.013C144.363 101.967 148.929 102.184 153.376 102.395C155.731 102.506 158.165 102.622 160.559 102.697C162.883 102.77 165.234 102.805 167.569 102.805C167.564 102.834 167.559 102.862 167.554 102.891C167.541 102.891 167.53 102.891 167.517 102.891C165.199 102.891 162.863 102.855 160.556 102.782Z" fill="#5BA5F4"/>
<path d="M166.171 135.865C157.177 135.741 148.094 135.461 139.099 135.031C139.097 135.003 139.097 134.974 139.096 134.945C148.092 135.375 157.176 135.655 166.171 135.779C166.171 135.807 166.171 135.836 166.171 135.865Z" fill="#5BA5F4"/>
<path d="M165.159 101.35C165.159 101.35 170.061 102.435 172.513 109.98L174.066 115.967L165.728 120.314C165.728 120.314 161.729 112.731 165.159 101.35Z" fill="#1E2633"/>
<path d="M143.318 100.435C143.318 100.435 139.633 100.557 136.533 103.401C134.454 105.308 133.756 107.793 132.531 111.814C131.894 113.906 131.523 115.68 131.305 116.899C134.275 117.774 137.245 118.649 140.215 119.523C141.25 113.161 142.284 106.798 143.318 100.435Z" fill="#1E2633"/>
<path d="M139.377 101.565C139.417 101.547 139.456 101.528 139.495 101.511C140.134 101.704 140.78 101.875 141.432 102C141.947 102.1 142.476 102.172 142.991 102.241C142.986 102.269 142.982 102.298 142.977 102.326C142.461 102.257 141.932 102.184 141.416 102.085C140.728 101.953 140.048 101.771 139.377 101.565Z" fill="#5BA5F4"/>
<path d="M136.594 103.393C138.635 103.547 140.665 103.84 142.666 104.269C142.661 104.298 142.656 104.326 142.652 104.355C140.626 103.92 138.571 103.625 136.506 103.473C136.536 103.446 136.565 103.42 136.594 103.393Z" fill="#5BA5F4"/>
<path d="M135.355 104.759C135.375 104.732 135.395 104.705 135.414 104.678C137.022 104.846 138.624 105.077 140.206 105.371C140.917 105.503 141.668 105.654 142.396 105.915C142.391 105.944 142.386 105.973 142.382 106.002C141.655 105.74 140.903 105.588 140.191 105.456C138.595 105.159 136.978 104.926 135.355 104.759Z" fill="#5BA5F4"/>
<path d="M134.363 106.466C136.874 107.171 139.432 107.825 142.03 108.166C142.026 108.195 142.021 108.223 142.016 108.252C139.409 107.909 136.844 107.252 134.326 106.546C134.338 106.519 134.351 106.492 134.363 106.466Z" fill="#5BA5F4"/>
<path d="M134.256 108.826C134.019 108.75 133.775 108.671 133.527 108.584C133.537 108.557 133.546 108.53 133.555 108.502C133.803 108.589 134.046 108.669 134.282 108.743C136.398 109.414 138.551 109.924 140.378 110.334C140.782 110.424 141.21 110.521 141.625 110.663C141.62 110.692 141.615 110.72 141.61 110.749C141.196 110.606 140.765 110.509 140.36 110.418C138.531 110.008 136.375 109.498 134.256 108.826Z" fill="#5BA5F4"/>
<path d="M133.143 109.752C135.857 110.617 138.616 111.434 141.374 112.186C141.37 112.214 141.365 112.243 141.36 112.272C138.598 111.519 135.835 110.701 133.117 109.835C133.126 109.806 133.135 109.779 133.143 109.752Z" fill="#5BA5F4"/>
<path d="M132.545 111.713C135.308 112.789 138.141 113.71 141.008 114.463C141.003 114.491 140.999 114.52 140.994 114.548C138.124 113.795 135.287 112.873 132.52 111.795C132.528 111.767 132.537 111.74 132.545 111.713Z" fill="#5BA5F4"/>
<path d="M133.144 113.84C132.788 113.734 132.415 113.618 132.035 113.489C132.043 113.462 132.05 113.434 132.057 113.406C132.438 113.535 132.812 113.651 133.169 113.757C134.589 114.178 136.051 114.539 137.466 114.888L140.805 115.711C140.8 115.739 140.795 115.768 140.791 115.796L137.445 114.971C136.03 114.622 134.566 114.262 133.144 113.84Z" fill="#5BA5F4"/>
<path d="M132.383 115.379C132.139 115.278 131.893 115.177 131.646 115.074C131.653 115.046 131.659 115.017 131.666 114.989C131.917 115.093 132.168 115.196 132.416 115.3C134.598 116.204 136.853 117.138 139.12 117.928C139.519 118.067 139.94 118.209 140.376 118.339C140.371 118.368 140.367 118.396 140.362 118.425C139.921 118.293 139.495 118.15 139.091 118.009C136.822 117.219 134.566 116.284 132.383 115.379Z" fill="#5BA5F4"/>
<path d="M164.512 103.827C164.519 103.793 164.527 103.759 164.535 103.725C165.207 103.45 165.896 103.155 166.607 102.837C166.895 102.708 167.165 102.585 167.42 102.466C167.447 102.485 167.474 102.504 167.501 102.523C167.233 102.649 166.947 102.779 166.642 102.915C165.91 103.243 165.202 103.545 164.512 103.827Z" fill="#5BA5F4"/>
<path d="M164.116 105.953C165.733 105.278 167.312 104.513 168.847 103.665C168.868 103.687 168.889 103.708 168.91 103.729C167.351 104.592 165.746 105.367 164.102 106.053C164.106 106.02 164.111 105.986 164.116 105.953Z" fill="#5BA5F4"/>
<path d="M163.818 108.791C166.509 107.976 168.729 107.001 170.574 105.816C170.59 105.841 170.605 105.864 170.621 105.889C168.762 107.082 166.525 108.064 163.812 108.883C163.814 108.853 163.816 108.822 163.818 108.791Z" fill="#5BA5F4"/>
<path d="M171.737 107.964C171.748 107.99 171.761 108.016 171.772 108.043C171.395 108.156 171.018 108.27 170.645 108.383C168.395 109.062 166.096 109.756 163.77 110.341C163.77 110.311 163.77 110.281 163.77 110.252C166.088 109.669 168.378 108.977 170.62 108.3C170.99 108.189 171.362 108.076 171.737 107.964Z" fill="#5BA5F4"/>
<path d="M172.602 110.321L172.624 110.406C171.268 111.047 169.871 111.536 168.568 111.949C167.034 112.436 165.471 112.873 163.911 113.282C163.908 113.253 163.905 113.225 163.902 113.195C165.457 112.787 167.014 112.352 168.541 111.867C169.846 111.453 171.245 110.964 172.602 110.321Z" fill="#5BA5F4"/>
<path d="M173.201 112.634C170.272 113.734 167.191 114.373 164.121 114.889C164.117 114.86 164.112 114.832 164.107 114.803C167.176 114.287 170.254 113.649 173.179 112.55L173.201 112.634Z" fill="#5BA5F4"/>
<path d="M171.698 115.206C172.361 114.919 173 114.588 173.612 114.218L173.634 114.305C173.025 114.672 172.391 115 171.732 115.285C170.468 115.833 169.126 116.222 167.827 116.597C166.793 116.896 165.746 117.199 164.687 117.474C164.679 117.446 164.672 117.419 164.664 117.391C165.722 117.116 166.769 116.813 167.804 116.515C169.1 116.14 170.44 115.752 171.698 115.206Z" fill="#5BA5F4"/>
<path d="M156.067 90.7242C156.033 91.004 155.363 100.844 155.363 100.844C155.363 100.844 153.354 103.106 151.56 102.888C149.765 102.67 148.613 101.055 148.613 101.055L149.454 94.0872L156.067 90.7242Z" fill="#CC724A"/>
<path d="M149.2 96.3265C149.2 96.3265 149.74 96.7526 150.768 96.9794C152.656 97.3961 154.15 96.5604 154.596 96.2042C154.596 96.2042 153.385 98.0603 151.212 97.9586C150.623 97.931 149.757 97.7206 149.078 97.3097L149.2 96.3265Z" fill="#DEAC93"/>
<path d="M156.316 94.3205L157.605 91.8656L156.819 92.2653L156.316 94.3205Z" fill="black"/>
<path d="M151.495 97.4465C154.416 97.7168 156.562 95.045 156.818 92.2651L157.222 87.8566C157.478 85.0766 155.533 82.624 152.878 82.3784C150.753 82.1821 148.818 83.1853 148 85.1307C147.797 85.6138 147.662 86.4143 147.611 86.9679L147.206 91.3764C146.951 94.1564 148.574 97.1767 151.495 97.4465Z" fill="#CC724A"/>
<path d="M158.563 90.8728C158.482 91.7491 157.883 92.4103 157.223 92.3492C155.998 92.2357 156.095 91.5287 156.176 90.6524C156.256 89.7761 156.856 89.1149 157.515 89.176C158.174 89.2366 158.643 89.9965 158.563 90.8728Z" fill="#CC724A"/>
<path d="M158.103 90.4287C158.071 90.213 157.975 89.9544 157.766 89.8527C157.586 89.7645 157.319 89.8597 157.292 90.0743C157.286 90.116 157.355 90.1336 157.366 90.0913C157.39 89.9884 157.489 89.9332 157.59 89.9426C157.698 89.9532 157.787 90.039 157.839 90.1277C157.953 90.3187 157.975 90.5644 157.941 90.7801C157.907 90.9993 157.804 91.2215 157.642 91.3755C157.567 91.4466 157.473 91.5036 157.371 91.5259C157.285 91.5447 157.165 91.5395 157.089 91.4942C157.057 91.4754 157.004 91.506 157.027 91.5453C157.076 91.63 157.147 91.694 157.246 91.7052C157.351 91.7169 157.462 91.6858 157.555 91.64C157.766 91.5365 157.916 91.3367 158.009 91.1245C158.104 90.9082 158.137 90.6626 158.103 90.4287Z" fill="#DEAC93"/>
<path d="M154.175 80.2022C156.552 80.5813 158.736 83.0209 158.441 83.1455C158.749 83.2389 160.227 83.5111 159.957 85.1555C159.732 86.5355 158.639 88.9399 158.234 89.6199C157.706 89.2849 157.246 89.3178 157.231 89.3936C157.05 90.3263 156.779 90.5808 156.779 90.5808C156.779 90.5808 156.385 90.0454 156.367 89.3231C156.349 88.6008 156.53 88.4532 155.655 87.8638C154.78 87.2743 155.65 84.9886 155.65 84.9886C155.65 84.9886 152.464 86.6307 150.232 86.7101C149.186 86.7477 147.318 86.7048 146.671 86.0865C145.13 84.6154 146.572 83.9466 146.791 82.8681C146.96 82.0359 147.542 80.8963 148.776 80.7823C149.187 80.7441 150.203 81.2389 150.703 81.129C151.785 80.8933 152.469 79.9301 154.175 80.2022Z" fill="black"/>
<path d="M156.503 142.95C156.062 141.412 139.914 140.696 139.914 140.696L147.215 146.216C147.215 146.216 156.942 144.488 156.503 142.95Z" fill="#7FABD3"/>
<path d="M147.215 146.216L121.993 145.393L117.837 132.229C117.598 131.439 118.187 130.641 119.011 130.641H141.058C141.919 130.641 142.679 131.206 142.929 132.034L147.215 146.216Z" fill="#93BBE5"/>
<path d="M132.001 138.209C132.073 137.661 131.688 137.159 131.143 137.088C130.597 137.016 130.097 137.402 130.026 137.949C129.954 138.497 130.339 138.999 130.884 139.07C131.43 139.142 131.93 138.756 132.001 138.209Z" fill="#7FABD3"/>
<path d="M151.405 92.5036C151.397 92.5036 151.39 92.503 151.382 92.5019C151.17 92.4719 150.108 92.2932 150.047 91.7184C149.994 91.2153 150.815 89.6972 150.979 89.3981C151.023 89.3187 151.123 89.2899 151.202 89.334C151.281 89.3781 151.309 89.478 151.266 89.5574C150.903 90.215 150.34 91.374 150.373 91.6832C150.398 91.9212 151.017 92.1181 151.427 92.1763C151.517 92.1892 151.579 92.2721 151.567 92.362C151.555 92.4443 151.485 92.5036 151.405 92.5036Z" fill="#DEAC93"/>
<path d="M148.826 89.6395C148.804 89.9198 148.993 90.1631 149.246 90.1825C149.5 90.2019 149.723 89.9903 149.744 89.71C149.766 89.4296 149.577 89.1863 149.324 89.1669C149.071 89.1481 148.848 89.3591 148.826 89.6395Z" fill="#363435"/>
<path d="M154.574 88.3472C154.534 88.3472 154.495 88.3331 154.464 88.3049C153.754 87.6655 152.843 88.1298 152.834 88.1345C152.753 88.1762 152.654 88.1451 152.612 88.0645C152.571 87.984 152.602 87.8847 152.682 87.843C152.728 87.8195 153.806 87.2705 154.682 88.0604C154.75 88.121 154.756 88.225 154.695 88.2926C154.663 88.329 154.619 88.3472 154.574 88.3472Z" fill="black"/>
<path d="M150.051 87.9358C150.015 87.9358 149.98 87.9246 149.95 87.9005C149.926 87.8823 149.365 87.4538 148.807 87.8494C148.733 87.9017 148.631 87.884 148.579 87.81C148.527 87.7359 148.544 87.6331 148.618 87.5808C149.227 87.15 149.888 87.4327 150.152 87.6425C150.223 87.6989 150.236 87.8023 150.179 87.8735C150.147 87.914 150.099 87.9358 150.051 87.9358Z" fill="black"/>
<path d="M153.027 93.4722C150.763 93.8959 149.799 93.4504 149.799 93.4504C149.799 93.4504 149.666 94.8604 150.975 95.0338C152.848 95.2824 153.027 93.4722 153.027 93.4722Z" fill="#DEAC93"/>
<path d="M149.869 93.4803C149.869 93.4803 149.917 93.7436 149.938 93.7971C149.959 93.8494 150.171 94.0104 151.088 94.0992C151.863 94.175 152.678 93.9804 152.909 93.9193C153.001 93.6672 153.02 93.4727 153.02 93.4727C152.888 93.4979 152.759 93.5185 152.636 93.5373C150.992 93.7918 150.123 93.5655 149.87 93.4797C149.869 93.4803 149.869 93.4803 149.869 93.4803Z" fill="white"/>
<path d="M153.611 90.148C153.633 89.859 153.439 89.6084 153.178 89.5882C152.917 89.5681 152.687 89.786 152.665 90.0751C152.643 90.3641 152.837 90.6147 153.098 90.6349C153.359 90.655 153.589 90.437 153.611 90.148Z" fill="#363435"/>
<path d="M135.052 114.946C135.271 115.096 135.49 115.234 135.711 115.362C135.203 115.455 134.984 116.132 135.626 116.564C136.07 116.866 136.528 117.121 136.998 117.339C136.632 117.535 136.648 118.149 137.301 118.471C138.721 119.168 139.837 119.585 141.21 119.585C141.499 119.585 141.797 119.566 142.114 119.529C142.114 119.529 156.017 129.011 163.983 131.978C166.472 132.904 168.363 133.195 169.09 132.363C169.556 131.83 169.958 131.158 170.356 130.404V130.402C171.191 128.872 172.267 126.469 172.769 123.35C173.21 120.607 173.053 118.273 172.816 116.653C169.821 117.108 166.827 117.563 163.832 118.018L162.992 121.548L146.127 115.061C146.115 115.049 146.108 115.037 146.096 115.027C144.554 113.676 143.322 112.95 141.401 112.264C140.471 111.934 139.961 113.034 140.882 113.361C141.448 113.563 141.954 113.865 142.428 114.219C140.553 114.195 138.673 113.875 137.005 113.073C136.123 112.647 135.599 113.749 136.485 114.177C137.442 114.637 138.426 114.999 139.43 115.257C138.105 115.104 136.836 114.815 135.669 114.009C134.795 113.407 134.187 114.351 135.052 114.946Z" fill="#CC724A"/>
<path d="M162.992 121.547L166.408 123.727L163.379 119.929L162.992 121.547Z" fill="#995033"/>
<path d="M141.213 115.431C141.672 115.431 142.083 115.392 142.276 115.277L142.222 115.186C141.693 115.501 139.269 115.183 139.245 115.179L139.23 115.284C139.297 115.293 140.342 115.431 141.213 115.431Z" fill="#995033"/>
<path d="M140.935 116.61C141.249 116.61 141.556 116.59 141.851 116.545L141.835 116.44C139.313 116.829 135.769 115.33 135.733 115.315L135.691 115.412C135.722 115.425 138.522 116.61 140.935 116.61Z" fill="#995033"/>
<path d="M140.554 118.087C140.994 118.087 141.358 118.018 141.558 117.839L141.488 117.76C140.713 118.456 137.049 117.301 137.012 117.29L136.98 117.391C137.095 117.428 139.187 118.087 140.554 118.087Z" fill="#995033"/>
</svg>
