<svg width="247" height="184" viewBox="0 0 247 184" fill="none" xmlns="http://www.w3.org/2000/svg">
<path d="M246.194 167.765H0.806641V167.888H246.194V167.765Z" fill="#E0E0E0"/>
<path d="M219.488 170.923H203.414V171.046H219.488V170.923Z" fill="#E0E0E0"/>
<path d="M162.894 173.589H142.812V173.711H162.894V173.589Z" fill="#E0E0E0"/>
<path d="M170.559 173.589H165.904V173.711H170.559V173.589Z" fill="#E0E0E0"/>
<path d="M65.4242 172.178H46.5293V172.3H65.4242V172.178Z" fill="#E0E0E0"/>
<path d="M103.135 172.178H86.2852V172.3H103.135V172.178Z" fill="#E0E0E0"/>
<path d="M198.663 170.923H181.525V171.046H198.663V170.923Z" fill="#E0E0E0"/>
<path d="M42.5236 172.178H26.1543V172.3H42.5236V172.178Z" fill="#E0E0E0"/>
<path d="M117.128 145.877H22.3599C20.8155 145.877 19.5586 144.621 19.5586 143.076V9.86397C19.5586 8.3195 20.8155 7.06262 22.3599 7.06262H117.128C118.672 7.06262 119.929 8.3195 119.929 9.86397V143.076C119.929 144.621 118.672 145.877 117.128 145.877ZM22.3599 7.18581C20.8827 7.18581 19.6813 8.38722 19.6813 9.86446V143.077C19.6813 144.554 20.8827 145.755 22.3599 145.755H117.128C118.605 145.755 119.806 144.554 119.806 143.077V9.86397C119.806 8.38723 118.605 7.18532 117.128 7.18532L22.3599 7.18581Z" fill="#E0E0E0"/>
<path d="M223.281 145.877H128.514C126.97 145.877 125.713 144.621 125.713 143.076V9.86397C125.713 8.3195 126.97 7.06262 128.514 7.06262H223.281C224.826 7.06262 226.083 8.3195 226.083 9.86397V143.076C226.083 144.621 224.826 145.877 223.281 145.877ZM128.514 7.18581C127.037 7.18581 125.836 8.38722 125.836 9.86446V143.077C125.836 144.554 127.037 145.755 128.514 145.755H223.281C224.759 145.755 225.96 144.554 225.96 143.077V9.86397C225.96 8.38723 224.759 7.18532 223.281 7.18532L128.514 7.18581Z" fill="#E0E0E0"/>
<path d="M75.5977 50.4176L85.505 40.6468L83.4364 36.6288C83.4364 36.6283 83.4369 36.6278 83.4369 36.6278C83.6214 36.2274 83.7912 35.8244 83.9507 35.4151C83.9507 35.4146 83.9507 35.4146 83.9512 35.4141L88.272 34.0959L88.3682 20.1815L84.0636 18.8029C83.91 18.3916 83.748 17.9838 83.5689 17.5808L85.6925 13.5928L75.9216 3.68551L71.9046 5.75364C71.9046 5.75364 71.9041 5.75364 71.9041 5.75315C71.5037 5.56862 71.0988 5.40077 70.6895 5.24127L69.3708 0.918518L55.4563 0.822327L54.0777 5.12692C53.665 5.27808 53.2601 5.44249 52.8576 5.62113C52.8571 5.62113 52.8567 5.62162 52.8562 5.62162L48.8676 3.49803L38.9608 13.2699L41.0299 17.2883C40.8459 17.6878 40.6761 18.0937 40.5171 18.502L36.1938 19.8207L36.0977 33.7352L40.4013 35.1138C40.5549 35.5251 40.7173 35.9329 40.896 36.3358C40.896 36.3363 40.8965 36.3363 40.8965 36.3368L38.7734 40.3239L48.5442 50.2311L52.5607 48.163C52.9612 48.3475 53.3661 48.5154 53.7754 48.6749C53.7759 48.6749 53.7759 48.6749 53.7764 48.6749L55.0951 52.9976L69.0095 53.0943L70.3881 48.7892C70.7979 48.6361 71.2058 48.4722 71.6077 48.2941L75.5977 50.4176ZM69.5052 34.33C65.4303 38.349 58.8741 38.3038 54.858 34.2314C50.842 30.1589 50.8872 23.6031 54.9626 19.5842C59.0345 15.5682 65.5908 15.6133 69.6073 19.6858C73.6228 23.7572 73.5777 30.3135 69.5052 34.33Z" fill="#F0F0F0"/>
<path d="M37.9722 76.2997L44.4779 69.8833L43.1194 67.2449C43.1194 67.2444 43.1199 67.2444 43.1199 67.2439C43.2411 66.9808 43.3525 66.7163 43.4576 66.4478V66.4473L46.2947 65.5816L46.358 56.4444L43.5317 55.5394C43.4311 55.2694 43.3246 55.0015 43.2068 54.737L44.6016 52.1182L38.1847 45.612L35.5467 46.9699C35.2837 46.8487 35.0172 46.7388 34.7487 46.6338L33.883 43.7951L24.7458 43.7318L23.8403 46.5587C23.5689 46.6578 23.3034 46.7658 23.0393 46.8831C23.0388 46.8831 23.0388 46.8836 23.0384 46.8836L20.4191 45.4888L13.9134 51.9052L15.2718 54.5441C15.1506 54.8066 15.0397 55.0731 14.9352 55.3411L12.0965 56.2073L12.0332 65.3446L14.8591 66.2496C14.9602 66.5195 15.0667 66.787 15.184 67.052L13.7897 69.6708L20.2061 76.1765L22.8435 74.8185C23.1066 74.9397 23.3726 75.0502 23.641 75.1547L24.5072 77.9933L33.6445 78.0566L34.55 75.2293C34.8194 75.1287 35.0869 75.0212 35.3509 74.9039L37.9722 76.2997ZM33.9714 65.7347C31.2956 68.3741 26.9901 68.3442 24.3526 65.67C21.7152 62.9957 21.7452 58.6906 24.4214 56.0513C27.0956 53.4138 31.4007 53.4438 34.0381 56.118C36.6755 58.7922 36.6456 63.0978 33.9714 65.7347Z" fill="#E0E0E0"/>
<path d="M226.917 157.61L231.641 152.951L230.654 151.035C230.654 151.035 230.654 151.035 230.655 151.035C230.743 150.844 230.824 150.652 230.9 150.457V150.456L232.96 149.828L233.006 143.193L230.954 142.536C230.881 142.339 230.803 142.145 230.718 141.953L231.73 140.051L227.071 135.327L225.156 136.313C225.156 136.313 225.156 136.313 225.155 136.313C224.964 136.225 224.771 136.145 224.576 136.069L223.947 134.008L217.313 133.962L216.655 136.014C216.459 136.086 216.266 136.164 216.074 136.25C216.074 136.25 216.073 136.25 216.073 136.25L214.172 135.238L209.447 139.897L210.434 141.813C210.346 142.003 210.265 142.197 210.189 142.391L208.128 143.02L208.082 149.655L210.134 150.312C210.207 150.508 210.285 150.702 210.37 150.895L209.358 152.796L214.016 157.52L215.931 156.535C216.122 156.622 216.316 156.702 216.511 156.778L217.14 158.84L223.775 158.886L224.432 156.833C224.628 156.76 224.822 156.682 225.014 156.597L226.917 157.61ZM224.012 149.939C222.069 151.855 218.942 151.834 217.027 149.892C215.112 147.95 215.134 144.824 217.077 142.908C219.018 140.993 222.145 141.014 224.06 142.956C225.975 144.898 225.954 148.024 224.012 149.939Z" fill="#F0F0F0"/>
<path d="M168.945 150.333H24.6857C22.97 150.333 21.5742 148.937 21.5742 147.222V38.9149C21.5742 37.1991 22.97 35.8033 24.6857 35.8033H168.945C170.661 35.8033 172.057 37.1991 172.057 38.9149V147.222C172.057 148.937 170.661 150.333 168.945 150.333ZM24.6857 36.0487C23.1054 36.0487 21.8196 37.3346 21.8196 38.9149V147.222C21.8196 148.802 23.1054 150.088 24.6857 150.088H168.945C170.526 150.088 171.811 148.802 171.811 147.222V38.9149C171.811 37.3346 170.526 36.0487 168.945 36.0487H24.6857Z" fill="#E0E0E0"/>
<path d="M28.2558 41.5248C27.3115 41.5248 26.543 40.7567 26.543 39.812C26.543 38.8677 27.311 38.0997 28.2558 38.0997C29.2 38.0997 29.9681 38.8677 29.9681 39.812C29.9686 40.7567 29.2 41.5248 28.2558 41.5248ZM28.2558 38.3451C27.447 38.3451 26.7884 39.0032 26.7884 39.812C26.7884 40.6208 27.4465 41.2794 28.2558 41.2794C29.0646 41.2794 29.7227 40.6213 29.7227 39.812C29.7232 39.0032 29.0651 38.3451 28.2558 38.3451Z" fill="#E0E0E0"/>
<path d="M33.8881 41.5248C32.9438 41.5248 32.1758 40.7567 32.1758 39.812C32.1758 38.8677 32.9438 38.0997 33.8881 38.0997C34.8323 38.0997 35.6004 38.8677 35.6004 39.812C35.6009 40.7567 34.8323 41.5248 33.8881 41.5248ZM33.8881 38.3451C33.0793 38.3451 32.4212 39.0032 32.4212 39.812C32.4212 40.6208 33.0793 41.2794 33.8881 41.2794C34.6969 41.2794 35.355 40.6213 35.355 39.812C35.3555 39.0032 34.6974 38.3451 33.8881 38.3451Z" fill="#E0E0E0"/>
<path d="M39.5209 41.5248C38.5767 41.5248 37.8086 40.7567 37.8086 39.812C37.8086 38.8677 38.5767 38.0997 39.5209 38.0997C40.4652 38.0997 41.2337 38.8677 41.2337 39.812C41.2337 40.7567 40.4657 41.5248 39.5209 41.5248ZM39.5209 38.3451C38.7121 38.3451 38.054 39.0032 38.054 39.812C38.054 40.6208 38.7121 41.2794 39.5209 41.2794C40.3297 41.2794 40.9883 40.6213 40.9883 39.812C40.9883 39.0032 40.3302 38.3451 39.5209 38.3451Z" fill="#E0E0E0"/>
<path d="M226.231 129.484H81.9712C80.3271 129.484 78.9824 128.138 78.9824 126.495V18.188C78.9824 16.5439 80.3276 15.1992 81.9712 15.1992H226.23C227.874 15.1992 229.219 16.5444 229.219 18.188V126.495C229.22 128.138 227.874 129.484 226.231 129.484Z" fill="#E0E0E0"/>
<path d="M226.231 129.974H81.9718C80.0529 129.974 78.4922 128.413 78.4922 126.495V18.188C78.4922 16.2691 80.0533 14.7084 81.9718 14.7084H226.231C228.15 14.7084 229.711 16.2696 229.711 18.188V126.495C229.711 128.413 228.15 129.974 226.231 129.974ZM81.9718 15.69C80.5942 15.69 79.4737 16.8109 79.4737 18.188V126.495C79.4737 127.872 80.5947 128.993 81.9718 128.993H226.231C227.609 128.993 228.729 127.872 228.729 126.495V18.188C228.729 16.8104 227.609 15.69 226.231 15.69H81.9718Z" fill="#E0E0E0"/>
<path d="M78.9844 22.9275V126.494C78.9844 128.138 80.3296 129.483 81.9732 129.483H226.232C227.876 129.483 229.221 128.138 229.221 126.494V22.9275H78.9844Z" fill="#F0F0F0"/>
<path d="M228.669 26.9023H79.5352V125.509H228.669V26.9023Z" fill="white"/>
<path d="M223.393 116.487H84.8113C84.7838 116.487 84.7617 116.464 84.7617 116.437V33.2961C84.7617 33.2686 84.7838 33.2465 84.8113 33.2465H223.393C223.42 33.2465 223.443 33.2686 223.443 33.2961V116.437C223.442 116.464 223.42 116.487 223.393 116.487ZM84.8609 116.387H223.342V33.3457H84.8609V116.387Z" fill="#E6E6E6"/>
<path d="M85.5428 20.874C84.5563 20.874 83.7539 20.0716 83.7539 19.0851C83.7539 18.0992 84.5563 17.2968 85.5428 17.2968C86.5287 17.2968 87.3312 18.0992 87.3312 19.0851C87.3312 20.0721 86.5287 20.874 85.5428 20.874ZM85.5428 17.6943C84.7757 17.6943 84.1514 18.3185 84.1514 19.0856C84.1514 19.8527 84.7757 20.477 85.5428 20.477C86.3099 20.477 86.9336 19.8527 86.9336 19.0856C86.9336 18.3185 86.3094 17.6943 85.5428 17.6943Z" fill="white"/>
<path d="M91.1751 20.874C90.1891 20.874 89.3867 20.0716 89.3867 19.0851C89.3867 18.0992 90.1891 17.2968 91.1751 17.2968C92.1611 17.2968 92.9635 18.0992 92.9635 19.0851C92.9635 20.0721 92.1611 20.874 91.1751 20.874ZM91.1751 17.6943C90.408 17.6943 89.7838 18.3185 89.7838 19.0856C89.7838 19.8527 90.4075 20.477 91.1751 20.477C91.9427 20.477 92.5665 19.8527 92.5665 19.0856C92.566 18.3185 91.9422 17.6943 91.1751 17.6943Z" fill="white"/>
<path d="M96.8099 20.874C95.8239 20.874 95.0215 20.0716 95.0215 19.0851C95.0215 18.0992 95.8239 17.2968 96.8099 17.2968C97.7963 17.2968 98.5987 18.0992 98.5987 19.0851C98.5983 20.0721 97.7958 20.874 96.8099 20.874ZM96.8099 17.6943C96.0428 17.6943 95.4185 18.3185 95.4185 19.0856C95.4185 19.8527 96.0423 20.477 96.8099 20.477C97.5774 20.477 98.2012 19.8527 98.2012 19.0856C98.2012 18.3185 97.577 17.6943 96.8099 17.6943Z" fill="white"/>
<path d="M229.222 22.7286H78.9844V23.1262H229.222V22.7286Z" fill="#E0E0E0"/>
<path d="M147.117 106.745L215.844 106.745V36.6964L147.117 36.6964V106.745Z" fill="#F0F0F0"/>
<path d="M88.2137 59.4835L133.59 59.4835V36.6963L88.2137 36.6963V59.4835Z" fill="#F0F0F0"/>
<path d="M88.2137 125.509H133.59V68.0068H88.2137V125.509Z" fill="#F0F0F0"/>
<path d="M211.545 27.597H35.4698C32.8746 27.597 30.748 29.7181 30.748 32.3133V149.833C30.748 152.428 32.8746 154.549 35.4698 154.549H211.545C214.135 154.549 216.261 152.428 216.261 149.833V32.3133C216.261 29.7186 214.135 27.597 211.545 27.597Z" fill="#001180"/>
<path opacity="0.3" d="M211.545 27.597H35.4698C32.8746 27.597 30.748 29.7181 30.748 32.3133V149.833C30.748 152.428 32.8746 154.549 35.4698 154.549H211.545C214.135 154.549 216.261 152.428 216.261 149.833V32.3133C216.261 29.7186 214.135 27.597 211.545 27.597Z" fill="white"/>
<path d="M65.8097 35.4695H40.8837C39.9365 35.4695 39.166 34.699 39.166 33.7518C39.166 32.8046 39.9365 32.0341 40.8837 32.0341H65.8097C66.7569 32.0341 67.5274 32.8046 67.5274 33.7518C67.5274 34.6985 66.7569 35.4695 65.8097 35.4695ZM40.8837 32.5248C40.2074 32.5248 39.6568 33.0755 39.6568 33.7518C39.6568 34.4281 40.2074 34.9787 40.8837 34.9787H65.8097C66.4865 34.9787 67.0367 34.4281 67.0367 33.7518C67.0367 33.0755 66.4865 32.5248 65.8097 32.5248H40.8837Z" fill="#FAFAFA"/>
<path d="M73.8966 35.4695H72.2333C71.2861 35.4695 70.5156 34.699 70.5156 33.7518C70.5156 32.8046 71.2861 32.0341 72.2333 32.0341H73.8966C74.8438 32.0341 75.6143 32.8046 75.6143 33.7518C75.6143 34.6985 74.8438 35.4695 73.8966 35.4695ZM72.2333 32.5248C71.5566 32.5248 71.0064 33.0755 71.0064 33.7518C71.0064 34.4281 71.5566 34.9787 72.2333 34.9787H73.8966C74.5729 34.9787 75.1235 34.4281 75.1235 33.7518C75.1235 33.0755 74.5729 32.5248 73.8966 32.5248H72.2333Z" fill="#FAFAFA"/>
<path d="M80.8497 35.4695H79.1865C78.2393 35.4695 77.4688 34.699 77.4688 33.7518C77.4688 32.8046 78.2393 32.0341 79.1865 32.0341H80.8497C81.7969 32.0341 82.5674 32.8046 82.5674 33.7518C82.5674 34.6985 81.7969 35.4695 80.8497 35.4695ZM79.1865 32.5248C78.5102 32.5248 77.9595 33.0755 77.9595 33.7518C77.9595 34.4281 78.5102 34.9787 79.1865 34.9787H80.8497C81.526 34.9787 82.0766 34.4281 82.0766 33.7518C82.0766 33.0755 81.526 32.5248 80.8497 32.5248H79.1865Z" fill="#FAFAFA"/>
<path d="M30.748 39.7972V149.833C30.748 152.428 32.8746 154.549 35.4698 154.549H211.545C214.135 154.549 216.261 152.428 216.261 149.833V39.7972H30.748Z" fill="#001180"/>
<path opacity="0.6" d="M30.748 39.7972V149.833C30.748 152.428 32.8746 154.549 35.4698 154.549H211.545C214.135 154.549 216.261 152.428 216.261 149.833V39.7972H30.748Z" fill="white"/>
<path d="M31.6211 39.7972V145.599C31.6211 147.078 32.8201 148.277 34.2993 148.277H212.712C214.191 148.277 215.39 147.078 215.39 145.599V39.7972H31.6211Z" fill="#FAFAFA"/>
<path d="M40.0938 46.0251V65.6729H166.18V46.0251H40.0938Z" fill="#001180"/>
<path opacity="0.9" d="M40.0938 46.0251V65.6729H166.18V46.0251H40.0938Z" fill="white"/>
<path d="M165.69 71.3487V123.469H40.5845V71.3487H165.69ZM166.18 70.8579H40.0938V123.96H166.18V70.8579Z" fill="#001180"/>
<path opacity="0.9" d="M165.69 71.3487V123.469H40.5845V71.3487H165.69ZM166.18 70.8579H40.0938V123.96H166.18V70.8579Z" fill="white"/>
<path d="M180.344 179.808H176.641L175.656 171.234H179.359L180.344 179.808Z" fill="#FF8B7B"/>
<path d="M202.798 179.808H199.095L196.211 171.234H199.913L202.798 179.808Z" fill="#FF8B7B"/>
<path d="M198.603 179.38H203.116C203.267 179.38 203.399 179.485 203.431 179.632L204.163 182.923C204.239 183.265 203.97 183.588 203.62 183.582C202.168 183.557 201.109 183.472 199.279 183.472C198.154 183.472 195.835 183.589 194.281 183.589C192.761 183.589 192.524 182.052 193.16 181.913C196.013 181.289 197.087 180.428 198 179.607C198.166 179.459 198.381 179.38 198.603 179.38Z" fill="#263238"/>
<path d="M176.667 179.38H180.71C180.862 179.38 180.993 179.485 181.025 179.632L181.757 182.923C181.833 183.265 181.574 183.588 181.224 183.582C179.766 183.558 177.658 183.472 175.825 183.472C173.681 183.472 171.83 183.588 169.316 183.588C167.796 183.588 167.374 182.052 168.011 181.912C170.907 181.279 173.272 181.211 175.775 179.668C176.047 179.5 176.347 179.38 176.667 179.38Z" fill="#263238"/>
<path d="M182.467 87.9407C182.099 90.8083 181.696 93.6892 181.269 96.5538L179.985 105.27C179.79 106.353 179.34 107.39 178.743 108.232C178.147 109.078 177.441 109.751 176.719 110.307C175.26 111.406 173.726 112.067 172.215 112.585C170.696 113.089 169.179 113.424 167.663 113.655C166.905 113.77 166.146 113.849 165.388 113.913C164.622 113.979 163.888 114.018 163.081 114.017L162.83 111.248C164.15 110.944 165.549 110.59 166.859 110.156C168.181 109.734 169.469 109.252 170.658 108.679C171.845 108.116 172.941 107.44 173.743 106.694C174.141 106.322 174.457 105.934 174.662 105.562C174.862 105.186 174.967 104.843 175 104.486L175.142 102.422C175.192 101.685 175.26 100.955 175.324 100.222C175.454 98.7599 175.598 97.3008 175.761 95.8456C176.079 92.9329 176.458 90.0402 176.912 87.1407L182.467 87.9407Z" fill="#FF8B7B"/>
<path d="M183.688 86.0827C184.936 89.3954 181.948 100.498 181.948 100.498L173.723 96.385C173.723 96.385 174.11 90.8491 175.991 86.594C177.892 82.2939 182.32 82.4475 183.688 86.0827Z" fill="#001180"/>
<path opacity="0.3" d="M183.688 86.0827C184.936 89.3954 181.948 100.498 181.948 100.498L173.723 96.385C173.723 96.385 174.11 90.8491 175.991 86.594C177.892 82.2939 182.32 82.4475 183.688 86.0827Z" fill="black"/>
<path d="M164.8 110.895L160.76 111.163L162.647 115.499C162.647 115.499 165.239 115.498 165.973 112.903L164.8 110.895Z" fill="#FF8B7B"/>
<path d="M157.115 112.866L159.355 115.902L162.647 115.499L160.76 111.163L157.115 112.866Z" fill="#FF8B7B"/>
<path d="M175.656 171.237L176.228 176.214L179.906 175.992L179.36 171.237H175.656Z" fill="#EA7063"/>
<path d="M199.917 171.237H196.213L198.148 176.98L201.591 176.207L199.917 171.237Z" fill="#EA7063"/>
<path d="M179.292 83.5493C179.292 83.5493 174.922 94.7296 179.073 115.551C185.04 115.551 195.972 115.551 198.875 115.551C199.012 112.511 197.102 97.6816 200.034 83.3584C200.034 83.3584 196.639 82.6772 193.404 82.5211C190.874 82.3989 187.211 82.3184 184.986 82.5216C182.054 82.7891 179.292 83.5493 179.292 83.5493Z" fill="#001180"/>
<path opacity="0.3" d="M179.292 83.5493C179.292 83.5493 174.922 94.7296 179.073 115.551C185.04 115.551 195.972 115.551 198.875 115.551C199.012 112.511 197.102 97.6816 200.034 83.3584C200.034 83.3584 196.639 82.6772 193.404 82.5211C190.874 82.3989 187.211 82.3184 184.986 82.5216C182.054 82.7891 179.292 83.5493 179.292 83.5493Z" fill="black"/>
<path d="M186.524 94.0102C186.261 96.497 184.894 98.3909 183.471 98.2402C182.048 98.0895 181.109 95.9512 181.372 93.4645C181.636 90.9777 183.003 89.0838 184.426 89.2345C185.848 89.3851 186.788 91.5235 186.524 94.0102Z" fill="#001180"/>
<path opacity="0.1" d="M186.524 94.0102C186.261 96.497 184.894 98.3909 183.471 98.2402C182.048 98.0895 181.109 95.9512 181.372 93.4645C181.636 90.9777 183.003 89.0838 184.426 89.2345C185.848 89.3851 186.788 91.5235 186.524 94.0102Z" fill="white"/>
<path d="M195.995 90.2032C196.641 86.9356 197.901 87.5 199.095 89.1108C198.526 93.7196 198.368 98.2117 198.389 102.17C197.576 100.783 194.913 95.6813 195.995 90.2032Z" fill="#001180"/>
<path opacity="0.4" d="M195.995 90.2032C196.641 86.9356 197.901 87.5 199.095 89.1108C198.526 93.7196 198.368 98.2117 198.389 102.17C197.576 100.783 194.913 95.6813 195.995 90.2032Z" fill="black"/>
<path d="M192.569 73.0423C192.038 75.7509 191.508 80.7136 193.403 82.5211C193.403 82.5211 192.662 85.2685 187.629 85.2685C182.095 85.2685 184.984 82.5211 184.984 82.5211C188.005 81.7997 187.927 79.5588 187.4 77.4544L192.569 73.0423Z" fill="#FF8B7B"/>
<path d="M190.463 74.843L187.404 77.4524C187.53 77.9505 187.629 78.4556 187.664 78.9468C188.818 78.78 190.403 77.5133 190.525 76.3055C190.586 75.7028 190.561 75.1237 190.463 74.843Z" fill="#EA7063"/>
<path d="M184.862 62.9038C182.824 64.4856 182.84 70.8151 185.927 70.9471C189.015 71.0791 188.72 59.9081 184.862 62.9038Z" fill="#263238"/>
<path d="M193.354 69.8424C192.279 73.3564 191.829 75.4677 189.588 76.8659C186.218 78.9694 182.208 76.2799 182.211 72.5157C182.214 69.1274 183.971 63.9507 187.802 63.3686C191.577 62.7954 194.429 66.3285 193.354 69.8424Z" fill="#FF8B7B"/>
<path d="M192.269 73.2773C190.199 73.6008 189.073 62.9627 194 65.3204C201.002 68.6709 195.613 72.7547 192.269 73.2773Z" fill="#263238"/>
<path d="M192.462 66.297C189.919 66.0772 186.234 66.1866 185.434 63.0393C184.318 58.6493 189.562 58.0054 190.859 61.3618C193.981 60.3341 202.577 65.6919 196.851 68.4123L192.462 66.297Z" fill="#263238"/>
<path d="M194.024 74.1598C193.321 74.8582 192.361 75.1674 191.547 75.1517C190.323 75.1281 190.061 73.9483 190.695 72.9765C191.266 72.1015 192.59 71.0596 193.678 71.5538C194.75 72.0401 194.827 73.3613 194.024 74.1598Z" fill="#FF8B7B"/>
<path d="M179.071 115.551C179.071 115.551 164.633 135.559 165.036 146.85C165.454 158.593 174.774 174.8 174.774 174.8L180.796 173.418C180.796 173.418 174.806 159.28 175.085 147.746C175.39 135.173 192.088 125.251 192.088 115.551C185.965 115.551 179.071 115.551 179.071 115.551Z" fill="#263238"/>
<path d="M186.098 115.551C186.098 115.551 178.741 136.171 181.047 146.771C183.573 158.379 196.241 175.53 196.241 175.53L202.305 173.862C202.305 173.862 194.1 159.104 192.659 147.611C191.094 135.138 198.876 124.827 198.876 115.55C191.292 115.551 186.098 115.551 186.098 115.551Z" fill="#263238"/>
<path d="M195.338 176.369L204.054 174.752L203.619 172.406L193.848 174.062L195.338 176.369Z" fill="#001180"/>
<path opacity="0.4" d="M195.338 176.369L204.054 174.752L203.619 172.406L193.848 174.062L195.338 176.369Z" fill="white"/>
<path d="M173.519 175.325L182.341 174.454L182.104 172.052L172.23 172.899L173.519 175.325Z" fill="#001180"/>
<path opacity="0.4" d="M173.519 175.325L182.341 174.454L182.104 172.052L172.23 172.899L173.519 175.325Z" fill="white"/>
<path d="M187.706 69.5411C187.636 69.8316 187.425 70.0299 187.236 69.9842C187.046 69.9386 186.949 69.6662 187.019 69.3762C187.088 69.0856 187.299 68.8873 187.488 68.933C187.678 68.9781 187.775 69.2505 187.706 69.5411Z" fill="#263238"/>
<path d="M184.422 68.7534C184.353 69.0439 184.142 69.2422 183.953 69.1966C183.763 69.1509 183.666 68.8785 183.735 68.5885C183.805 68.298 184.016 68.0997 184.205 68.1453C184.395 68.191 184.492 68.4629 184.422 68.7534Z" fill="#263238"/>
<path d="M185.434 69.1484C185.434 69.1484 184.372 70.6654 183.451 71.299C183.85 71.9017 184.776 71.8924 184.776 71.8924L185.434 69.1484Z" fill="#FF5652"/>
<path d="M186.086 72.977C185.883 72.977 185.664 72.9534 185.428 72.897C185.381 72.8857 185.353 72.8381 185.364 72.7915C185.375 72.7443 185.42 72.7139 185.47 72.7267C186.744 73.0329 187.552 72.2855 187.561 72.2776C187.597 72.2447 187.652 72.2457 187.685 72.2811C187.718 72.3164 187.716 72.3718 187.682 72.4052C187.652 72.4327 187.064 72.977 186.086 72.977Z" fill="#263238"/>
<path d="M188.987 68.7249C188.92 68.7249 188.855 68.6857 188.827 68.6199C188.513 67.9034 187.877 67.7895 187.871 67.7885C187.776 67.7724 187.711 67.6821 187.727 67.5868C187.743 67.4911 187.834 67.4273 187.929 67.4425C187.963 67.4484 188.759 67.5908 189.148 68.4796C189.187 68.5684 189.146 68.6719 189.057 68.7107C189.035 68.72 189.011 68.7249 188.987 68.7249Z" fill="#263238"/>
<path d="M183.297 67.286C183.257 67.286 183.218 67.2727 183.185 67.2457C183.111 67.1844 183.099 67.074 183.161 66.9989C183.777 66.249 184.584 66.3294 184.617 66.3329C184.713 66.3432 184.783 66.4301 184.772 66.5262C184.761 66.6224 184.672 66.6897 184.579 66.6813C184.548 66.6789 183.921 66.6254 183.432 67.2217C183.397 67.2644 183.347 67.286 183.297 67.286Z" fill="#263238"/>
<path d="M135.043 138.256L121.756 139.839L121.814 140.326L135.101 138.743L135.043 138.256Z" fill="#001180"/>
<path d="M145.242 137.039L139.771 137.696L139.83 138.183L145.3 137.526L145.242 137.039Z" fill="#001180"/>
<path d="M221.043 105.651L103.215 119.7L105.697 140.522L223.526 126.473L221.043 105.651Z" fill="#001180"/>
<path d="M203.642 113.434L149.514 119.888L150.654 129.453L204.783 122.999L203.642 113.434Z" fill="#001180"/>
<path opacity="0.2" d="M203.642 113.434L149.514 119.888L150.654 129.453L204.783 122.999L203.642 113.434Z" fill="white"/>
<path d="M123.242 127.866C123.642 131.215 121.25 134.254 117.901 134.653C114.552 135.053 111.513 132.661 111.114 129.312C110.714 125.963 113.106 122.923 116.455 122.524C119.804 122.125 122.843 124.516 123.242 127.866Z" fill="#001180"/>
<path opacity="0.2" d="M123.242 127.866C123.642 131.215 121.25 134.254 117.901 134.653C114.552 135.053 111.513 132.661 111.114 129.312C110.714 125.963 113.106 122.923 116.455 122.524C119.804 122.125 122.843 124.516 123.242 127.866Z" fill="white"/>
<path d="M139.293 130.247C141.349 127.573 140.847 123.738 138.173 121.683C135.498 119.627 131.664 120.129 129.608 122.803C127.553 125.478 128.055 129.312 130.729 131.368C133.404 133.423 137.238 132.921 139.293 130.247Z" fill="#001180"/>
<path opacity="0.2" d="M139.293 130.247C141.349 127.573 140.847 123.738 138.173 121.683C135.498 119.627 131.664 120.129 129.608 122.803C127.553 125.478 128.055 129.312 130.729 131.368C133.404 133.423 137.238 132.921 139.293 130.247Z" fill="white"/>
<path d="M201.446 86.2393C201.766 86.9254 202.031 87.5354 202.289 88.1891C202.549 88.8325 202.795 89.4789 203.036 90.1282C203.505 91.4312 203.932 92.7523 204.302 94.0985C204.682 95.4403 204.986 96.8174 205.238 98.2171L205.413 99.2733L205.542 100.349C205.59 100.704 205.611 101.074 205.637 101.439L205.675 101.987L205.684 102.124L205.693 102.352C205.699 102.527 205.69 102.679 205.68 102.837C205.568 104.05 205.209 104.852 204.854 105.601C204.491 106.339 204.091 106.981 203.678 107.594C202.847 108.811 201.947 109.889 201.021 110.924C199.157 112.987 197.175 114.822 195.034 116.556L193.08 114.579C194.684 112.535 196.28 110.42 197.729 108.319C198.45 107.267 199.129 106.198 199.695 105.149C199.975 104.628 200.227 104.106 200.402 103.628C200.578 103.163 200.676 102.69 200.647 102.57C200.643 102.561 200.643 102.547 200.638 102.556C200.634 102.546 200.64 102.586 200.632 102.535L200.615 102.424L200.547 101.98C200.501 101.685 200.463 101.391 200.396 101.091L200.217 100.195L200.009 99.2939C199.71 98.0915 199.37 96.8847 198.981 95.6798C198.588 94.4774 198.173 93.2735 197.726 92.079C197.506 91.4803 197.28 90.8835 197.043 90.2926L196.339 88.5646L201.446 86.2393Z" fill="#FF8B7B"/>
<path d="M200.807 83.6023C204.111 84.8734 206.48 96.9563 206.48 96.9563L198.613 100.056C198.613 100.056 195.976 93.9832 195.092 89.4945C194.161 84.7679 197.059 82.1599 200.807 83.6023Z" fill="#001180"/>
<path opacity="0.3" d="M200.807 83.6023C204.111 84.8734 206.48 96.9563 206.48 96.9563L198.613 100.056C198.613 100.056 195.976 93.9832 195.092 89.4945C194.161 84.7679 197.059 82.1599 200.807 83.6023Z" fill="black"/>
<path d="M197.377 180.026C197.095 180.026 196.831 179.978 196.664 179.837C196.531 179.726 196.47 179.57 196.482 179.374C196.492 179.228 196.569 179.159 196.633 179.126C197.043 178.914 198.237 179.649 198.371 179.734C198.401 179.753 198.417 179.787 198.412 179.822C198.406 179.857 198.38 179.886 198.345 179.894C198.088 179.955 197.719 180.026 197.377 180.026ZM196.827 179.26C196.78 179.26 196.742 179.267 196.713 179.282C196.689 179.294 196.662 179.316 196.658 179.385C196.649 179.524 196.688 179.628 196.776 179.703C196.979 179.873 197.462 179.896 198.091 179.77C197.673 179.528 197.11 179.26 196.827 179.26Z" fill="#001180"/>
<path d="M198.328 179.896C198.313 179.896 198.299 179.892 198.286 179.885C197.903 179.677 197.162 178.866 197.24 178.453C197.254 178.378 197.31 178.249 197.519 178.223C197.651 178.207 197.78 178.244 197.893 178.335C198.323 178.687 198.412 179.756 198.415 179.801C198.417 179.833 198.402 179.863 198.375 179.881C198.361 179.891 198.344 179.896 198.328 179.896ZM197.58 178.395C197.567 178.395 197.554 178.396 197.54 178.398C197.426 178.412 197.417 178.464 197.412 178.486C197.366 178.73 197.838 179.343 198.219 179.632C198.176 179.32 198.058 178.697 197.781 178.473C197.719 178.42 197.653 178.395 197.58 178.395Z" fill="#001180"/>
<path d="M175.127 180.027C174.759 180.027 174.419 179.97 174.227 179.799C174.104 179.691 174.049 179.547 174.062 179.373C174.07 179.269 174.12 179.188 174.207 179.139C174.655 178.889 176.145 179.643 176.313 179.73C176.346 179.747 176.365 179.783 176.36 179.821C176.354 179.858 176.327 179.887 176.29 179.894C175.977 179.957 175.534 180.027 175.127 180.027ZM174.456 179.26C174.388 179.26 174.332 179.271 174.293 179.292C174.257 179.312 174.241 179.34 174.237 179.385C174.228 179.504 174.263 179.596 174.343 179.667C174.571 179.869 175.18 179.905 175.998 179.769C175.486 179.525 174.807 179.26 174.456 179.26Z" fill="#001180"/>
<path d="M176.272 179.896C176.261 179.896 176.248 179.893 176.237 179.888C175.79 179.688 174.905 178.887 174.972 178.468C174.988 178.37 175.058 178.247 175.299 178.223C175.482 178.205 175.641 178.255 175.785 178.374C176.256 178.76 176.356 179.758 176.36 179.8C176.363 179.831 176.35 179.861 176.324 179.879C176.308 179.89 176.291 179.896 176.272 179.896ZM175.369 178.395C175.352 178.395 175.335 178.396 175.316 178.398C175.158 178.414 175.148 178.476 175.145 178.497C175.104 178.748 175.706 179.377 176.162 179.652C176.114 179.36 175.982 178.763 175.673 178.509C175.58 178.433 175.481 178.395 175.369 178.395Z" fill="#001180"/>
<path d="M193.925 114.085L190.293 115.051L193.304 118.698C193.304 118.698 196.214 117.189 195.586 115.558L193.925 114.085Z" fill="#FF8B7B"/>
<path d="M187.662 118.085L190.292 120.941L193.303 118.698L190.292 115.051L187.662 118.085Z" fill="#FF8B7B"/>
<path d="M70.3168 74.8175C69.4972 75.6538 68.6187 76.5789 67.8119 77.5035C66.9918 78.4306 66.1884 79.3724 65.4277 80.3417C64.6646 81.3105 63.9461 82.3033 63.255 83.3069L62.752 84.0676L62.2804 84.8411C62.1184 85.0978 61.9727 85.3594 61.8323 85.6224L61.4441 86.3365C61.314 86.5956 61.2193 87.0918 61.1771 87.6115C61.1339 88.1386 61.1428 88.7158 61.1786 89.3008C61.2537 90.4762 61.4259 91.6962 61.6448 92.9153C61.8554 94.1383 62.1189 95.3663 62.4143 96.5898C62.6936 97.8147 63.018 99.0495 63.3385 100.254L61.5408 100.927C60.4434 98.5401 59.5526 96.1127 58.8145 93.5705C58.4597 92.297 58.1471 90.9989 57.9586 89.6276C57.8678 88.9401 57.8015 88.2363 57.8069 87.4844C57.8187 86.7306 57.8761 85.9341 58.229 85.0031C58.3385 84.7326 58.4003 84.6227 58.4759 84.4607L58.6977 84.0004C58.8435 83.6912 58.9941 83.3864 59.1585 83.092L59.642 82.2007L60.1538 81.3325C60.8483 80.1856 61.5864 79.0706 62.3913 78.0169C63.1888 76.9563 64.0103 75.9193 64.879 74.9235C65.7639 73.9277 66.6286 72.9771 67.6352 72.0206L70.3168 74.8175Z" fill="#B55B52"/>
<path d="M70.5251 68.968C67.896 69.0872 65.4004 73.4502 65.4004 73.4502L68.5045 79.791C68.5045 79.791 73.5777 76.6196 73.6381 72.7675C73.6768 70.2631 73.1105 68.8507 70.5251 68.968Z" fill="#001180"/>
<path opacity="0.5" d="M70.5251 68.968C67.896 69.0872 65.4004 73.4502 65.4004 73.4502L68.5045 79.791C68.5045 79.791 73.5777 76.6196 73.6381 72.7675C73.6768 70.2631 73.1105 68.8507 70.5251 68.968Z" fill="black"/>
<path d="M62.8385 99.4951L66.0364 100.445L63.9084 102.6C63.9084 102.6 61.6047 101.89 61.2832 100.323L62.8385 99.4951Z" fill="#B55B52"/>
<path d="M67.9738 102.906L67.4349 104.966L63.9102 102.6L66.0382 100.445L67.9738 102.906Z" fill="#B55B52"/>
<path d="M141.326 81.5561L63.7188 83.4192L64.4212 112.678L142.028 110.815L141.326 81.5561Z" fill="#001180"/>
<path opacity="0.6" d="M141.326 81.5561L63.7188 83.4192L64.4212 112.678L142.028 110.815L141.326 81.5561Z" fill="white"/>
<path d="M137.424 83.9816L108.49 84.6762L108.752 95.5848L137.686 94.8902L137.424 83.9816Z" fill="#001180"/>
<path opacity="0.7" d="M137.424 83.9816L108.49 84.6762L108.752 95.5848L137.686 94.8902L137.424 83.9816Z" fill="white"/>
<path d="M121.922 97.5598L92.9883 98.2544L93.2502 109.163L122.184 108.468L121.922 97.5598Z" fill="#001180"/>
<path opacity="0.7" d="M121.922 97.5598L92.9883 98.2544L93.2502 109.163L122.184 108.468L121.922 97.5598Z" fill="white"/>
<path d="M88.6323 59.2971C88.5827 59.597 88.7025 59.8714 88.8998 59.9096C89.097 59.9479 89.2973 59.7354 89.3469 59.4355C89.3964 59.1357 89.2767 58.8613 89.0794 58.8231C88.8816 58.7848 88.6819 58.9973 88.6323 59.2971Z" fill="#263238"/>
<path d="M88.9902 58.823L89.7495 58.7558C89.7495 58.7558 89.2847 59.2466 88.9902 58.823Z" fill="#263238"/>
<path d="M88.8377 59.6382C88.8377 59.6382 89.1366 61.0291 89.5974 61.7618C89.1381 62.0543 88.4883 61.754 88.4883 61.754L88.8377 59.6382Z" fill="#A02724"/>
<path d="M89.3692 57.3743C89.3408 57.3743 89.3113 57.3674 89.2848 57.3527C88.5747 56.9714 87.9887 57.259 87.9642 57.2717C87.8758 57.3169 87.7683 57.2815 87.7227 57.1932C87.678 57.1049 87.7124 56.9979 87.7997 56.9522C87.8307 56.936 88.5732 56.5631 89.4541 57.0366C89.5415 57.0838 89.5744 57.1922 89.5273 57.2796C89.4954 57.3404 89.4335 57.3743 89.3692 57.3743Z" fill="#263238"/>
<path d="M79.0456 61.7747C79.1163 64.0666 78.8827 68.1955 77.0859 69.3674C77.0859 69.3674 77.323 71.7241 81.4484 72.5231C85.9847 73.4016 83.9862 70.7038 83.9862 70.7038C81.6075 69.6364 81.9731 67.8225 82.6876 66.1907L79.0456 61.7747Z" fill="#B55B52"/>
<path d="M91.4035 75.1487C91.6847 76.2908 92.043 77.5437 92.4376 78.7186C92.842 79.9039 93.2709 81.0778 93.7681 82.2085C94.2633 83.3393 94.8208 84.4293 95.4529 85.4374C96.0757 86.4469 96.7785 87.3833 97.5721 88.1204C97.9681 88.488 98.3838 88.8095 98.8152 89.0563C99.0302 89.1825 99.2491 89.2904 99.4714 89.3778C99.6127 89.4333 99.6176 89.4401 99.6741 89.4568C99.7232 89.4715 99.7781 89.4838 99.8434 89.4882C100.098 89.5172 100.527 89.4401 100.981 89.2433C101.437 89.048 101.921 88.7604 102.4 88.4326C104.318 87.0815 106.127 85.1674 107.774 83.2691L109.37 84.3356C109.036 84.9554 108.686 85.5169 108.315 86.0896C107.949 86.6609 107.558 87.2169 107.14 87.7582C106.305 88.8424 105.412 89.9068 104.306 90.8604C103.753 91.3394 103.15 91.7949 102.431 92.1821C101.714 92.557 100.865 92.9143 99.8012 92.9271C99.5391 92.9305 99.2667 92.9079 98.9948 92.8589C98.7293 92.8152 98.4221 92.718 98.2577 92.6567C97.8641 92.5202 97.4862 92.3534 97.127 92.1639C96.404 91.789 95.7577 91.3272 95.1727 90.828C92.8454 88.7987 91.4212 86.2957 90.2507 83.7933C89.6701 82.5344 89.1617 81.2574 88.7332 79.9583C88.3004 78.6465 87.921 77.3813 87.6152 75.9693L91.4035 75.1487Z" fill="#B55B52"/>
<path d="M107.582 83.4615L108.694 81.4174L111.786 82.236C111.786 82.236 109.934 85.0604 108.343 85.0649L107.582 83.4615Z" fill="#B55B52"/>
<path d="M111.211 80.6817L113.562 82.236H111.783L108.691 81.4174L111.211 80.6817Z" fill="#B55B52"/>
<path d="M69.1738 179.543L72.9621 179.821L74.0875 171.122L70.2992 170.843L69.1738 179.543Z" fill="#B55B52"/>
<path d="M39.3613 160.838L41.9801 163.648L49.0802 158.563L46.4619 155.753L39.3613 160.838Z" fill="#B55B52"/>
<path d="M43.1255 163.21L40.9406 159.482C40.8611 159.346 40.705 159.29 40.5651 159.346L37.4526 160.6C37.1297 160.73 37.0031 161.158 37.1915 161.468C37.9753 162.756 38.4165 163.339 39.3774 164.978C39.9688 165.987 40.7305 167.521 41.5472 168.913C42.3457 170.276 43.7444 169.597 43.5255 168.945C42.5439 166.026 43.0524 165.176 43.2531 163.881C43.2889 163.647 43.2418 163.409 43.1255 163.21Z" fill="#263238"/>
<path d="M73.1994 179.282H68.9414C68.7863 179.282 68.6582 179.389 68.6322 179.541L68.0604 182.91C68.0011 183.259 68.2931 183.59 68.6508 183.584C70.1359 183.558 70.8539 183.471 72.7262 183.471C73.8781 183.471 76.2579 183.591 77.849 183.591C79.4047 183.591 79.5652 182.018 78.9061 181.875C75.9521 181.236 74.8057 180.355 73.8266 179.515C73.6504 179.363 73.4261 179.282 73.1994 179.282Z" fill="#263238"/>
<path d="M74.0862 171.125L73.4619 175.959L69.7168 175.332L70.2964 170.846L74.0862 171.125Z" fill="#9E4541"/>
<path d="M46.4573 155.754L49.0771 158.564L46.1388 160.667L43.4277 157.921L46.4573 155.754Z" fill="#9E4541"/>
<path d="M69.457 92.0457C72.3948 92.6135 78.6262 93.8213 84.6524 94.9908C91.833 73.8516 90.1148 73.1675 90.1148 73.1675C90.1148 73.1675 88.5904 72.3185 86.6661 71.5666C86.5925 71.5376 86.5238 71.5131 86.4599 71.4891C85.4887 71.1347 85.2836 71.0817 83.982 70.7028C81.7441 70.1738 79.6598 69.7419 77.0822 69.3684C76.9168 69.3444 76.7509 69.3198 76.59 69.3002C76.1227 69.2418 75.6599 69.1937 75.2124 69.15C74.9105 69.1161 74.6092 69.0965 74.3221 69.0774C73.982 69.0577 73.6512 69.0386 73.3405 69.0239C71.6788 68.9414 70.4911 68.9655 70.4911 68.9655C71.3617 82.1575 70.7272 85.9468 69.457 92.0457Z" fill="#001180"/>
<path opacity="0.5" d="M69.457 92.0457C72.3948 92.6135 78.6262 93.8213 84.6524 94.9908C91.833 73.8516 90.1148 73.1675 90.1148 73.1675C90.1148 73.1675 88.5904 72.3185 86.6661 71.5666C86.5925 71.5376 86.5238 71.5131 86.4599 71.4891C85.4887 71.1347 85.2836 71.0817 83.982 70.7028C81.7441 70.1738 79.6598 69.7419 77.0822 69.3684C76.9168 69.3444 76.7509 69.3198 76.59 69.3002C76.1227 69.2418 75.6599 69.1937 75.2124 69.15C74.9105 69.1161 74.6092 69.0965 74.3221 69.0774C73.982 69.0577 73.6512 69.0386 73.3405 69.0239C71.6788 68.9414 70.4911 68.9655 70.4911 68.9655C71.3617 82.1575 70.7272 85.9468 69.457 92.0457Z" fill="black"/>
<path d="M87.0442 79.5996C86.4504 82.5736 87.0786 85.0472 87.4908 86.2299C88.7521 82.0976 89.4686 79.2707 89.8563 77.3371C88.6932 77.1849 87.4516 77.5628 87.0442 79.5996Z" fill="#001180"/>
<path opacity="0.6" d="M87.0442 79.5996C86.4504 82.5736 87.0786 85.0472 87.4908 86.2299C88.7521 82.0976 89.4686 79.2707 89.8563 77.3371C88.6932 77.1849 87.4516 77.5628 87.0442 79.5996Z" fill="black"/>
<path d="M89.9863 73.0968C92.5212 74.7512 94.1368 78.4325 94.5663 80.5414L88.6848 85.3353C88.6848 85.3353 85.4805 78.1808 86.5323 76.3521C87.6272 74.4484 89.0279 72.4711 89.9863 73.0968Z" fill="#001180"/>
<path opacity="0.5" d="M89.9863 73.0968C92.5212 74.7512 94.1368 78.4325 94.5663 80.5414L88.6848 85.3353C88.6848 85.3353 85.4805 78.1808 86.5323 76.3521C87.6272 74.4484 89.0279 72.4711 89.9863 73.0968Z" fill="black"/>
<path d="M78.6707 56.5175C78.2894 60.2469 78.0484 61.8149 79.6081 64.069C81.954 67.4598 86.636 67.2478 88.1279 63.7407C89.4707 60.5836 89.8687 55.0152 86.4829 52.846C83.1466 50.7087 79.0515 52.7881 78.6707 56.5175Z" fill="#B55B52"/>
<path d="M78.7241 48.904C76.4336 50.6016 77.9011 51.0104 76.9244 52.7222C75.8756 54.5602 74.7812 52.467 72.6983 54.4871C71.3487 55.796 73.6524 57.1863 71.9759 59.492C70.6734 61.2833 69.259 59.7315 69.8082 63.403C70.1831 65.9094 68.6494 65.5977 67.6149 67.0156C66.1313 69.0489 67.4613 70.5055 71.2501 71.2691C75.0388 72.0323 72.3386 75.8446 75.9021 75.9585C79.7876 76.0831 78.8851 71.0188 80.7829 72.2507C82.6095 73.4359 86.124 72.3577 85.9169 69.3325C85.7265 66.5562 82.6439 66.6514 85.14 64.7526C87.0933 63.2665 87.695 63.2857 86.3139 60.1212C85.14 57.4317 89.4495 57.841 89.3695 55.5098C89.2252 51.3059 86.3139 52.5652 85.3972 50.4112C84.8018 49.0125 81.6614 46.7269 78.7241 48.904Z" fill="#263238"/>
<path d="M85.9161 58.4599C85.9097 59.1416 86.2067 59.8655 86.5904 60.3901C87.1681 61.1798 87.8488 60.9712 88.0171 60.2468C88.1683 59.5946 88.0505 58.3976 87.3129 57.8484C86.586 57.3071 85.9235 57.6806 85.9161 58.4599Z" fill="#B55B52"/>
<path d="M80.6437 94.2124C80.6437 94.2124 73.2404 119.003 69.6243 133.281C65.8091 148.344 47.6013 160.623 47.6013 160.623L43.7168 156.758C43.7168 156.758 55.889 146.484 59.585 132.427C67.088 103.891 63.4784 97.8471 69.4604 92.0466L80.6437 94.2124Z" fill="#001180"/>
<path opacity="0.8" d="M80.6437 94.2124C80.6437 94.2124 73.2404 119.003 69.6243 133.281C65.8091 148.344 47.6013 160.623 47.6013 160.623L43.7168 156.758C43.7168 156.758 55.889 146.484 59.585 132.427C67.088 103.891 63.4784 97.8471 69.4604 92.0466L80.6437 94.2124Z" fill="white"/>
<path d="M47.9338 161.184L43.084 156.358L44.4022 154.895L50.3053 159.922L47.9338 161.184Z" fill="#001180"/>
<path d="M77.1668 99.4927C72.3101 103.238 71.9852 117.512 72.0966 123.96C74.5662 114.946 77.4872 104.917 79.1951 99.1143C78.7289 98.7212 78.0595 98.8036 77.1668 99.4927Z" fill="#001180"/>
<path opacity="0.6" d="M77.1668 99.4927C72.3101 103.238 71.9852 117.512 72.0966 123.96C74.5662 114.946 77.4872 104.917 79.1951 99.1143C78.7289 98.7212 78.0595 98.8036 77.1668 99.4927Z" fill="white"/>
<path d="M43.9115 165.233C43.8663 165.233 43.8202 165.226 43.7746 165.212C43.3122 165.071 42.9844 164.225 42.8303 163.733C42.8195 163.699 42.8303 163.662 42.8578 163.638C42.8858 163.614 42.9245 163.61 42.9564 163.627C43.0963 163.698 44.3242 164.339 44.3733 164.824C44.3841 164.932 44.3414 165.027 44.2491 165.101C44.1387 165.189 44.0258 165.233 43.9115 165.233ZM43.0723 163.893C43.301 164.541 43.5778 164.965 43.8271 165.041C43.9291 165.073 44.0307 165.046 44.1367 164.961C44.1942 164.915 44.1976 164.873 44.1947 164.842C44.1686 164.586 43.5562 164.164 43.0723 163.893Z" fill="#001180"/>
<path d="M84.4272 94.9893C84.4272 94.9893 85.3734 124.984 83.2542 136.281C81.0502 148.032 74.3368 174.764 74.3368 174.764L68.873 174.059C68.873 174.059 72.3281 147.055 73.795 135.379C75.3945 122.65 73.2989 92.8348 73.2989 92.8348L84.4272 94.9893Z" fill="#001180"/>
<path opacity="0.8" d="M84.4272 94.9893C84.4272 94.9893 85.3734 124.984 83.2542 136.281C81.0502 148.032 74.3368 174.764 74.3368 174.764L68.873 174.059C68.873 174.059 72.3281 147.055 73.795 135.379C75.3945 122.65 73.2989 92.8348 73.2989 92.8348L84.4272 94.9893Z" fill="white"/>
<path d="M75.4971 175.075L67.709 174.07L67.8057 172.22L76.2779 172.589L75.4971 175.075Z" fill="#001180"/>
<path d="M44.0364 164.05C43.6129 164.05 43.0995 163.92 42.8699 163.784C42.8424 163.768 42.8262 163.738 42.8262 163.706C42.8267 163.675 42.8434 163.645 42.8708 163.629C42.9101 163.607 43.8318 163.071 44.3544 163.242C44.4973 163.289 44.5998 163.381 44.6587 163.517C44.7515 163.728 44.6602 163.853 44.5974 163.908C44.4816 164.01 44.2725 164.05 44.0364 164.05ZM43.1118 163.702C43.5383 163.875 44.2818 163.946 44.4781 163.773C44.5105 163.744 44.5414 163.698 44.4938 163.588C44.4551 163.501 44.3913 163.443 44.2985 163.413C43.9864 163.313 43.4284 163.541 43.1118 163.702Z" fill="#001180"/>
<path d="M74.6079 179.945C74.1903 179.945 73.7387 179.873 73.4183 179.81C73.3805 179.802 73.352 179.772 73.3466 179.734C73.3412 179.696 73.3604 179.659 73.3947 179.642C73.5684 179.553 75.1021 178.777 75.559 179.038C75.6469 179.088 75.6969 179.171 75.7043 179.277C75.7156 179.456 75.6577 179.603 75.5311 179.714C75.3318 179.887 74.9838 179.945 74.6079 179.945ZM73.7186 179.682C74.5529 179.82 75.1767 179.785 75.4123 179.578C75.4957 179.505 75.5325 179.41 75.5247 179.288C75.5217 179.241 75.5055 179.213 75.4707 179.194C75.2219 179.053 74.3488 179.383 73.7186 179.682Z" fill="#001180"/>
<path d="M73.4352 179.811C73.4165 179.811 73.3979 179.805 73.3827 179.794C73.3567 179.775 73.3424 179.743 73.3463 179.711C73.3537 179.642 73.5486 178.001 74.4501 178.099C74.695 178.123 74.7662 178.248 74.7819 178.348C74.8506 178.776 73.9338 179.597 73.472 179.803C73.4602 179.809 73.4479 179.811 73.4352 179.811ZM74.3794 178.275C73.8327 178.275 73.6173 179.175 73.55 179.56C74.0221 179.278 74.6459 178.633 74.6042 178.376C74.6013 178.356 74.591 178.294 74.4315 178.277C74.4138 178.276 74.3966 178.275 74.3794 178.275Z" fill="#001180"/>
<path d="M69.3782 91.1156L68.4692 92.3351C68.3986 92.4299 68.506 92.5609 68.6817 92.5952L84.6187 95.6817C84.7556 95.7082 84.8803 95.6636 84.9029 95.5796L85.2631 94.2536C85.2881 94.1618 85.1826 94.0592 85.0324 94.0303L69.6437 91.0498C69.5313 91.0282 69.4233 91.0547 69.3782 91.1156Z" fill="#001180"/>
<path d="M71.163 93.2269L70.7508 93.1469C70.6688 93.1312 70.6133 93.0767 70.6271 93.0267L71.1105 91.307C71.1247 91.257 71.2033 91.2285 71.2857 91.2442L71.698 91.3242C71.7799 91.3399 71.8354 91.3944 71.8216 91.4444L71.3382 93.1641C71.324 93.2147 71.245 93.2426 71.163 93.2269Z" fill="#001180"/>
<path opacity="0.8" d="M71.163 93.2269L70.7508 93.1469C70.6688 93.1312 70.6133 93.0767 70.6271 93.0267L71.1105 91.307C71.1247 91.257 71.2033 91.2285 71.2857 91.2442L71.698 91.3242C71.7799 91.3399 71.8354 91.3944 71.8216 91.4444L71.3382 93.1641C71.324 93.2147 71.245 93.2426 71.163 93.2269Z" fill="white"/>
<path d="M81.5713 95.2671L81.1591 95.1871C81.0771 95.1714 81.0212 95.1169 81.0354 95.0668L81.5188 93.3472C81.5331 93.2966 81.6116 93.2686 81.694 93.2843L82.1063 93.3643C82.1882 93.38 82.2442 93.4345 82.23 93.4846L81.7466 95.2042C81.7318 95.2548 81.6533 95.2828 81.5713 95.2671Z" fill="#001180"/>
<path opacity="0.8" d="M81.5713 95.2671L81.1591 95.1871C81.0771 95.1714 81.0212 95.1169 81.0354 95.0668L81.5188 93.3472C81.5331 93.2966 81.6116 93.2686 81.694 93.2843L82.1063 93.3643C82.1882 93.38 82.2442 93.4345 82.23 93.4846L81.7466 95.2042C81.7318 95.2548 81.6533 95.2828 81.5713 95.2671Z" fill="white"/>
</svg>
