<svg width="196" height="195" viewBox="0 0 196 195" fill="none" xmlns="http://www.w3.org/2000/svg">
<path d="M175.46 149.478L181.766 149.346L184.872 149.293C185.905 149.271 186.932 149.276 187.962 149.267L187.752 149.478L187.726 144.195L187.962 144.43L181.711 144.401C179.628 144.398 177.544 144.348 175.46 144.323L175.589 144.194C175.58 145.059 175.549 145.928 175.527 146.808L175.46 149.478ZM175.46 149.478L175.393 146.864C175.372 145.983 175.34 145.091 175.332 144.195L175.33 144.067L175.46 144.066C177.544 144.042 179.628 143.991 181.711 143.989L187.962 143.959L188.199 143.958L188.198 144.195L188.172 149.478L188.172 149.69L187.962 149.688C186.908 149.68 185.852 149.684 184.801 149.662L181.656 149.609L175.46 149.478Z" fill="#EBEBEB"/>
<path d="M182.433 156.139L188.739 156.008L191.845 155.955C192.878 155.933 193.905 155.937 194.935 155.929L194.724 156.139L194.699 150.856L194.935 151.092L188.684 151.062C186.6 151.06 184.516 151.009 182.433 150.985L182.562 150.856C182.553 151.72 182.521 152.59 182.5 153.47L182.433 156.139ZM182.433 156.139L182.366 153.526C182.345 152.644 182.313 151.753 182.304 150.856L182.303 150.729L182.433 150.728C184.516 150.703 186.6 150.652 188.684 150.65L194.935 150.62L195.172 150.619L195.171 150.856L195.145 156.139L195.144 156.351L194.935 156.349C193.881 156.341 192.825 156.346 191.774 156.323L188.629 156.271L182.433 156.139Z" fill="#EBEBEB"/>
<path d="M168.486 156.139L174.791 156.007L177.897 155.955C178.93 155.932 179.958 155.937 180.988 155.929L180.777 156.139L180.752 150.856L180.987 151.092L174.737 151.062C172.653 151.06 170.569 151.009 168.486 150.985L168.615 150.856C168.606 151.72 168.574 152.59 168.553 153.469L168.486 156.139ZM168.486 156.139L168.419 153.526C168.397 152.644 168.366 151.753 168.357 150.856L168.355 150.729L168.486 150.727C170.569 150.703 172.653 150.652 174.737 150.65L180.987 150.62L181.224 150.619L181.223 150.856L181.198 156.139L181.197 156.351L180.987 156.349C179.934 156.341 178.877 156.346 177.827 156.323L174.682 156.27L168.486 156.139Z" fill="#EBEBEB"/>
<path d="M78.6811 31.1257L84.9866 30.9939L88.0927 30.9411C89.1256 30.9189 90.153 30.9236 91.1831 30.9151L90.9725 31.1257L90.947 25.8427L91.1826 26.0783L84.9319 26.0486C82.8484 26.0462 80.7645 25.9952 78.6811 25.9711L78.81 25.8422C78.801 26.7067 78.7694 27.5763 78.7481 28.4559L78.6811 31.1257ZM78.6811 31.1257L78.614 28.512C78.5928 27.6306 78.5612 26.7393 78.5522 25.8427L78.5508 25.7152L78.6811 25.7138C80.7645 25.6898 82.8484 25.6388 84.9319 25.6364L91.1826 25.6067L91.4196 25.6057L91.4187 25.8427L91.3932 31.1257L91.3923 31.3376L91.1826 31.3357C90.1289 31.3272 89.0728 31.332 88.0218 31.3098L84.8771 31.2569L78.6811 31.1257Z" fill="#EBEBEB"/>
<path d="M7.35296 156.139L13.6585 156.008L16.7645 155.955C17.7975 155.933 18.8248 155.937 19.855 155.929L19.6444 156.139L19.6189 150.856L19.8545 151.092L13.6037 151.062C11.5203 151.06 9.43639 151.009 7.35296 150.985L7.48185 150.857C7.47288 151.721 7.44124 152.591 7.42 153.47L7.35296 156.139ZM7.35296 156.139L7.28592 153.526C7.26467 152.644 7.23304 151.753 7.22407 150.856L7.22266 150.729L7.35296 150.728C9.43639 150.703 11.5203 150.652 13.6037 150.65L19.8545 150.62L20.0915 150.619L20.0906 150.856L20.0651 156.139L20.0641 156.351L19.8545 156.349C18.8008 156.341 17.7446 156.346 16.6937 156.323L13.549 156.271L7.35296 156.139Z" fill="#EBEBEB"/>
<path d="M7.35296 5.57823L13.6585 5.44651L16.7645 5.39364C17.7975 5.37145 18.8248 5.37617 19.855 5.36767L19.6444 5.57823L19.6189 0.29529L19.8545 0.530875L13.6037 0.501132C11.5203 0.498772 9.43639 0.448255 7.35296 0.423705L7.48185 0.29529C7.47288 1.15973 7.44124 2.02936 7.42 2.90891L7.35296 5.57823ZM7.35296 5.57823L7.28592 2.96462C7.26467 2.08318 7.23304 1.19183 7.22407 0.29529L7.22266 0.16782L7.35296 0.166402C9.43639 0.142325 11.5203 0.0913376 13.6037 0.0889771L19.8545 0.0592341L20.0915 0.0582886L20.0906 0.29529L20.0651 5.57823L20.0641 5.79021L19.8545 5.78879C18.8008 5.7803 17.7446 5.78502 16.6937 5.76283L13.549 5.70995L7.35296 5.57823Z" fill="#EBEBEB"/>
<path d="M0.382257 12.2392L6.6878 12.1075L9.79383 12.0546C10.8268 12.0325 11.8541 12.0372 12.8843 12.0287L12.6737 12.2392L12.6482 6.9563L12.8838 7.19188L6.63303 7.16214C4.5496 7.15978 2.46569 7.10927 0.382257 7.08472L0.511143 6.95583C0.502173 7.82027 0.470541 8.6899 0.449296 9.56945L0.382257 12.2392ZM0.382257 12.2392L0.315216 9.62562C0.293971 8.74419 0.262339 7.85284 0.253369 6.9563L0.251953 6.82883L0.382257 6.82741C2.46569 6.80334 4.5496 6.75235 6.63303 6.74999L12.8838 6.72024L13.1208 6.7193L13.1199 6.9563L13.0944 12.2392L13.0934 12.4512L12.8838 12.4493C11.83 12.4408 10.7739 12.4456 9.72301 12.4234L6.57826 12.3705L0.382257 12.2392Z" fill="#EBEBEB"/>
<path d="M182.433 5.58385L188.739 5.45213L191.845 5.39925C192.878 5.37706 193.905 5.38178 194.935 5.37329L194.724 5.58385L194.699 0.300904L194.935 0.536488L188.684 0.506745C186.6 0.504385 184.516 0.45387 182.433 0.42932L182.562 0.300432C182.553 1.16487 182.521 2.0345 182.5 2.91405L182.433 5.58385ZM182.433 5.58385L182.366 2.97023C182.345 2.0888 182.313 1.19745 182.304 0.300904L182.303 0.173435L182.433 0.172018C184.516 0.14794 186.6 0.0969529 188.684 0.0945923L194.935 0.0648475L195.172 0.0639038L195.171 0.300904L195.145 5.58385L195.144 5.79582L194.935 5.79441C193.881 5.78591 192.825 5.79063 191.774 5.76844L188.629 5.71557L182.433 5.58385Z" fill="#EBEBEB"/>
<path d="M71.1214 114.852L64.8158 114.984L61.7098 115.037C60.6768 115.059 59.6495 115.054 58.6193 115.063L58.8299 114.852L58.8554 120.135L58.6198 119.899L64.8706 119.929C66.954 119.931 69.0379 119.982 71.1214 120.007L70.9925 120.135C71.0014 119.271 71.0331 118.401 71.0543 117.522L71.1214 114.852ZM71.1214 114.852L71.1884 117.466C71.2096 118.347 71.2413 119.238 71.2502 120.135L71.2517 120.262L71.1214 120.264C69.0379 120.288 66.954 120.339 64.8706 120.341L58.6198 120.371L58.3828 120.372L58.3838 120.135L58.4093 114.852L58.4102 114.641L58.6198 114.642C59.6736 114.65 60.7297 114.646 61.7806 114.668L64.9254 114.721L71.1214 114.852Z" fill="#EBEBEB"/>
<path d="M64.1468 108.19L57.8412 108.322L54.7352 108.375C53.7022 108.397 52.6749 108.393 51.6447 108.401L51.8553 108.19L51.8808 113.473L51.6452 113.238L57.896 113.268C59.9794 113.27 62.0633 113.32 64.1468 113.345L64.0179 113.474C64.0268 112.609 64.0585 111.74 64.0797 110.86L64.1468 108.19ZM64.1468 108.19L64.2138 110.804C64.235 111.686 64.2667 112.577 64.2756 113.473L64.2771 113.601L64.1468 113.602C62.0633 113.626 59.9794 113.677 57.896 113.68L51.6452 113.709L51.4082 113.71L51.4091 113.473L51.4346 108.19L51.4356 107.979L51.6452 107.98C52.699 107.988 53.7551 107.984 54.806 108.006L57.9507 108.059L64.1468 108.19Z" fill="#EBEBEB"/>
<path d="M46.34 26.9112C49.4826 18.8261 45.4759 9.72421 37.3909 6.5816C29.3058 3.43899 20.2039 7.44566 17.0613 15.5308C13.9187 23.6158 17.9254 32.7177 26.0104 35.8603C34.0955 39.0029 43.1974 34.9962 46.34 26.9112Z" fill="#EBEBEB"/>
<path d="M32.4179 36.5587C40.6946 36.5587 47.4042 29.8491 47.4042 21.5724C47.4042 13.2957 40.6946 6.58612 32.4179 6.58612C24.1412 6.58612 17.4316 13.2957 17.4316 21.5724C17.4316 29.8491 24.1412 36.5587 32.4179 36.5587Z" fill="#DBDBDB"/>
<path d="M46.3538 23.2497C47.2805 15.5514 41.7911 8.5595 34.093 7.63291C26.395 6.70632 19.4033 12.1959 18.4766 19.8942C17.55 27.5926 23.0394 34.5845 30.7374 35.5111C38.4355 36.4376 45.4272 30.9481 46.3538 23.2497Z" fill="white"/>
<path opacity="0.5" d="M46.138 18.593C39.7446 22.4667 29.2368 28.8213 23.3637 32.305C21.7161 30.9142 20.3941 29.1523 19.5273 27.1467L38.9515 9.14459C42.5683 11.0486 45.2509 14.487 46.138 18.593Z" fill="#EBEBEB"/>
<path opacity="0.5" d="M46.4451 22.0625C46.3918 23.6663 46.0674 25.2016 45.5174 26.625L28.0063 34.9063C27.2382 34.6519 26.4984 34.3337 25.7949 33.956C31.0845 30.899 40.7505 25.3375 46.4451 22.0625Z" fill="#EBEBEB"/>
<path d="M32.5565 8.55164H32.2852V10.6793H32.5565V8.55164Z" fill="#C7C7C7"/>
<path d="M26.0319 10.2275L25.7969 10.3632L26.8607 12.206L27.0957 12.0703L26.0319 10.2275Z" fill="#C7C7C7"/>
<path d="M21.2138 14.9457L21.0781 15.1807L22.9207 16.2448L23.0564 16.0097L21.2138 14.9457Z" fill="#C7C7C7"/>
<path d="M21.5276 21.437H19.4004V21.7084H21.5276V21.437Z" fill="#C7C7C7"/>
<path d="M22.9187 26.9016L21.0762 27.9655L21.2119 28.2005L23.0544 27.1367L22.9187 26.9016Z" fill="#C7C7C7"/>
<path d="M26.8555 30.9401L25.793 32.7829L26.0281 32.9185L27.0906 31.0757L26.8555 30.9401Z" fill="#C7C7C7"/>
<path d="M32.5565 32.465H32.2852V34.5927H32.5565V32.465Z" fill="#C7C7C7"/>
<path d="M37.985 30.9371L37.75 31.0728L38.8136 32.9149L39.0486 32.7792L37.985 30.9371Z" fill="#C7C7C7"/>
<path d="M41.9189 26.9001L41.7832 27.1351L43.6257 28.1989L43.7614 27.9639L41.9189 26.9001Z" fill="#C7C7C7"/>
<path d="M45.4416 21.437H43.3145V21.7084H45.4416V21.437Z" fill="#C7C7C7"/>
<path d="M43.6277 14.9449L41.7852 16.0087L41.9208 16.2437L43.7634 15.1799L43.6277 14.9449Z" fill="#C7C7C7"/>
<path d="M38.8108 10.2265L37.748 12.0697L37.9831 12.2053L39.0459 10.3621L38.8108 10.2265Z" fill="#C7C7C7"/>
<path d="M32.6225 9.51553L33.0843 22.5199L31.752 22.5033L32.2609 9.5108L32.6225 9.51553Z" fill="#C7C7C7"/>
<path d="M40.723 17.0372L31.9738 22.6218L31.3379 21.4515L40.5502 16.7195L40.723 17.0372Z" fill="#A6A6A6"/>
<path d="M32.8739 21.5722C32.8739 21.8233 32.6704 22.0267 32.4194 22.0267C32.1683 22.0267 31.9648 21.8233 31.9648 21.5722C31.9648 21.3212 32.1683 21.1177 32.4194 21.1177C32.6704 21.1177 32.8739 21.3212 32.8739 21.5722Z" fill="#C7C7C7"/>
<path d="M71.6585 172.721H22.6296L20.6523 133.714H73.6362L71.6585 172.721Z" fill="#EBEBEB"/>
<path d="M26.4668 138.028H67.8253L67.0803 151.57H27.3369L26.4668 138.028ZM67.3178 138.508H26.9781L27.7859 151.09H66.6252L67.3178 138.508Z" fill="#DBDBDB"/>
<path d="M27.3066 154.925H66.1323L65.5242 167.149H28.0705L27.3066 154.925ZM65.628 155.405H27.8175L28.5214 166.669H65.0676L65.628 155.405Z" fill="#DBDBDB"/>
<path d="M42.9609 143.001H50.4817L50.0606 146.267H43.3825L42.9609 143.001ZM49.9359 143.481H43.5062L43.8037 145.788H49.6385L49.9359 143.481Z" fill="#DBDBDB"/>
<path d="M42.9609 159.404H50.4817L50.0606 162.67H43.3825L42.9609 159.404ZM49.9359 159.884H43.5062L43.8037 162.19H49.6385L49.9359 159.884Z" fill="#DBDBDB"/>
<path d="M63.1309 172.721L63.7276 176.97L64.9282 185.509H67.276V172.721H63.1309Z" fill="#EBEBEB"/>
<path d="M63.1309 172.721L63.7276 176.97H67.276V172.721H63.1309Z" fill="#DBDBDB"/>
<path d="M31.1534 172.721L30.5562 176.97L29.3556 185.509H27.0078V172.721H31.1534Z" fill="#EBEBEB"/>
<path d="M31.1534 172.721L30.5562 176.97H27.0078V172.721H31.1534Z" fill="#DBDBDB"/>
<path d="M0.570312 185.509L24.8426 185.394L49.1153 185.352L97.6603 185.273L146.205 185.351L170.478 185.393L194.75 185.509L170.478 185.624L146.205 185.665L97.6603 185.744L49.1153 185.665L24.8426 185.623L0.570312 185.509Z" fill="#263238"/>
<path d="M177.165 94.8047H18.1602V100.459H177.165V94.8047Z" fill="#37474F"/>
<path d="M171.472 100.461H23.8496V106.114H171.472V100.461Z" fill="#455A64"/>
<path d="M23.8597 185.454H21.5742L28.2263 106.114H34.0597L23.8597 185.454Z" fill="#455A64"/>
<path d="M34.0605 106.115L33.3773 111.424H27.7852L28.2285 106.115H34.0605Z" fill="#263238"/>
<path d="M171.46 185.454H173.745L167.093 106.114H161.26L171.46 185.454Z" fill="#455A64"/>
<path d="M161.262 106.115L161.945 111.424H167.537L167.094 106.115H161.262Z" fill="#263238"/>
<path d="M41.7412 135.552C40.059 133.903 37.8845 131.912 35.3129 132.622C32.8933 133.291 31.967 135.932 31.5336 138.133C30.9751 140.969 30.5407 143.833 30.0903 146.688C29.6352 149.572 29.2084 152.46 28.7935 155.349C28.5593 156.979 28.327 158.61 28.0994 160.241C27.9857 161.057 27.8724 161.873 27.7595 162.689C27.6486 163.489 27.515 164.288 27.4711 165.096C27.4569 165.352 27.8606 165.39 27.9167 165.145C28.2283 163.784 28.3572 162.37 28.5574 160.989C28.7585 159.6 28.9592 158.211 29.1622 156.823C29.5658 154.064 29.9827 151.308 30.3982 148.551C30.8141 145.793 31.2442 143.038 31.6842 140.283C32.0572 137.948 32.2333 135.046 34.304 133.506C35.4399 132.661 36.8888 132.651 38.1762 133.143C39.5387 133.662 40.627 134.638 41.693 135.603C41.726 135.633 41.7737 135.583 41.7412 135.552Z" fill="#263238"/>
<path d="M39.4369 133.867C39.4369 133.867 35.9981 132.629 34.3013 135.139C32.6045 137.649 34.6327 144.032 50.2903 147.634C50.2903 147.634 49.8801 140.8 46.5233 133.48C43.1661 126.159 37.1854 128.931 39.4369 133.867Z" fill="#1474DD"/>
<path d="M49.3883 146.589C49.173 146.145 48.869 145.732 48.6008 145.319C48.3393 144.915 48.0749 144.513 47.8067 144.114C47.6056 143.813 47.3998 143.515 47.1939 143.217C47.2086 143.145 47.2128 143.069 47.2232 142.993C47.2411 142.858 47.2591 142.722 47.2765 142.586C47.3148 142.293 47.3577 142 47.4012 141.707C47.4441 141.415 47.4932 141.124 47.549 140.834C47.6061 140.537 47.6354 140.188 47.7539 139.911C47.7732 139.866 47.6915 139.843 47.6854 139.897C47.666 140.071 47.5924 140.247 47.5456 140.415C47.5093 140.547 47.4744 140.679 47.4408 140.811C47.3648 141.108 47.2926 141.406 47.2256 141.705C47.1637 141.981 47.1118 142.258 47.0646 142.537C47.0419 142.67 47.0221 142.804 47.0041 142.938C46.7251 142.54 46.4404 142.146 46.1468 141.759C45.3154 140.664 44.4358 139.61 43.5261 138.582C43.5299 138.571 43.5393 138.566 43.5398 138.553C43.621 136.908 43.5818 135.28 43.9463 133.661C43.9562 133.617 43.8896 133.593 43.8797 133.637C43.5374 135.156 43.1961 136.749 43.2947 138.318C42.9685 137.953 42.638 137.591 42.3047 137.232C41.5423 136.412 40.7656 135.605 39.972 134.815C39.9399 134.783 39.8894 134.83 39.9201 134.863C41.2396 136.284 42.4926 137.763 43.713 139.269C42.7622 139.238 41.7963 139.305 40.8506 139.375C39.7888 139.454 38.7341 139.589 37.6799 139.735C37.6351 139.741 37.6487 139.811 37.6936 139.805C38.7417 139.648 39.8006 139.565 40.8596 139.521C41.8808 139.478 42.8968 139.524 43.9175 139.521C44.5765 140.339 45.2295 141.162 45.872 141.993C45.8262 141.992 45.7785 141.992 45.7266 141.99C45.4868 141.986 45.2465 141.982 45.0066 141.986C44.5307 141.995 44.0544 142.028 43.5804 142.068C42.6083 142.151 41.6414 142.287 40.6892 142.501C40.6443 142.511 40.658 142.575 40.7029 142.57C41.6645 142.462 42.6291 142.371 43.5969 142.337C44.0586 142.321 44.5204 142.321 44.9821 142.321C45.2219 142.321 45.4622 142.319 45.702 142.323C45.8465 142.325 45.9768 142.341 46.0972 142.286C46.5183 142.833 46.9399 143.38 47.3573 143.929C47.6896 144.367 48.0173 144.808 48.3393 145.253C48.6679 145.708 48.9658 146.204 49.3317 146.63C49.3586 146.661 49.4053 146.624 49.3883 146.589Z" fill="#263238"/>
<path d="M40.934 137.424C40.3849 137.334 39.8146 137.343 39.2594 137.342C38.7009 137.342 38.1414 137.359 37.5834 137.378C37.5324 137.38 37.5357 137.452 37.5876 137.448C38.1542 137.408 38.7202 137.398 39.2877 137.406C39.8354 137.414 40.3849 137.467 40.9321 137.452C40.95 137.451 40.9519 137.426 40.934 137.424Z" fill="#263238"/>
<path d="M45.8462 138.686C45.9104 138.151 45.9775 137.613 46.0912 137.087C46.1021 137.037 46.0303 137.021 46.0228 137.072C45.9425 137.599 45.8401 138.121 45.7622 138.648C45.7235 138.912 45.6876 139.176 45.655 139.44C45.6253 139.681 45.5691 139.944 45.5908 140.187C45.5951 140.234 45.6706 140.238 45.6824 140.193C45.7461 139.957 45.74 139.692 45.7636 139.448C45.7886 139.194 45.816 138.94 45.8462 138.686Z" fill="#263238"/>
<path d="M44.8183 132.761C44.6814 133.281 44.5454 133.808 44.4496 134.337C44.401 134.606 44.3599 134.876 44.3235 135.147C44.2886 135.405 44.2414 135.677 44.2711 135.938C44.2735 135.959 44.3061 135.96 44.3117 135.941C44.3877 135.699 44.4019 135.436 44.4354 135.187C44.4704 134.927 44.51 134.667 44.5549 134.408C44.6498 133.862 44.7465 133.321 44.8849 132.785C44.8962 132.741 44.8296 132.717 44.8183 132.761Z" fill="#263238"/>
<path d="M24.6623 164.701C24.5759 163.715 24.48 162.73 24.3762 161.746C24.1703 159.795 23.9324 157.849 23.6708 155.905C23.4102 153.967 23.161 152.025 22.8494 150.094C22.7063 149.209 22.559 148.302 22.2521 147.456C21.9882 146.729 21.5525 146.07 20.7909 145.807C18.9488 145.171 17.7057 147.081 16.9621 148.433C16.9394 148.474 16.9985 148.504 17.024 148.467C17.4692 147.827 18.7004 146.03 20.0979 146.114C21.0383 146.17 21.7904 146.835 22.2417 149.18C23.3663 155.023 24.3804 166.878 24.4984 167.654C24.5612 168.065 24.8516 168.047 24.8539 167.606C24.8596 166.637 24.7468 165.667 24.6623 164.701Z" fill="#263238"/>
<path d="M17.4604 147.706C17.4604 147.706 19.0703 142.02 15.5111 144.863C9.58556 149.596 9.375 159.889 9.375 159.889C9.375 159.889 19.9078 153.772 21.2175 149.736C23.1687 143.726 17.4604 147.706 17.4604 147.706Z" fill="#1474DD"/>
<path d="M19.4528 150.497C18.6261 150.665 17.7881 150.775 16.9534 150.895C16.5583 150.951 16.1631 151.007 15.7679 151.061C15.5012 151.098 15.2307 151.124 14.962 151.157C15.7467 150.075 16.5375 148.999 17.29 147.896C17.3188 147.854 17.2537 147.81 17.2192 147.844C16.5941 148.481 16.0149 149.169 15.4592 149.876C15.3048 149.435 15.1471 148.996 14.9923 148.556C14.8133 148.047 14.6207 147.541 14.4913 147.016C14.4805 146.972 14.4116 146.992 14.4238 147.036C14.5678 147.557 14.6698 148.089 14.8091 148.611C14.9436 149.116 15.0966 149.615 15.2755 150.105C14.8898 150.606 14.5197 151.119 14.1599 151.638C13.9786 151.124 13.7539 150.627 13.5948 150.105C13.5816 150.062 13.5127 150.083 13.5273 150.126C13.7161 150.702 13.8176 151.303 13.9952 151.883C13.7534 152.236 13.5117 152.589 13.2808 152.946C12.8555 153.603 12.4546 154.273 12.0623 154.946C12.0009 154.981 11.9618 155.031 11.9703 155.105C11.3051 156.256 10.672 157.424 10.0473 158.603C10.0261 158.643 10.0879 158.677 10.1092 158.637C10.7343 157.473 11.4297 156.34 12.1534 155.227C12.1558 155.226 12.1591 155.227 12.161 155.226C12.2375 155.184 12.4107 155.179 12.5056 155.159C12.627 155.134 12.7483 155.107 12.8692 155.08C13.1416 155.021 13.4112 154.95 13.6817 154.883C14.2161 154.751 14.7444 154.625 15.2869 154.531C15.3312 154.524 15.3109 154.455 15.2666 154.464C14.6287 154.585 13.9895 154.657 13.3451 154.732C13.041 154.767 12.7374 154.806 12.4353 154.854C12.4225 154.856 12.4065 154.858 12.3914 154.861C12.77 154.285 13.1538 153.714 13.5429 153.149C13.9258 152.594 14.3186 152.046 14.7137 151.499C15.0791 151.448 15.4412 151.352 15.8033 151.282C16.2113 151.204 16.6187 151.125 17.0261 151.044C17.8415 150.883 18.6535 150.7 19.4731 150.565C19.5175 150.557 19.4976 150.488 19.4528 150.497Z" fill="#263238"/>
<path d="M13.122 151.057C13.0729 150.907 13.0276 150.755 12.98 150.605C12.8799 150.291 12.8034 149.974 12.7383 149.652C12.7293 149.607 12.6614 149.627 12.6708 149.672C12.7397 149.993 12.8148 150.313 12.8879 150.632C12.9601 150.947 13.0399 151.279 13.1621 151.578C13.1923 151.652 13.3061 151.622 13.2839 151.541C13.2391 151.378 13.1744 151.218 13.122 151.057Z" fill="#263238"/>
<path d="M20.5291 149.181C20.049 149.253 19.5641 149.287 19.0807 149.329C18.5944 149.371 18.1157 149.439 17.6332 149.511C17.6067 149.515 17.6063 149.555 17.6341 149.553C18.1194 149.52 18.6005 149.482 19.083 149.419C19.5651 149.356 20.0461 149.284 20.531 149.251C20.5768 149.248 20.573 149.174 20.5291 149.181Z" fill="#263238"/>
<path d="M29.7159 157.503C29.529 153.317 29.2636 149.138 28.8425 144.968C28.6329 142.892 28.3983 140.817 28.106 138.751C27.8199 136.726 27.4701 134.701 26.9069 132.732C26.4758 131.226 25.9102 129.713 24.9032 128.489C23.9099 127.281 22.4454 126.526 20.8558 126.722C19.0235 126.949 17.5486 128.103 16.2725 129.357C14.8411 130.764 13.5305 132.3 12.2043 133.805C11.8691 134.186 11.5363 134.569 11.2063 134.954C11.1765 134.989 11.2275 135.037 11.2573 135.003C12.5537 133.514 13.9006 132.067 15.3099 130.683C16.612 129.405 17.9537 128.007 19.7576 127.479C20.5933 127.234 21.4993 127.166 22.342 127.418C23.0228 127.621 23.6176 128.027 24.1072 128.536C25.1227 129.592 25.6931 131.023 26.0981 132.407C27.2241 136.255 27.6273 140.29 28.0451 144.263C28.47 148.3 28.7566 152.348 28.9596 156.402C29.1636 160.478 29.3227 164.559 29.7155 168.622C29.7641 169.123 29.8292 169.623 29.8925 170.123C29.9355 170.459 30.4571 170.459 30.4298 170.11C30.0974 165.912 29.9038 161.71 29.7159 157.503Z" fill="#263238"/>
<path d="M16.0448 129.81C16.0448 129.81 18.4351 125.386 15.6104 123.967C12.7858 122.548 3.33217 133.1 0.570312 148.531C0.570312 148.531 15.8389 141.776 21.0237 135.044C26.2089 128.312 20.3306 126.831 16.0448 129.81Z" fill="#1474DD"/>
<path d="M18.2908 133.409C16.5747 133.412 14.8633 133.279 13.1467 133.291C13.4682 132.922 13.7887 132.553 14.1136 132.186C14.5625 131.68 15.0748 131.188 15.4548 130.628C15.4789 130.592 15.4275 130.542 15.393 130.569C14.9166 130.942 14.5092 131.431 14.0942 131.871C13.6641 132.327 13.2369 132.786 12.811 133.247C12.1552 133.956 11.5127 134.678 10.8711 135.4C10.8697 135.33 10.8683 135.26 10.8687 135.192C10.8706 134.892 10.8683 134.591 10.8701 134.291C10.8739 133.709 10.8829 133.127 10.8886 132.545C10.8999 131.365 10.8971 130.179 10.9787 129.002C10.982 128.956 10.9112 128.958 10.9079 129.004C10.8258 130.187 10.7035 131.366 10.6454 132.551C10.6166 133.133 10.6029 133.715 10.5959 134.298C10.5921 134.598 10.5874 134.899 10.5897 135.2C10.5911 135.363 10.5845 135.536 10.5973 135.705C10.4972 135.818 10.3933 135.928 10.2942 136.041C8.92457 137.607 7.62248 139.225 6.35486 140.872C6.35297 140.782 6.3407 140.688 6.3322 140.599C6.31473 140.417 6.29301 140.236 6.27224 140.054C6.22786 139.66 6.17404 139.268 6.11503 138.877C6.05979 138.508 6.00172 138.141 5.93987 137.774C5.87047 137.362 5.76944 136.943 5.73828 136.526C5.7345 136.476 5.65802 136.487 5.66888 136.538C5.75669 136.947 5.77322 137.379 5.8124 137.794C5.84781 138.172 5.88322 138.549 5.91721 138.927C5.95121 139.305 5.9852 139.683 6.02438 140.061C6.04279 140.242 6.05932 140.424 6.07868 140.605C6.08859 140.696 6.09945 140.787 6.11172 140.877C6.12825 140.997 6.14666 141.012 6.18537 141.093C5.96773 141.377 5.74867 141.66 5.53244 141.946C4.66659 143.092 3.81678 144.25 2.96651 145.408C2.94007 145.444 2.98964 145.493 3.0175 145.456C3.82245 144.406 4.65101 143.376 5.49042 142.354C6.11881 142.381 6.75946 142.335 7.38737 142.324C8.04975 142.314 8.71165 142.31 9.37402 142.308C9.41935 142.308 9.41793 142.237 9.37214 142.237C8.70976 142.248 8.04786 142.259 7.38548 142.261C6.78212 142.263 6.16602 142.234 5.56218 142.266C6.30057 141.369 7.04651 140.478 7.79433 139.588C8.06721 139.264 8.34151 138.94 8.61439 138.616C8.86225 138.667 9.12947 138.642 9.3811 138.641C9.68184 138.641 9.98305 138.641 10.2838 138.64C10.848 138.638 11.4121 138.625 11.9758 138.616C13.1415 138.598 14.3071 138.56 15.4728 138.557C15.5181 138.557 15.5167 138.487 15.4709 138.486C14.3038 138.472 13.1372 138.421 11.9702 138.392C11.4055 138.378 10.8409 138.359 10.2762 138.352C9.97502 138.348 9.67429 138.345 9.37308 138.341C9.2017 138.339 9.02513 138.327 8.85139 138.334C9.49205 137.573 10.1318 136.812 10.7748 136.054C10.7904 136.045 10.8022 136.031 10.8102 136.012C11.4362 135.274 12.0618 134.536 12.6944 133.804C12.7808 133.704 12.8691 133.605 12.9559 133.505C14.7353 133.561 16.5114 133.444 18.2899 133.478C18.338 133.48 18.3366 133.408 18.2908 133.409Z" fill="#263238"/>
<path d="M17.4101 136.442C17.2718 136.444 17.1331 136.445 16.9948 136.446C16.9537 136.447 16.9556 136.509 16.9962 136.51C17.1349 136.511 17.2732 136.512 17.412 136.513C17.4573 136.513 17.4554 136.442 17.4101 136.442Z" fill="#263238"/>
<path d="M16.4894 136.448C15.9398 136.44 15.3898 136.429 14.8403 136.413C14.5655 136.405 14.2907 136.396 14.016 136.387C13.7705 136.378 13.4895 136.34 13.2488 136.396C13.2219 136.402 13.2266 136.44 13.2502 136.447C13.4877 136.518 13.7719 136.496 14.0188 136.501C14.2936 136.506 14.5683 136.51 14.8431 136.513C15.3926 136.518 15.9422 136.52 16.4917 136.518C16.5366 136.518 16.5347 136.448 16.4894 136.448Z" fill="#263238"/>
<path d="M11.689 141.6C10.5715 141.443 9.44313 141.285 8.31242 141.295C8.2959 141.295 8.29779 141.318 8.3129 141.32C9.43464 141.426 10.5583 141.487 11.672 141.668C11.7168 141.676 11.7338 141.606 11.689 141.6Z" fill="#263238"/>
<path d="M7.09902 136.687C7.08769 136.589 7.07684 136.491 7.06409 136.393C7.0353 136.172 7.00038 135.952 6.96592 135.732C6.89985 135.313 6.82669 134.895 6.74693 134.478C6.73938 134.439 6.67283 134.45 6.67802 134.489C6.73088 134.92 6.77714 135.352 6.81725 135.785C6.83708 135.997 6.85265 136.21 6.872 136.422C6.88946 136.614 6.872 136.852 6.9579 137.027C6.98999 137.094 7.08911 137.067 7.1061 137.004C7.13441 136.899 7.11176 136.794 7.09902 136.687Z" fill="#263238"/>
<path d="M30.5331 125.324C29.9864 124.307 29.2914 122.963 27.927 123.048C26.801 123.119 26.2935 124.268 26.0527 125.218C25.3087 128.157 25.2563 131.256 25.1118 134.267C24.8054 140.631 24.5302 147.003 24.49 153.375C24.4787 155.141 24.4853 156.908 24.5014 158.674C24.5179 160.475 24.5132 165.491 24.6274 167.289C24.6383 167.459 24.8913 167.454 24.8923 167.283C24.9022 165.742 24.8479 160.996 24.8413 159.455C24.8352 157.952 24.847 156.448 24.871 154.944C24.9201 151.899 25.0018 148.854 25.1146 145.81C25.2265 142.784 25.3601 139.76 25.4881 136.735C25.5523 135.223 25.616 133.712 25.684 132.2C25.7501 130.736 25.8134 129.27 25.981 127.813C26.0749 126.997 26.1953 126.181 26.3657 125.377C26.4871 124.804 26.6618 124.185 27.0701 123.745C27.6088 123.164 28.4223 123.206 29.061 123.6C29.7225 124.009 30.1242 124.688 30.4727 125.361C30.4939 125.401 30.5548 125.364 30.5331 125.324Z" fill="#263238"/>
<path d="M30.1622 124.838C30.1622 124.838 29.0409 120.878 31.52 122.858C35.6472 126.155 35.794 133.326 35.794 133.326C35.794 133.326 28.4569 129.064 27.5448 126.253C26.1856 122.066 30.1622 124.838 30.1622 124.838Z" fill="#1474DD"/>
<path d="M34.251 130.386C34.1835 130.276 34.1118 130.169 34.0428 130.061C34.0603 129.951 34.0428 129.829 34.0424 129.723C34.0414 129.552 34.04 129.382 34.0438 129.212C34.0518 128.877 34.0641 128.543 34.0806 128.208C34.083 128.163 34.0122 128.165 34.0098 128.21C33.9928 128.538 33.9791 128.866 33.9701 129.195C33.9659 129.359 33.9579 129.523 33.9531 129.687C33.9513 129.752 33.9428 129.825 33.939 129.899C33.651 129.451 33.3555 129.009 33.0495 128.574C32.9608 128.448 32.8678 128.324 32.7776 128.2C32.7105 127.776 32.7502 127.332 32.7554 126.906C32.7611 126.446 32.7677 125.986 32.7837 125.526C32.7851 125.48 32.7143 125.482 32.7129 125.528C32.6997 126.006 32.6756 126.485 32.6515 126.963C32.6345 127.302 32.6029 127.647 32.6232 127.987C31.9141 127.024 31.1634 126.095 30.4019 125.171C30.3764 125.14 30.3226 125.184 30.3476 125.216C30.8188 125.812 31.2706 126.424 31.713 127.043C30.8495 126.841 29.9713 126.725 29.0942 126.599C29.0498 126.592 29.0318 126.661 29.0772 126.667C30.0058 126.808 30.9175 127.041 31.8343 127.243C31.8419 127.245 31.8456 127.24 31.8522 127.24C32.204 127.735 32.551 128.233 32.8966 128.731C33.0372 128.934 33.1737 129.14 33.3125 129.345C33.2993 129.343 33.2861 129.341 33.2733 129.34C33.1784 129.326 33.083 129.312 32.9881 129.301C32.7851 129.277 32.5812 129.26 32.3777 129.244C31.9547 129.211 31.5307 129.189 31.1072 129.166C31.0619 129.163 31.0633 129.235 31.1091 129.237C31.5265 129.246 31.941 129.278 32.356 129.322C32.575 129.346 32.7932 129.376 33.0122 129.402C33.1076 129.413 33.2034 129.424 33.2988 129.436C33.3271 129.44 33.355 129.444 33.3828 129.448C33.6175 129.795 33.8535 130.141 34.0882 130.488C34.5022 131.1 34.8723 131.757 35.3147 132.348C35.3412 132.383 35.3898 132.352 35.3718 132.313C35.0626 131.645 34.6358 131.012 34.251 130.386Z" fill="#263238"/>
<path d="M32.4219 125.912C32.4215 125.758 32.4252 125.604 32.4248 125.449C32.4243 125.128 32.4201 124.799 32.4639 124.48C32.471 124.429 32.3946 124.421 32.3941 124.472C32.3931 124.792 32.3592 125.113 32.3436 125.433C32.336 125.593 32.3356 125.754 32.3351 125.914C32.3351 125.988 32.3351 126.062 32.3356 126.136C32.336 126.211 32.3257 126.295 32.3526 126.366C32.3639 126.396 32.404 126.395 32.4139 126.365C32.4361 126.298 32.4243 126.222 32.4234 126.152C32.4229 126.072 32.4224 125.992 32.4219 125.912Z" fill="#263238"/>
<path d="M31.516 127.553C31.2432 127.506 30.9638 127.492 30.6882 127.469C30.3852 127.443 30.0836 127.416 29.7825 127.377C29.732 127.371 29.7235 127.444 29.7749 127.447C30.354 127.484 30.9303 127.587 31.5099 127.608C31.5415 127.61 31.5476 127.558 31.516 127.553Z" fill="#263238"/>
<path d="M33.8236 127.577C33.8448 127.607 33.8307 127.694 33.8307 127.729V127.857C33.8307 127.95 33.8297 128.042 33.8288 128.134C33.8283 128.227 33.8274 128.319 33.8264 128.411C33.8259 128.485 33.8066 128.587 33.8396 128.654C33.8448 128.664 33.8623 128.663 33.867 128.653C33.8849 128.617 33.8812 128.578 33.8812 128.538C33.8807 128.496 33.8802 128.453 33.8802 128.41C33.8793 128.318 33.8788 128.226 33.8779 128.133C33.8769 128.041 33.876 127.949 33.876 127.857V127.729C33.876 127.69 33.8609 127.609 33.884 127.576C33.9298 127.512 33.7764 127.51 33.8236 127.577Z" fill="#263238"/>
<path d="M32.6863 148.542C31.143 147.383 29.7568 145.718 27.6814 145.637C25.9686 145.57 24.768 146.86 24.0816 148.295C23.7195 149.052 23.4716 149.856 23.2417 150.661C22.932 151.745 22.6407 152.835 22.3673 153.928C21.8301 156.079 21.3674 158.252 20.9935 160.437C20.7848 161.656 20.5908 162.879 20.4364 164.106C20.2811 165.343 20.0785 166.614 20.0762 167.861C20.0757 168.079 20.4151 168.121 20.4591 167.904C20.6682 166.878 20.7555 165.819 20.9066 164.782C21.0586 163.739 21.2163 162.697 21.3929 161.658C21.746 159.579 22.1525 157.508 22.6218 155.453C23.0646 153.512 23.4995 151.541 24.126 149.65C24.5745 148.295 25.2954 146.713 26.7585 146.226C28.9854 145.485 31.0075 147.369 32.6372 148.593C32.6736 148.62 32.7227 148.569 32.6863 148.542Z" fill="#263238"/>
<path d="M31.0859 147.434C31.0859 147.434 29.6639 143.372 31.7214 142.576C34.8043 141.382 42.8741 150.471 41.2944 164.397C41.2944 164.397 35.0592 160.962 30.4557 157.098C25.8516 153.234 24.6732 148.188 26.7014 146.883C28.7287 145.578 31.0859 147.434 31.0859 147.434Z" fill="#1474DD"/>
<path d="M40.3589 161.412C40.1781 160.922 39.8618 160.464 39.6092 160.008C39.3457 159.532 39.079 159.056 38.8038 158.586C38.2679 157.67 37.7354 156.751 37.1868 155.842C37.098 155.695 37.006 155.549 36.9163 155.402C36.9285 155.348 36.938 155.293 36.9502 155.239C36.9809 155.105 37.0111 154.97 37.0418 154.836C37.1103 154.534 37.1632 154.229 37.2198 153.924C37.3312 153.328 37.4351 152.724 37.5956 152.14C37.6074 152.096 37.5357 152.083 37.5262 152.127C37.3988 152.723 37.2113 153.309 37.0348 153.892C36.9479 154.179 36.8558 154.465 36.7798 154.755C36.7538 154.855 36.7279 154.954 36.7019 155.054C36.0386 153.967 35.3649 152.886 34.6378 151.84C34.6987 151.704 34.6935 151.55 34.7101 151.394C34.7318 151.19 34.7563 150.987 34.7804 150.783C34.8347 150.325 34.8871 149.867 34.9546 149.41C35.0868 148.513 35.2204 147.622 35.4433 146.742C35.4546 146.699 35.3847 146.686 35.3739 146.73C35.152 147.607 34.9102 148.484 34.7436 149.374C34.6619 149.809 34.5845 150.247 34.5264 150.687C34.4971 150.907 34.474 151.128 34.4513 151.349C34.4447 151.414 34.4344 151.481 34.4259 151.549C34.2021 151.233 33.9788 150.917 33.7446 150.609C33.0322 149.672 32.2947 148.757 31.5497 147.847C31.5209 147.812 31.4629 147.852 31.4917 147.887C32.7994 149.487 33.9046 151.258 34.9981 153.008C35.202 153.335 35.4017 153.665 35.6042 153.993C35.5363 153.984 35.4688 153.976 35.4041 153.968C35.1435 153.935 34.8796 153.918 34.618 153.894C34.0935 153.845 33.5685 153.799 33.0435 153.757C31.9931 153.674 30.9402 153.609 29.8922 153.497C29.8473 153.492 29.8346 153.561 29.8799 153.566C30.9417 153.688 31.9983 153.858 33.0563 154.009C33.5765 154.083 34.0968 154.152 34.618 154.219C34.9778 154.265 35.4286 154.372 35.82 154.342C36.2326 155.012 36.6467 155.681 37.0584 156.352C36.9668 156.34 36.8714 156.343 36.7798 156.342C36.6047 156.339 36.4295 156.341 36.2548 156.341C35.9295 156.341 35.6042 156.34 35.279 156.34C34.6024 156.341 33.9264 156.354 33.2498 156.353C33.2045 156.353 33.2116 156.423 33.2564 156.424C33.9419 156.432 34.6256 156.467 35.3101 156.502C35.6349 156.519 35.9593 156.539 36.2836 156.561C36.4456 156.572 36.608 156.586 36.7699 156.596C36.912 156.605 37.064 156.632 37.1981 156.579C37.5479 157.15 37.902 157.719 38.2514 158.29C38.5738 158.817 38.9001 159.342 39.2334 159.862C39.5686 160.384 39.8792 160.985 40.2909 161.449C40.3183 161.479 40.3754 161.457 40.3589 161.412Z" fill="#263238"/>
<path d="M37.3885 150.157C37.339 150.602 37.22 151.047 37.1101 151.481C36.9954 151.932 36.8642 152.378 36.7178 152.821C36.698 152.881 36.782 152.909 36.8014 152.847C36.9397 152.409 37.0633 151.966 37.1714 151.519C37.2795 151.071 37.3493 150.615 37.4584 150.169C37.4688 150.125 37.3937 150.111 37.3885 150.157Z" fill="#263238"/>
<path d="M32.8082 152.877C32.711 152.778 32.6014 152.769 32.4683 152.75C32.2724 152.722 32.076 152.696 31.8796 152.669C31.5151 152.62 31.1492 152.579 30.7833 152.537C30.0237 152.447 29.2626 152.374 28.5035 152.278C28.4586 152.272 28.4459 152.342 28.4912 152.348C29.2079 152.435 29.9208 152.544 30.636 152.637C30.9868 152.683 31.3371 152.733 31.6884 152.774C31.8574 152.794 32.0264 152.811 32.1954 152.83C32.3824 152.851 32.6028 152.846 32.7737 152.929C32.8077 152.946 32.8323 152.901 32.8082 152.877Z" fill="#263238"/>
<path d="M37.3771 159.001C37.0189 158.97 36.6573 158.959 36.2982 158.948C36.1169 158.942 35.9352 158.937 35.754 158.931C35.6671 158.929 35.5798 158.926 35.493 158.923C35.383 158.92 35.2598 158.931 35.1532 158.904C35.1031 158.891 35.0979 158.982 35.1503 158.973C35.2518 158.957 35.3665 158.977 35.4684 158.983C35.5628 158.989 35.6568 158.995 35.7511 159C35.9324 159.011 36.1136 159.022 36.2949 159.033C36.6535 159.055 37.0151 159.076 37.3742 159.078C37.4172 159.078 37.4205 159.005 37.3771 159.001Z" fill="#263238"/>
<path d="M39.5753 157.442C39.6163 157.238 39.655 157.035 39.6923 156.83C39.766 156.429 39.8396 156.027 39.9132 155.626C39.9217 155.581 39.8537 155.569 39.8438 155.613C39.7556 156.004 39.6673 156.395 39.5795 156.786C39.5356 156.982 39.4917 157.177 39.4512 157.373C39.4323 157.464 39.4139 157.554 39.395 157.645C39.3752 157.74 39.345 157.835 39.3629 157.932C39.369 157.965 39.4176 157.992 39.4408 157.957C39.5347 157.814 39.5418 157.608 39.5753 157.442Z" fill="#263238"/>
<path d="M33.2624 167.715L32.9938 172.185L32.1978 185.383H18.6642L17.8687 172.185L17.5996 167.715H33.2624Z" fill="#37474F"/>
<path d="M33.2624 167.715L32.9938 172.185H17.8687L17.5996 167.715H33.2624Z" fill="#263238"/>
<path d="M34.5099 164.553H16.3496V169.026H34.5099V164.553Z" fill="#37474F"/>
<path d="M110.389 92.6779H84.9336V94.8052H110.389V92.6779Z" fill="#C7C7C7"/>
<path d="M107.358 92.6793H87.9648L88.4577 88.9874L88.4818 88.8132L88.5276 88.4667L88.5503 88.2929L88.5975 87.9464L88.6041 87.8926L88.6201 87.7727L88.6674 87.4261L88.69 87.2519L89.0351 84.6723H106.288L106.613 87.1056L106.629 87.2227L106.683 87.6263L106.698 87.7434L106.719 87.8926L106.753 88.1466L106.768 88.2637L106.822 88.6687L106.838 88.7839L107.358 92.6793Z" fill="#DBDBDB"/>
<path d="M106.717 87.8926L88.6875 87.2519L89.0326 84.6723H106.286L106.717 87.8926Z" fill="#C7C7C7"/>
<path d="M130.318 41.5976H65.002V86.0111H130.318V41.5976Z" fill="#263238"/>
<path d="M130.318 79.4596H65.002V86.0111H130.318V79.4596Z" fill="#DBDBDB"/>
<path d="M98.7416 82.2948C98.7416 82.8923 98.2574 83.3766 97.6599 83.3766C97.0624 83.3766 96.5781 82.8923 96.5781 82.2948C96.5781 81.6973 97.0624 81.2131 97.6599 81.2131C98.2574 81.2131 98.7416 81.6973 98.7416 82.2948Z" fill="#37474F"/>
<path d="M127.304 44.485H68.0156V76.3786H127.304V44.485Z" fill="white"/>
<path d="M127.302 44.485H68.0137V76.3786H127.302V44.485Z" fill="white"/>
<path d="M127.302 44.485H68.0137V45.9282H127.302V44.485Z" fill="#455A64"/>
<path d="M69.074 45.2067C69.074 45.3417 68.9649 45.4507 68.8299 45.4507C68.695 45.4507 68.5859 45.3417 68.5859 45.2067C68.5859 45.0722 68.695 44.9627 68.8299 44.9627C68.9649 44.9627 69.074 45.0717 69.074 45.2067Z" fill="#C7C7C7"/>
<path d="M70.07 45.2067C70.07 45.3417 69.961 45.4507 69.826 45.4507C69.6911 45.4507 69.582 45.3417 69.582 45.2067C69.582 45.0722 69.6911 44.9627 69.826 44.9627C69.961 44.9627 70.07 45.0717 70.07 45.2067Z" fill="white"/>
<path d="M71.0681 45.2068C71.0681 45.3418 70.9591 45.4508 70.8241 45.4508C70.6896 45.4508 70.5801 45.3418 70.5801 45.2068C70.5801 45.0723 70.6891 44.9628 70.8241 44.9628C70.9586 44.9628 71.0681 45.0719 71.0681 45.2068Z" fill="#1474DD"/>
<path d="M73.8373 67.9684H36.2949V93.0815H73.8373V67.9684Z" fill="#DBDBDB"/>
<path d="M73.567 68.2748H36.5703V92.7751H73.567V68.2748Z" fill="#263238"/>
<path d="M78.73 93.081H31.4082V94.8047H78.73V93.081Z" fill="#C7C7C7"/>
<path d="M71.469 70.1359H38.6543V90.9131H71.469V70.1359Z" fill="white"/>
<path d="M71.469 70.1359H38.6543V70.9357H71.469V70.1359Z" fill="#455A64"/>
<path d="M39.406 70.5357C39.406 70.6193 39.3381 70.6872 39.255 70.6872C39.1715 70.6872 39.1035 70.6193 39.1035 70.5357C39.1035 70.4522 39.1715 70.3847 39.255 70.3847C39.3386 70.3847 39.406 70.4522 39.406 70.5357Z" fill="#C7C7C7"/>
<path d="M40.0247 70.5358C40.0247 70.6193 39.9572 70.6873 39.8737 70.6873C39.7901 70.6873 39.7227 70.6193 39.7227 70.5358C39.7227 70.4523 39.7901 70.3848 39.8737 70.3848C39.9572 70.3848 40.0247 70.4523 40.0247 70.5358Z" fill="white"/>
<path d="M40.6404 70.5358C40.6404 70.6193 40.5725 70.6873 40.4889 70.6873C40.4054 70.6873 40.3379 70.6193 40.3379 70.5358C40.3379 70.4523 40.4054 70.3848 40.4889 70.3848C40.5729 70.3848 40.6404 70.4523 40.6404 70.5358Z" fill="#1474DD"/>
<path d="M120.735 76.0043H147.373C147.777 76.0043 148.162 76.3319 148.233 76.736L151.29 94.0734C151.362 94.4776 151.092 94.8052 150.688 94.8052H124.05C123.646 94.8052 123.261 94.4776 123.189 94.0734L120.132 76.736C120.062 76.3319 120.331 76.0043 120.735 76.0043Z" fill="#263238"/>
<path d="M147.373 76.0043H120.736C120.332 76.0043 119.946 76.3319 119.875 76.736L116.818 94.0734C116.747 94.4776 117.017 94.8052 117.421 94.8052H144.059C144.463 94.8052 144.848 94.4776 144.919 94.0734L147.976 76.736C148.047 76.3319 147.777 76.0043 147.373 76.0043Z" fill="#1474DD"/>
<path opacity="0.2" d="M147.373 76.0043H120.736C120.332 76.0043 119.946 76.3319 119.875 76.736L116.818 94.0734C116.747 94.4776 117.017 94.8052 117.421 94.8052H144.059C144.463 94.8052 144.848 94.4776 144.919 94.0734L147.976 76.736C148.047 76.3319 147.777 76.0043 147.373 76.0043Z" fill="#263238"/>
<path d="M146.015 76.7974L142.983 93.9898H118.799L121.83 76.7974H146.015Z" fill="white"/>
<path opacity="0.2" d="M119.125 87.4501C119.044 87.4501 118.99 87.3845 119.004 87.3038L119.674 83.5047C119.688 83.424 119.765 83.3583 119.846 83.3583C119.927 83.3583 119.981 83.424 119.966 83.5047L119.296 87.3038C119.282 87.385 119.205 87.4501 119.125 87.4501Z" fill="#263238"/>
<path opacity="0.2" d="M145.976 85.4043C145.925 85.6964 145.646 85.9333 145.354 85.9333C145.062 85.9333 144.867 85.6964 144.918 85.4043C144.97 85.1121 145.248 84.8752 145.54 84.8752C145.833 84.8752 146.028 85.1121 145.976 85.4043Z" fill="#263238"/>
<path d="M146.017 76.7975L142.985 93.9899H118.801L121.832 76.7975H146.017Z" fill="white"/>
<path d="M145.913 77.3881H121.729L121.833 76.797H146.017L145.913 77.3881Z" fill="#455A64"/>
<path d="M122.25 77.0924C122.238 77.1595 122.174 77.2137 122.107 77.2137C122.04 77.2137 121.996 77.1595 122.008 77.0924C122.02 77.0254 122.083 76.9716 122.15 76.9716C122.217 76.9716 122.262 77.0254 122.25 77.0924Z" fill="#C7C7C7"/>
<path d="M122.744 77.0924C122.732 77.1595 122.669 77.2137 122.601 77.2137C122.534 77.2137 122.49 77.1595 122.502 77.0924C122.514 77.0254 122.577 76.9716 122.644 76.9716C122.711 76.9716 122.756 77.0254 122.744 77.0924Z" fill="white"/>
<path d="M123.238 77.0924C123.226 77.1595 123.163 77.2137 123.096 77.2137C123.029 77.2137 122.984 77.1595 122.996 77.0924C123.008 77.0254 123.072 76.9716 123.139 76.9716C123.206 76.9716 123.25 77.0254 123.238 77.0924Z" fill="#1474DD"/>
<path d="M130.617 83.9354L130.092 83.4671C131.13 82.3699 132.665 81.9147 133.912 82.3345C134.956 82.6862 135.644 83.6082 135.707 84.7408L134.929 84.9141C134.881 84.044 134.353 83.3358 133.55 83.0658C132.593 82.7438 131.415 83.0931 130.617 83.9354Z" fill="#1474DD"/>
<path d="M134.234 84.5161L134.983 86.3681L136.377 84.5109L134.234 84.5161Z" fill="#1474DD"/>
<g opacity="0.2">
<path d="M130.617 83.9354L130.092 83.4671C131.13 82.3699 132.665 81.9147 133.912 82.3345C134.956 82.6862 135.644 83.6082 135.707 84.7408L134.929 84.9141C134.881 84.044 134.353 83.3358 133.55 83.0658C132.593 82.7438 131.415 83.0931 130.617 83.9354Z" fill="black"/>
<path d="M134.234 84.5161L134.983 86.3681L136.377 84.5109L134.234 84.5161Z" fill="black"/>
</g>
<path d="M130.901 88.4544C129.856 88.1027 129.168 87.1807 129.105 86.0481L129.884 85.8748C129.932 86.7449 130.46 87.4531 131.263 87.7231C132.27 88.0621 133.523 87.6514 134.311 86.7241L134.872 87.1528C133.845 88.361 132.212 88.8959 130.901 88.4544Z" fill="#1474DD"/>
<path d="M130.576 86.2722L129.828 84.4202L128.434 86.2774L130.576 86.2722Z" fill="#1474DD"/>
<path d="M143.962 133.467L142.74 140.788L134.47 185.454H133.137L139.151 140.788L140.039 133.467H143.962Z" fill="#C7C7C7"/>
<path d="M140.039 133.467H143.961L142.74 140.788H139.15L140.039 133.467Z" fill="#A6A6A6"/>
<path d="M169.931 185.454H168.597L160.326 140.788L159.105 133.467H163.027L163.916 140.788L169.931 185.454Z" fill="#C7C7C7"/>
<path d="M163.033 133.467L163.922 140.788H160.332L159.111 133.467H163.033Z" fill="#A6A6A6"/>
<path d="M194.743 185.454H193.41L185.139 140.788L183.918 133.467H187.84L188.729 140.788L194.743 185.454Z" fill="#C7C7C7"/>
<path d="M188.731 140.788H185.141L183.92 133.467H187.842L188.731 140.788Z" fill="#A6A6A6"/>
<path d="M192.629 136.907H132.023V130.521H154.711L162.336 76.7156H190.319L192.629 136.907Z" fill="#C7C7C7"/>
<path d="M189.098 130.521H132.023V136.907H189.326L189.098 130.521Z" fill="#DBDBDB"/>
<path d="M192.629 136.907H189.325L187.172 76.7155H190.318L192.629 136.907Z" fill="#DBDBDB"/>
<path d="M130.969 194.437C132.143 194.548 164.09 186.904 165.095 185.867C165.218 185.752 164.587 182.848 163.66 178.888L163.642 178.811C163.063 176.3 153.734 156.002 153.734 156.002L133.029 161.798L142.458 180.63C142.458 180.63 138.563 183.449 135.224 186.124C135.22 186.13 135.216 186.131 135.217 186.135C133.154 187.778 131.376 189.254 130.999 189.732C130.022 190.979 129.798 194.336 130.969 194.437Z" fill="#AD6359"/>
<path d="M130.972 194.436C132.142 194.547 164.088 186.903 165.098 185.867C165.22 185.75 164.587 182.849 163.661 178.887L163.642 178.812C163.43 177.877 161.992 174.466 160.282 170.556C156.875 171.476 144.66 174.789 140.223 176.167L142.456 180.631C142.456 180.631 138.562 183.45 135.222 186.124C135.222 186.129 135.217 186.129 135.217 186.134C133.155 187.777 131.375 189.255 130.999 189.73C130.023 190.981 129.796 194.338 130.972 194.436Z" fill="white"/>
<path d="M130.867 194.59C132.074 194.693 164.042 186.961 165.075 185.896C165.469 185.494 164.756 180.449 163 175.104L142.396 180.114C142.396 180.114 131.878 188.456 130.871 189.747C129.871 191.035 129.659 194.486 130.867 194.59Z" fill="#1474DD"/>
<path d="M131.014 193.199C136.341 191.772 157.962 186.516 163.336 185.51C163.38 185.502 163.387 185.531 163.344 185.544C158.095 187.074 136.433 192.154 131.035 193.287C130.922 193.311 130.902 193.23 131.014 193.199Z" fill="#263238"/>
<path d="M132.647 188.099C133.905 187.74 135.293 188.043 136.169 188.632C137.011 189.198 137.827 190.083 138.058 191.204C138.065 191.236 138.006 191.251 137.994 191.219C137.18 189.196 134.828 187.815 132.663 188.166C132.619 188.173 132.604 188.111 132.647 188.099Z" fill="#263238"/>
<path d="M140.843 181.057C142.98 180.509 145.65 180.664 147.407 182.096C147.475 182.152 147.395 182.248 147.324 182.23C145.143 181.7 143.12 181.401 140.869 181.33C140.711 181.325 140.689 181.097 140.843 181.057Z" fill="#263238"/>
<path d="M139.342 182.103C141.48 181.555 144.15 181.711 145.907 183.142C145.975 183.198 145.895 183.294 145.824 183.277C143.643 182.746 141.619 182.447 139.369 182.377C139.211 182.371 139.189 182.143 139.342 182.103Z" fill="#263238"/>
<path d="M137.843 183.149C139.98 182.601 142.65 182.756 144.407 184.188C144.475 184.244 144.395 184.34 144.324 184.322C142.143 183.792 140.12 183.493 137.869 183.423C137.711 183.417 137.689 183.189 137.843 183.149Z" fill="#263238"/>
<path d="M136.344 184.195C138.482 183.647 141.152 183.802 142.909 185.234C142.977 185.29 142.897 185.386 142.825 185.368C140.645 184.838 138.621 184.539 136.371 184.469C136.213 184.463 136.191 184.234 136.344 184.195Z" fill="#263238"/>
<path d="M160.738 180.75C163.146 180.175 164.044 183.917 161.632 184.493C159.224 185.068 158.326 181.326 160.738 180.75Z" fill="#263238"/>
<path d="M138.075 178.997C139.594 180.21 141.585 180.724 143.367 181.411C143.552 181.482 143.703 181.309 143.711 181.145C143.747 181.138 143.777 181.112 143.763 181.067C143.196 179.248 141.938 177.305 140.488 176.054C139.592 175.281 138.012 174.732 137.144 175.895C136.323 176.994 137.189 178.288 138.075 178.997ZM137.546 177.244C137.195 174.859 139.734 176.142 140.371 176.738C140.781 177.121 141.152 177.561 141.505 177.996C142.245 178.906 142.84 179.905 143.482 180.882C142.627 180.49 141.746 180.176 140.878 179.817C139.843 179.388 137.74 178.559 137.546 177.244Z" fill="#263238"/>
<path d="M151.049 177.857C150.542 176.497 148.871 176.581 147.795 177.071C146.051 177.865 144.299 179.376 143.244 180.964C143.218 181.003 143.24 181.037 143.272 181.053C143.234 181.214 143.33 181.422 143.528 181.406C145.431 181.246 147.486 181.312 149.285 180.574C150.334 180.142 151.528 179.143 151.049 177.857ZM146.364 180.574C145.429 180.675 144.496 180.73 143.565 180.865C144.455 180.108 145.308 179.316 146.273 178.65C146.734 178.332 147.213 178.014 147.714 177.761C148.493 177.368 151.291 176.848 150.284 179.039C149.729 180.247 147.478 180.453 146.364 180.574Z" fill="#263238"/>
<path d="M140.113 178.908L162.295 172.255C162.295 172.255 144.011 134.15 144.588 132.212C144.973 130.918 172.387 130.828 180.422 123.613C188.737 116.146 182.263 101.478 182.263 101.478L159.214 101.359C159.214 101.359 159.61 106.17 158.729 106.919C158.149 107.417 126.636 110.19 120.601 121.777C115.124 132.294 140.113 178.908 140.113 178.908Z" fill="#263238"/>
<path d="M144.587 132.211C144.487 132.537 144.932 133.907 145.744 135.955L129.178 156.308C123.27 142.841 117.716 127.31 120.6 121.778C126.637 110.192 158.146 107.418 158.732 106.919C159.607 106.172 159.213 101.358 159.213 101.358L173.842 101.434L149.528 131.299C146.6 131.622 144.687 131.874 144.587 132.211Z" fill="#263238"/>
<path d="M139.561 174.215C140.134 173.925 140.766 173.748 141.369 173.543C142.009 173.325 142.649 173.105 143.292 172.899C144.558 172.491 145.829 172.102 147.108 171.74C149.684 171.012 152.264 170.298 154.86 169.638C156.212 169.295 159.11 168.544 159.29 168.572C159.376 168.585 159.396 168.73 159.318 168.757C156.811 169.655 154.265 170.423 151.719 171.2C149.178 171.974 146.631 172.74 144.054 173.391C143.341 173.571 142.622 173.731 141.907 173.902C141.157 174.082 140.4 174.322 139.626 174.391C139.553 174.398 139.48 174.256 139.561 174.215Z" fill="#455A64"/>
<path d="M181.024 105.869C180.953 105.1 180.867 104.332 180.779 103.564C180.769 103.475 180.63 103.476 180.639 103.567C180.947 106.683 181.262 109.874 180.689 112.98C180.152 115.886 178.729 118.428 176.572 120.44C171.999 124.704 165.605 125.96 159.648 126.973C156.235 127.554 152.802 128 149.358 128.338C147.671 128.504 145.98 128.639 144.289 128.744C142.612 128.849 140.932 128.865 139.255 128.958C138.726 128.987 138.253 129.23 138.336 129.835C138.386 130.202 138.592 130.558 138.739 130.893C138.917 131.301 139.098 131.708 139.278 132.116C139.951 133.638 140.627 135.158 141.308 136.677C142.711 139.807 144.134 142.928 145.577 146.04C148.442 152.218 151.415 158.347 154.492 164.422C154.874 165.176 155.257 165.93 155.64 166.683C155.665 166.732 155.736 166.687 155.713 166.638C152.773 160.485 149.864 154.316 147 148.127C145.578 145.055 144.153 141.985 142.747 138.906C142.044 137.367 141.345 135.826 140.65 134.283C140.303 133.512 139.957 132.74 139.611 131.967C139.438 131.581 139.266 131.195 139.094 130.808C138.951 130.487 138.429 129.718 138.789 129.418C139.03 129.217 139.529 129.286 139.817 129.278C140.263 129.265 140.708 129.249 141.154 129.233C142.001 129.205 142.848 129.171 143.694 129.129C145.409 129.043 147.122 128.925 148.833 128.777C152.184 128.487 155.523 128.062 158.843 127.528C164.763 126.575 171.202 125.5 175.94 121.526C178.03 119.773 179.672 117.517 180.485 114.899C181.388 111.987 181.301 108.872 181.024 105.869Z" fill="#455A64"/>
<path d="M82.2263 165.231C83.0601 166.064 112.541 180.55 113.977 180.392C114.145 180.382 115.511 177.743 117.322 174.102L117.358 174.031C118.513 171.728 129.001 152.359 129.001 152.359L110.659 143.072L99.8805 161.922C99.8805 161.922 95.0834 161.609 90.8051 161.54C90.799 161.542 90.7947 161.54 90.7924 161.544C88.1561 161.494 85.8456 161.497 85.2502 161.625C83.7026 161.964 81.3888 164.405 82.2263 165.231Z" fill="#AD6359"/>
<path d="M82.2267 165.229C83.0609 166.063 112.542 180.55 113.98 180.391C114.147 180.384 115.513 177.742 117.324 174.105L117.359 174.033C117.44 173.873 117.522 173.709 117.609 173.547C117.666 173.429 117.727 173.312 117.792 173.198C117.88 173.026 117.974 172.852 118.067 172.678C118.866 171.163 120.177 168.713 121.622 166.03L102.92 156.604L99.8804 161.923C99.8804 161.923 95.0842 161.611 90.8054 161.54C90.7988 161.542 90.795 161.54 90.7927 161.544C88.1569 161.496 85.8449 161.497 85.2529 161.625C83.7053 161.965 81.3877 164.404 82.2267 165.229Z" fill="white"/>
<path d="M82.0456 165.281C82.9096 166.131 112.464 180.563 113.939 180.401C114.499 180.343 117.168 176.002 119.223 170.766L100.158 161.484C100.158 161.484 86.737 161.203 85.1384 161.554C83.5455 161.908 81.1821 164.431 82.0456 165.281Z" fill="#1474DD"/>
<path d="M83.0461 164.306C88.0594 166.603 108.064 176.344 112.846 178.996C112.885 179.017 112.871 179.044 112.831 179.027C107.812 176.858 87.8862 166.957 83.0059 164.387C82.9035 164.333 82.9403 164.257 83.0461 164.306Z" fill="#263238"/>
<path d="M87.5604 161.419C88.7586 161.945 89.6344 163.064 89.9332 164.076C90.2203 165.049 90.2854 166.252 89.7486 167.262C89.7331 167.291 89.6783 167.265 89.6887 167.233C90.3525 165.156 89.4205 162.592 87.5292 161.481C87.4919 161.458 87.5198 161.401 87.5604 161.419Z" fill="#263238"/>
<path d="M98.3622 161.221C100.359 162.162 102.316 163.985 102.756 166.208C102.773 166.295 102.65 166.317 102.607 166.258C101.265 164.459 99.8975 162.938 98.2088 161.449C98.0898 161.344 98.2192 161.154 98.3622 161.221Z" fill="#263238"/>
<path d="M96.538 161.071C98.5346 162.012 100.491 163.834 100.932 166.058C100.949 166.144 100.826 166.167 100.782 166.108C99.441 164.309 98.0733 162.788 96.3846 161.298C96.2656 161.193 96.395 161.003 96.538 161.071Z" fill="#263238"/>
<path d="M94.7158 160.92C96.7123 161.861 98.6692 163.683 99.1097 165.907C99.1267 165.993 99.004 166.016 98.96 165.957C97.6188 164.158 96.2511 162.637 94.5623 161.148C94.4433 161.042 94.5727 160.853 94.7158 160.92Z" fill="#263238"/>
<path d="M92.8954 160.769C94.892 161.71 96.8489 163.532 97.2894 165.756C97.3064 165.842 97.1841 165.865 97.1397 165.806C95.7985 164.007 94.4308 162.486 92.742 160.997C92.623 160.891 92.7524 160.702 92.8954 160.769Z" fill="#263238"/>
<path d="M113.882 173.674C116.104 174.767 114.409 178.221 112.184 177.126C109.963 176.033 111.657 172.579 113.882 173.674Z" fill="#263238"/>
<path d="M97.5395 157.868C97.9351 159.771 99.1414 161.436 100.076 163.102C100.173 163.275 100.399 163.237 100.511 163.116C100.542 163.134 100.583 163.133 100.601 163.09C101.324 161.326 101.594 159.028 101.275 157.139C101.078 155.972 100.211 154.542 98.8005 154.884C97.4668 155.208 97.3082 156.757 97.5395 157.868ZM98.25 156.18C99.5006 154.118 100.638 156.726 100.749 157.592C100.82 158.148 100.825 158.723 100.82 159.283C100.809 160.456 100.631 161.606 100.502 162.767C100.093 161.92 99.6154 161.116 99.1754 160.286C98.6513 159.296 97.5603 157.316 98.25 156.18Z" fill="#263238"/>
<path d="M108.262 165.264C108.739 163.893 107.399 162.892 106.257 162.583C104.408 162.083 102.094 162.129 100.269 162.679C100.224 162.693 100.219 162.733 100.234 162.766C100.102 162.865 100.043 163.087 100.206 163.2C101.774 164.292 103.315 165.653 105.171 166.23C106.255 166.568 107.812 166.56 108.262 165.264ZM102.921 164.368C102.137 163.85 101.383 163.297 100.58 162.808C101.748 162.793 102.91 162.726 104.079 162.829C104.636 162.878 105.208 162.938 105.755 163.063C106.606 163.257 109.091 164.641 106.919 165.687C105.722 166.263 103.856 164.986 102.921 164.368Z" fill="#263238"/>
<path d="M99.9746 158.872L122.092 169.924C122.092 169.924 139.354 134.826 141.249 132.564C143.774 129.549 176.659 133.807 184.415 124.071C192.437 114.001 185.563 101.496 185.563 101.496L160.531 101.48C160.531 101.48 160.457 104.257 161.9 108.316C161.9 108.316 133.276 106.613 125.176 114.486C118.959 120.53 99.9746 158.872 99.9746 158.872Z" fill="#263238"/>
<path d="M166.463 110.843C165.172 109.969 163.861 109.142 162.481 108.41C161.785 108.041 160.354 107.407 159.465 107.192C158.736 107.015 158.415 106.961 159.1 107.285C159.492 107.47 160.243 107.827 160.941 108.16C160.81 108.155 160.679 108.151 160.553 108.145C160.062 108.119 159.569 108.102 159.077 108.09C158.115 108.065 157.151 108.071 156.189 108.066C154.234 108.054 152.301 108.239 150.352 108.337C150.301 108.339 150.302 108.419 150.354 108.417C152.299 108.354 154.252 108.457 156.198 108.449C157.161 108.445 158.123 108.473 159.086 108.49C159.556 108.499 160.027 108.508 160.498 108.515C160.886 108.522 161.299 108.553 161.693 108.517C161.902 108.617 162.091 108.707 162.229 108.771C163.645 109.439 165.057 110.135 166.42 110.903C166.461 110.926 166.503 110.87 166.463 110.843Z" fill="#455A64"/>
<path d="M159.939 100.544C160.194 101.726 160.412 102.914 160.708 104.086C160.844 104.623 160.977 105.171 161.161 105.694C161.316 106.136 161.557 106.642 162.058 106.757C162.636 106.889 162.819 106.396 162.788 105.915C162.753 105.377 162.634 104.835 162.546 104.304C162.444 103.691 162.341 103.08 162.251 102.466C162.206 102.158 162.159 101.852 162.118 101.544C162.107 101.467 162.069 100.88 162.034 100.711C162.028 100.725 162.019 100.739 162.001 100.735C161.994 100.734 161.987 100.733 161.98 100.732C161.965 100.729 161.947 100.718 161.946 100.701C161.941 100.654 161.942 100.645 161.978 100.614C161.993 100.6 162.015 100.602 162.031 100.611C162.14 100.676 162.143 100.829 162.175 100.942C162.26 101.242 162.346 101.541 162.423 101.843C162.566 102.407 162.705 102.973 162.828 103.543C162.951 104.111 163.07 104.681 163.191 105.25C163.28 105.676 163.389 106.125 163.26 106.555C163.119 107.025 162.733 107.251 162.315 107.273C162.334 107.313 162.357 107.349 162.374 107.389C162.421 107.507 162.454 107.631 162.493 107.75C162.534 107.873 162.57 107.995 162.601 108.12C162.616 108.18 162.624 108.241 162.629 108.302C162.634 108.371 162.618 108.436 162.625 108.504C162.635 108.609 162.49 108.669 162.441 108.563C162.412 108.502 162.369 108.455 162.337 108.396C162.303 108.334 162.28 108.263 162.26 108.197C162.224 108.078 162.194 107.96 162.168 107.839C162.143 107.72 162.11 107.6 162.092 107.479C162.082 107.407 162.081 107.335 162.078 107.262C161.841 107.23 161.605 107.141 161.411 106.983C161.07 106.707 160.88 106.297 160.747 105.89C160.587 105.396 160.467 104.887 160.346 104.382C160.048 103.133 159.802 101.867 159.727 100.583C159.718 100.448 159.909 100.405 159.939 100.544Z" fill="#455A64"/>
<path d="M172.008 103.907C172.095 104.492 172.143 105.081 172.257 105.662C172.37 106.23 172.503 106.799 172.671 107.354C172.831 107.884 173.032 108.421 173.335 108.887C173.628 109.34 174.023 109.735 174.432 110.083C175.236 110.766 176.152 111.318 177.131 111.707C177.625 111.903 178.13 112.073 178.644 112.206C178.912 112.276 179.184 112.332 179.457 112.377C179.684 112.414 179.909 112.43 180.109 112.552C180.195 112.603 180.176 112.74 180.09 112.779C179.734 112.94 179.244 112.828 178.872 112.777C178.435 112.717 178.003 112.628 177.579 112.505C176.727 112.256 175.905 111.866 175.158 111.387C174.425 110.917 173.69 110.335 173.161 109.638C172.612 108.915 172.32 108.077 172.144 107.194C171.933 106.136 171.802 104.99 171.896 103.912C171.901 103.85 171.999 103.842 172.008 103.907Z" fill="#455A64"/>
<path d="M104.463 154.848C105.079 155.031 105.66 155.336 106.239 155.601C106.854 155.882 107.47 156.162 108.079 156.453C109.279 157.026 110.47 157.615 111.649 158.23C114.022 159.47 116.388 160.722 118.728 162.024C119.947 162.703 122.569 164.147 122.681 164.291C122.735 164.36 122.649 164.478 122.574 164.445C120.135 163.376 117.756 162.187 115.373 161.004C112.993 159.822 110.615 158.631 108.295 157.335C107.653 156.976 107.021 156.599 106.383 156.232C105.715 155.849 105 155.503 104.39 155.022C104.331 154.976 104.376 154.823 104.463 154.848Z" fill="#455A64"/>
<path d="M185.547 107.317C185.544 107.21 185.38 107.213 185.381 107.32C185.428 112.756 184.588 118.834 180.405 122.732C175.817 127.007 169.2 127.517 163.244 127.467C159.826 127.438 156.413 127.351 152.995 127.46C149.56 127.569 146.092 127.738 142.682 128.173C141.306 128.349 140.152 128.845 139.181 129.848C138.236 130.824 137.557 132.029 136.86 133.184C135.14 136.033 133.474 138.914 131.863 141.825C128.659 147.612 125.698 153.527 122.971 159.553C122.632 160.301 122.297 161.051 121.965 161.803C121.943 161.852 122.016 161.894 122.04 161.844C124.808 155.795 127.802 149.849 130.979 144.004C132.569 141.081 134.212 138.187 135.91 135.325C136.708 133.98 137.48 132.603 138.37 131.316C139.156 130.178 140.14 129.109 141.502 128.696C142.323 128.447 143.199 128.404 144.049 128.326C144.922 128.246 145.796 128.174 146.67 128.11C148.374 127.985 150.081 127.892 151.788 127.83C155.234 127.705 158.675 127.747 162.122 127.809C168.106 127.917 174.643 127.711 179.605 123.902C181.75 122.254 183.298 119.996 184.216 117.462C185.153 114.878 185.487 112.105 185.55 109.37C185.566 108.685 185.562 108.001 185.547 107.317Z" fill="#455A64"/>
<path d="M149.721 131.124C148.5 131.146 147.279 131.197 146.059 131.238C145.044 131.272 144.023 131.261 143.03 131.508C142.106 131.738 141.372 131.85 140.616 132.883C139.672 134.173 134.533 144.1 132.376 148.496C131.778 149.714 131.186 150.936 130.607 152.164C130.008 153.432 129.477 154.732 128.881 156C128.859 156.047 128.928 156.086 128.951 156.039C129.48 154.978 130.068 153.946 130.614 152.894C131.16 151.84 131.691 150.779 132.221 149.717C133.292 147.574 134.361 145.431 135.439 143.291C136.507 141.171 137.804 139.103 138.887 136.99C139.798 135.214 141.04 132.791 141.908 132.431C142.929 132.008 144.592 131.59 145.686 131.513C147.032 131.419 148.379 131.336 149.723 131.221C149.784 131.215 149.783 131.123 149.721 131.124Z" fill="#455A64"/>
<path d="M171.488 76.061C164.887 84.7082 152.035 95.0126 147.825 94.1595C145.822 93.7539 142.152 93.4598 140.027 90.5974C135.391 84.3518 133.315 75.8604 131.885 71.6302C131.235 69.7101 143.371 63.8446 144.428 65.7364C146.905 70.1653 149.141 78.2889 149.731 78.3701C151.915 78.6718 161.748 73.3303 168.762 69.8329C176.621 65.9148 174.119 72.6151 171.488 76.061Z" fill="#AD6359"/>
<path d="M133.161 73.8396C132.203 72.4318 128.381 65.5937 127.743 63.4531C127.105 61.3121 125.715 55.0184 127.306 54.3631C128.896 53.7082 129.449 55.5183 129.449 55.5183C129.449 55.5183 129.284 52.7678 130.944 52.2541C132.605 51.7409 133.374 54.5849 133.374 54.5849C133.374 54.5849 133.41 51.7476 135.103 51.3543C136.796 50.9605 137.091 53.95 137.091 53.95C137.091 53.95 137.002 51.3543 138.533 51.6168C140.376 51.9326 139.997 56.7359 140.879 59.0469C141.079 59.5719 145.694 69.3937 145.694 69.3937L133.161 73.8396Z" fill="#AD6359"/>
<path d="M137.059 53.6939C136.79 57.2272 137.283 58.8197 138.915 61.9026C138.947 61.963 138.865 62.0239 138.826 61.9639C136.953 59.0907 136.046 57.1824 136.889 53.6722C136.93 53.5004 137.072 53.5259 137.059 53.6939Z" fill="#263238"/>
<path d="M133.402 54.3049C133.442 57.9987 133.962 59.7308 135.434 63.0852C135.455 63.1329 135.377 63.173 135.352 63.1268C133.632 59.957 132.771 58.0327 133.215 54.336C133.236 54.1689 133.4 54.1358 133.402 54.3049Z" fill="#263238"/>
<path d="M129.53 55.6863C129.828 59.2602 130.316 61.1836 132.163 64.2565C132.206 64.3288 132.105 64.3996 132.054 64.3311C129.866 61.3804 129.239 58.9849 129.423 55.707C129.436 55.4837 129.512 55.462 129.53 55.6863Z" fill="#263238"/>
<path d="M137.455 50.3793L143.091 65.7551C143.246 66.1795 143.031 66.5317 142.611 66.5397L135.09 66.688C134.67 66.696 134.203 66.358 134.047 65.9331L128.412 50.5573C128.256 50.1319 128.471 49.7807 128.891 49.7726L136.412 49.6244C136.832 49.6164 137.3 49.9539 137.455 50.3793Z" fill="#37474F"/>
<path d="M136.874 49.6154L129.354 49.7637C128.934 49.7722 128.719 50.123 128.875 50.5483L134.51 65.9241C134.666 66.3485 135.133 66.687 135.553 66.679L143.074 66.5308C143.493 66.5223 143.709 66.1705 143.553 65.7461L137.918 50.3703C137.762 49.945 137.294 49.6074 136.874 49.6154ZM142.903 65.2801C143.052 65.6847 142.867 66.0185 142.49 66.0256L135.762 66.1583C135.385 66.1658 134.96 65.8443 134.811 65.4397L129.564 51.1219C129.262 50.2976 129.552 50.2514 129.929 50.2438L131.277 50.2174C131.355 50.216 131.452 50.3028 131.492 50.4124L131.509 50.4596C131.603 50.7164 131.745 50.7145 131.919 50.7112L135.035 50.6498C135.21 50.6465 135.35 50.6427 135.257 50.3859L135.239 50.3387C135.199 50.2292 135.23 50.1395 135.309 50.1381L136.657 50.1116C137.033 50.1041 137.379 50.2079 137.655 50.9628L142.903 65.2801Z" fill="#263238"/>
<path d="M137.653 50.9624L142.901 65.2802C143.049 65.6848 142.864 66.0186 142.488 66.0257L135.76 66.1583C135.382 66.1659 134.958 65.8444 134.809 65.4398L129.561 51.122C129.259 50.2977 129.549 50.2514 129.927 50.2439L131.275 50.2174C131.353 50.216 131.449 50.3029 131.489 50.4124L131.507 50.4596C131.601 50.7165 131.743 50.7146 131.916 50.7113L135.033 50.6499C135.208 50.6466 135.348 50.6428 135.254 50.386L135.237 50.3388C135.196 50.2292 135.227 50.1395 135.307 50.1381L136.654 50.1117C137.031 50.1037 137.376 50.2075 137.653 50.9624Z" fill="white"/>
<path d="M137.653 50.9625L138.12 52.2373L130.029 52.3968L129.561 51.1221C129.259 50.2978 129.549 50.2515 129.927 50.244L131.275 50.2176C131.353 50.2161 131.449 50.303 131.489 50.4125L131.507 50.4597C131.601 50.7166 131.743 50.7147 131.916 50.7114L135.033 50.65C135.208 50.6467 135.348 50.6429 135.254 50.3861L135.237 50.3389C135.196 50.2294 135.227 50.1397 135.307 50.1382L136.654 50.1118C137.031 50.1038 137.376 50.2076 137.653 50.9625Z" fill="#1474DD"/>
<path d="M131.155 50.5432C131.153 50.5474 131.15 50.5521 131.147 50.5564C131.146 50.5588 131.144 50.5616 131.142 50.5639C131.095 50.5309 131.047 50.5139 130.998 50.5149C130.949 50.5158 130.914 50.5347 130.891 50.5691C130.888 50.5668 130.885 50.5644 130.881 50.5621C130.876 50.5578 130.869 50.5536 130.864 50.5493H130.863V50.5488L130.864 50.5479C130.868 50.5432 130.871 50.538 130.875 50.5333C130.883 50.5234 130.893 50.5153 130.904 50.5083C130.918 50.5002 130.932 50.4941 130.949 50.4903C130.957 50.4884 130.965 50.4875 130.973 50.4865C130.976 50.4861 130.994 50.4856 130.995 50.4856C131.001 50.4861 131.007 50.4861 131.012 50.4865C131.029 50.488 131.046 50.4913 131.063 50.4965C131.075 50.5002 131.087 50.505 131.1 50.5106C131.112 50.5163 131.125 50.5229 131.137 50.5309C131.143 50.5352 131.149 50.5389 131.155 50.5432Z" fill="white"/>
<path d="M130.948 50.6087C130.938 50.6021 130.929 50.5955 130.92 50.5889C130.935 50.5658 130.957 50.5507 130.988 50.5455C131.035 50.5379 131.082 50.5516 131.129 50.5847C131.125 50.5917 131.121 50.5983 131.116 50.6054C131.085 50.5832 131.053 50.5719 131.02 50.5724C130.986 50.5729 130.963 50.5856 130.948 50.6087Z" fill="white"/>
<path d="M131.105 50.6264C131.1 50.633 131.096 50.6401 131.091 50.6473C131.075 50.6359 131.059 50.6297 131.042 50.6302C131.024 50.6307 131.013 50.6373 131.005 50.6492C130.995 50.6425 130.986 50.6359 130.977 50.6292C130.997 50.5941 131.055 50.5903 131.105 50.6264Z" fill="white"/>
<path d="M131.071 50.6661C131.075 50.676 131.07 50.6846 131.06 50.685C131.049 50.685 131.038 50.677 131.034 50.667C131.031 50.657 131.036 50.6485 131.046 50.648C131.057 50.6476 131.068 50.6556 131.071 50.6661Z" fill="white"/>
<path d="M129.902 50.6076C129.891 50.5782 129.906 50.5535 129.936 50.553C129.966 50.5526 129.999 50.5758 130.01 50.6057C130.021 50.6351 130.005 50.6598 129.975 50.6602C129.946 50.6607 129.913 50.637 129.902 50.6076Z" fill="white"/>
<path d="M130.07 50.6044C130.059 50.575 130.074 50.5503 130.104 50.5499C130.134 50.5494 130.167 50.5726 130.178 50.6025C130.189 50.6319 130.173 50.6566 130.143 50.6571C130.114 50.6575 130.081 50.6338 130.07 50.6044Z" fill="white"/>
<path d="M130.24 50.6011C130.229 50.5716 130.245 50.547 130.274 50.5465C130.304 50.546 130.337 50.5693 130.347 50.5992C130.358 50.6286 130.343 50.6532 130.313 50.6537C130.284 50.6542 130.251 50.6305 130.24 50.6011Z" fill="white"/>
<path d="M130.408 50.5978C130.397 50.5684 130.412 50.5437 130.442 50.5432C130.472 50.5427 130.505 50.566 130.515 50.5959C130.526 50.6253 130.511 50.6499 130.481 50.6504C130.451 50.6509 130.419 50.6272 130.408 50.5978Z" fill="white"/>
<path d="M130.576 50.5944C130.565 50.565 130.58 50.5403 130.61 50.5399C130.64 50.5394 130.673 50.5626 130.683 50.5925C130.694 50.6219 130.679 50.6466 130.649 50.6471C130.619 50.6475 130.587 50.6238 130.576 50.5944Z" fill="white"/>
<path d="M136.901 50.5866L136.464 50.5951L136.391 50.394L136.827 50.3855L136.901 50.5866ZM136.479 50.5729L136.871 50.5653L136.814 50.4086L136.421 50.4162L136.479 50.5729Z" fill="white"/>
<path d="M136.721 50.4223L136.439 50.428L136.488 50.5606L136.769 50.5549L136.721 50.4223Z" fill="white"/>
<path d="M136.924 50.5398L136.885 50.5403L136.846 50.4326L136.885 50.4317L136.924 50.5398Z" fill="white"/>
<path d="M133.786 50.351L132.936 50.368C132.908 50.3685 132.876 50.3458 132.865 50.317C132.854 50.2882 132.869 50.2646 132.898 50.2637L133.748 50.2467C133.777 50.2462 133.809 50.2689 133.82 50.2977C133.83 50.3269 133.815 50.3505 133.786 50.351Z" fill="white"/>
<path d="M134.74 56.8218L134.234 56.4616C134.453 55.8007 135.227 55.6151 136.159 55.9999C136.941 56.3228 137.721 57.0041 138.197 57.7779L137.783 57.8331C137.418 57.2387 136.818 56.7156 136.218 56.4678C135.502 56.1717 134.908 56.3143 134.74 56.8218Z" fill="#1474DD"/>
<path d="M137.197 57.507L138.374 58.8247L138.52 57.6764L137.197 57.507Z" fill="#1474DD"/>
<g opacity="0.2">
<path d="M134.74 56.8218L134.234 56.4616C134.453 55.8007 135.227 55.6151 136.159 55.9999C136.941 56.3228 137.721 57.0041 138.197 57.7779L137.783 57.8331C137.418 57.2387 136.818 56.7156 136.218 56.4678C135.502 56.1717 134.908 56.3143 134.74 56.8218Z" fill="black"/>
<path d="M137.197 57.507L138.374 58.8247L138.52 57.6764L137.197 57.507Z" fill="black"/>
</g>
<path d="M136.653 59.9118C135.872 59.5888 135.091 58.9076 134.615 58.1338L135.029 58.0786C135.395 58.6729 135.994 59.196 136.594 59.4439C137.347 59.755 137.963 59.577 138.094 59.011L138.606 59.3471C138.437 60.085 137.633 60.3168 136.653 59.9118Z" fill="#1474DD"/>
<path d="M135.612 58.4044L134.435 57.0872L134.289 58.2355L135.612 58.4044Z" fill="#1474DD"/>
<path d="M145.587 69.3423C145.587 69.3423 147.068 64.6585 146.653 62.6742C146.237 60.6904 143.148 58.3917 141.558 57.4356C139.594 56.2544 139.074 58.1065 139.421 59.2962C140.009 61.3136 142.073 63.5032 142.207 63.5759C142.207 63.5759 137.913 65.767 138.393 69.9674L145.587 69.3423Z" fill="#AD6359"/>
<path d="M146.465 69.2706L132.564 77.0906C132.564 77.0906 137.444 90.1861 142.086 92.659C146.729 95.132 148.345 94.8251 149.755 94.7547C151.166 94.6844 162.613 87.9993 171.281 76.4353C179.469 65.5107 171.389 67.9892 165.177 71.3054C161.636 73.1952 150.523 77.8319 150.147 77.6411C149.77 77.4499 146.465 69.2706 146.465 69.2706Z" fill="#1474DD"/>
<path d="M153.104 93.1273C153.048 93.1651 152.991 93.1981 152.934 93.2312C152.443 92.4239 151.929 91.6355 151.362 90.8801C151.022 90.4268 150.659 89.9925 150.272 89.577C150.173 89.4637 150.064 89.3551 149.955 89.2466C149.682 88.968 149.394 88.7036 149.091 88.4581C148.242 87.75 147.255 87.2401 146.202 86.9379C145.145 86.6263 144.045 86.4705 142.94 86.4705C141.835 86.4611 140.726 86.5791 139.626 86.7396C139.13 86.8152 138.634 86.8954 138.138 86.9804C137.935 87.0135 137.732 87.0512 137.529 87.089C137.459 87.0984 137.383 87.1126 137.312 87.1268C137.241 87.0087 137.171 86.886 137.105 86.768C137.128 86.7632 137.152 86.7585 137.171 86.7538C137.369 86.716 137.567 86.6783 137.765 86.6452C138.36 86.5366 138.96 86.428 139.564 86.3336C140.674 86.1589 141.807 86.0456 142.945 86.0645C144.078 86.0692 145.22 86.2392 146.311 86.5697C147.411 86.8954 148.44 87.462 149.299 88.2079C149.644 88.5006 149.965 88.8122 150.272 89.138C150.376 89.2466 150.475 89.3599 150.574 89.4732C150.928 89.8745 151.258 90.2947 151.57 90.729C152.127 91.5033 152.628 92.3058 153.104 93.1273ZM167.103 78.879C165.932 77.8498 164.879 76.6978 163.85 75.5222C163.765 75.4278 163.684 75.3334 163.604 75.239H163.6C163.236 74.8235 162.877 74.4033 162.514 73.9879C162.226 73.6574 161.938 73.3269 161.64 73.0012C161.593 73.0248 161.546 73.0484 161.499 73.0673C161.801 73.4072 162.098 73.7471 162.391 74.0917C162.726 74.4789 163.057 74.8707 163.396 75.2626C163.472 75.357 163.557 75.4514 163.637 75.5458C163.954 75.9141 164.27 76.2776 164.591 76.6411C165.332 77.4862 166.097 78.3077 166.928 79.0725C167.348 79.4597 167.782 79.8279 168.245 80.1678C168.316 80.0923 168.382 80.0215 168.439 79.9459C167.976 79.6202 167.527 79.2567 167.103 78.879ZM170.195 76.424C169.203 75.8669 168.099 75.5317 166.989 75.3428C165.87 75.1445 164.733 75.1209 163.604 75.239H163.6C163.533 75.2437 163.463 75.2531 163.396 75.2626C162.339 75.3853 161.3 75.6497 160.29 75.9755C159.214 76.3248 158.17 76.7497 157.136 77.1746C156.098 77.5948 155.064 78.0292 154.001 78.3266C152.944 78.6335 151.844 78.794 150.763 78.6948C150.225 78.6335 149.696 78.5202 149.176 78.3313C148.648 78.185 148.152 77.9442 147.652 77.7223C146.665 77.2313 145.749 76.6081 144.876 75.9283C143.997 75.2531 143.166 74.5025 142.317 73.766C141.807 73.3269 141.297 72.8926 140.763 72.4771L140.315 72.732C140.891 73.1711 141.448 73.648 142 74.1295C143.676 75.5978 145.371 77.151 147.439 78.1613C147.963 78.388 148.482 78.6335 149.035 78.7845C149.573 78.9734 150.144 79.0961 150.72 79.1528C151.877 79.2519 153.038 79.0725 154.124 78.7468C156.31 78.0953 158.293 77.0283 160.403 76.3154C161.456 75.9613 162.533 75.6686 163.633 75.5458H163.637C163.708 75.5364 163.779 75.527 163.85 75.5222C164.879 75.4137 165.922 75.4278 166.947 75.5931C168.047 75.763 169.123 76.0699 170.1 76.5987C170.351 76.7308 170.591 76.8725 170.828 77.0283C170.865 76.9811 170.903 76.9291 170.936 76.8819C170.695 76.7167 170.45 76.5656 170.195 76.424ZM157.014 87.5328C155.88 87.5753 154.757 87.7925 153.666 88.0663C152.571 88.3543 151.504 88.7178 150.442 89.0813C150.385 89.1002 150.328 89.1191 150.272 89.138C150.168 89.1757 150.059 89.2088 149.955 89.2466C149.058 89.5487 148.161 89.8461 147.25 90.0444C146.174 90.2852 145.069 90.3843 143.997 90.2144C143.459 90.1247 142.94 89.9831 142.435 89.7612C141.915 89.5818 141.434 89.3127 140.943 89.0624C139.994 88.5148 139.116 87.8397 138.28 87.1079C138.233 87.0654 138.186 87.0229 138.138 86.9804C138.011 86.8718 137.888 86.7585 137.765 86.6452C137.232 86.1542 136.717 85.6396 136.193 85.1345C136.458 85.6255 136.732 86.1212 137.01 86.6027C137.062 86.6547 137.114 86.7066 137.171 86.7538C137.289 86.8671 137.407 86.9804 137.529 87.089C138.502 87.986 139.536 88.8217 140.707 89.4873C141.217 89.747 141.717 90.0208 142.26 90.205C142.789 90.4268 143.355 90.5826 143.927 90.6723C145.074 90.8423 146.24 90.729 147.345 90.4693C148.346 90.2333 149.313 89.9122 150.272 89.577C150.371 89.5393 150.475 89.5062 150.574 89.4732C151.631 89.0908 152.68 88.7083 153.756 88.4156C154.828 88.1229 155.923 87.8963 157.028 87.8397C158.066 87.7736 159.119 87.8349 160.139 88.0474C160.224 87.9813 160.304 87.9105 160.389 87.8349C159.289 87.5706 158.147 87.4809 157.014 87.5328Z" fill="white"/>
<path opacity="0.1" d="M152.225 93.6433C156.364 91.2936 164.638 85.2954 171.285 76.4352C175.641 70.6207 175.387 68.6034 173.261 68.4849C171.026 71.1051 158.844 85.699 152.225 93.6433Z" fill="#263238"/>
<path d="M146.938 73.147C146.062 73.8127 145.073 74.3561 144.135 74.9288C143.157 75.526 142.16 76.0911 141.166 76.6619C140.173 77.2317 136.124 79.3808 135.113 79.9167C135.067 79.9407 135.031 79.8737 135.075 79.8468C136.052 79.2472 139.928 76.8729 140.905 76.3182C141.882 75.763 142.856 75.2007 143.849 74.672C144.852 74.1375 145.857 73.5389 146.911 73.1088C146.933 73.0998 146.962 73.1291 146.938 73.147Z" fill="#263238"/>
<path d="M154.873 107.583L188.968 111.181C189.128 111.014 187.168 77.5802 177.515 69.3622C175.991 68.0648 171.925 66.1159 167.525 71.7355C162.966 77.5585 154.873 107.583 154.873 107.583Z" fill="#1474DD"/>
<path d="M188.861 108.816C188.837 108.792 188.813 108.768 188.79 108.745C188.152 108.126 187.529 107.494 186.878 106.899C186.755 106.786 186.632 106.672 186.505 106.564C186.458 106.521 186.41 106.479 186.363 106.436C185.528 105.704 184.654 105.029 183.7 104.482C183.209 104.231 182.728 103.962 182.209 103.783C181.703 103.561 181.184 103.419 180.651 103.33C179.574 103.16 178.469 103.259 177.393 103.5C176.482 103.698 175.585 103.995 174.693 104.302C174.584 104.335 174.48 104.368 174.371 104.406C174.315 104.425 174.258 104.444 174.202 104.463C173.139 104.826 172.072 105.19 170.977 105.473C169.886 105.752 168.767 105.969 167.63 106.011C166.497 106.063 165.354 105.969 164.254 105.709C163.154 105.454 162.073 105.053 161.119 104.439C160.161 103.83 159.321 103.061 158.579 102.211C157.999 101.545 157.475 100.842 156.988 100.11C157.007 100.048 157.021 99.9871 157.04 99.9257C157.55 100.686 158.098 101.418 158.702 102.102C159.439 102.943 160.274 103.693 161.223 104.269C162.167 104.855 163.225 105.223 164.311 105.459C165.392 105.7 166.511 105.77 167.616 105.704C168.72 105.643 169.816 105.421 170.887 105.128C171.964 104.836 173.012 104.453 174.069 104.071C174.168 104.038 174.272 104.005 174.371 103.967C175.33 103.632 176.298 103.311 177.299 103.075C178.403 102.815 179.569 102.702 180.717 102.872C181.288 102.961 181.854 103.117 182.383 103.339C182.926 103.523 183.427 103.797 183.936 104.057C185.107 104.722 186.141 105.558 187.119 106.455C187.237 106.564 187.359 106.677 187.477 106.79C187.931 107.215 188.37 107.654 188.809 108.084C188.828 108.344 188.846 108.589 188.861 108.816ZM183.299 79.0772C182.001 79.573 180.721 80.1017 179.428 80.5738C178.38 80.9563 177.322 81.2962 176.236 81.5086C175.958 81.5653 175.679 81.6125 175.401 81.6455C175.344 81.655 175.292 81.6644 175.24 81.6644C174.48 81.7588 173.711 81.773 172.946 81.7022C171.85 81.6219 170.783 81.3198 169.806 80.7957C168.829 80.2859 167.932 79.6155 167.101 78.879C166.322 78.1897 165.59 77.4485 164.887 76.6836L164.802 76.8819C165.477 77.642 166.176 78.3832 166.926 79.0725C167.757 79.8373 168.654 80.5361 169.655 81.0837C170.646 81.6408 171.77 81.9902 172.913 82.0893C173.772 82.1696 174.641 82.1507 175.495 82.0374C175.552 82.0327 175.608 82.0279 175.66 82.0185C175.878 81.9902 176.095 81.9524 176.312 81.9099C177.431 81.6975 178.517 81.3576 179.569 80.961C180.868 80.4747 182.142 79.9318 183.427 79.4313C183.389 79.3133 183.346 79.1953 183.299 79.0772ZM186.892 93.1509C186.637 93.1132 186.382 93.0659 186.127 93.0046C185.055 92.7685 184.04 92.3153 183.148 91.659C182.251 91.0123 181.463 90.2238 180.74 89.374C179.296 87.6744 178.115 85.7624 176.897 83.8786C176.491 83.2507 176.085 82.6322 175.66 82.0185C175.575 81.8958 175.49 81.773 175.401 81.6455C175.273 81.4614 175.141 81.2773 175.009 81.0932C174.353 80.182 173.649 79.2991 172.861 78.4965C172.072 77.694 171.185 76.9716 170.193 76.424C169.202 75.8669 168.097 75.5317 166.988 75.3428C166.516 75.2578 166.039 75.2059 165.562 75.1823C165.519 75.272 165.477 75.3664 165.434 75.4561C165.94 75.4656 166.445 75.5128 166.945 75.593C168.045 75.763 169.122 76.0699 170.099 76.5987C171.076 77.118 171.959 77.8167 172.743 78.6098C173.668 79.5446 174.485 80.5833 175.24 81.6644C175.33 81.7872 175.415 81.9099 175.495 82.0374C175.934 82.67 176.35 83.3215 176.76 83.9683C177.365 84.9126 177.955 85.8615 178.573 86.801C179.187 87.7405 179.829 88.6659 180.542 89.544C181.255 90.4127 182.043 91.2389 182.954 91.9234C183.861 92.6127 184.923 93.1226 186.037 93.3823C186.344 93.4531 186.651 93.5145 186.963 93.5617C186.944 93.4248 186.916 93.2878 186.892 93.1509ZM188.643 106.195C188.134 106.28 187.628 106.37 187.119 106.455C186.916 106.493 186.712 106.531 186.505 106.564C186.009 106.649 185.518 106.729 185.022 106.804C183.918 106.965 182.813 107.083 181.703 107.074C180.599 107.074 179.499 106.918 178.441 106.606C177.388 106.304 176.402 105.789 175.552 105.086C175.254 104.84 174.966 104.581 174.693 104.302C174.579 104.194 174.475 104.08 174.371 103.967C173.984 103.552 173.626 103.117 173.286 102.664C171.945 100.879 170.878 98.8965 169.773 96.9467C169.225 95.9694 168.654 95.0016 168.055 94.0527C167.455 93.1037 166.804 92.1831 166.062 91.3333C165.321 90.4835 164.481 89.7139 163.522 89.1049C162.673 88.5573 161.724 88.1796 160.751 87.9294C160.727 88.0049 160.699 88.0852 160.675 88.1654C161.639 88.4015 162.573 88.7508 163.418 89.2749C164.367 89.8509 165.203 90.6015 165.94 91.4419C167.417 93.1179 168.55 95.0677 169.631 97.027C170.179 98.0042 170.713 98.991 171.274 99.9635C171.832 100.936 172.412 101.899 173.073 102.815C173.385 103.249 173.715 103.67 174.069 104.071C174.168 104.184 174.268 104.298 174.371 104.406C174.678 104.732 174.999 105.043 175.344 105.336C176.203 106.082 177.237 106.649 178.332 106.974C179.423 107.305 180.566 107.475 181.699 107.48C182.836 107.498 183.97 107.385 185.079 107.206C185.683 107.111 186.283 107.007 186.878 106.899C187.081 106.861 187.279 106.823 187.477 106.79C187.879 106.715 188.28 106.644 188.681 106.568C188.667 106.446 188.658 106.323 188.643 106.195Z" fill="white"/>
<path d="M182.212 76.1464C184.022 80.3095 189.818 98.4396 189.061 102.057C187.69 108.607 166.938 111.926 162.495 113.44C160.642 114.071 155.838 100.45 157.387 99.042C158.431 98.0921 174.386 95.8312 175.109 94.4432C175.832 93.0556 175.994 83.7215 175.305 76.2295C174.65 69.094 178.374 67.3226 182.212 76.1464Z" fill="#AD6359"/>
<path d="M153.313 98.4603C148.742 98.873 147.631 99.6807 143.589 97.9802C140.936 96.8646 139.085 98.0793 140.987 100.39C144.1 104.169 150.109 104.875 152.263 104.52L153.313 98.4603Z" fill="#AD6359"/>
<path d="M166.063 99.9885C166.063 99.9885 160.446 98.3824 155.531 98.3404C152.132 98.3111 144.731 99.0722 139.501 107.765C138.261 109.827 137.955 113.645 141.204 111.013C143.512 109.143 144.411 107.26 145.951 106.418C145.951 106.418 146.139 111.32 148.253 112.482C149.198 113.001 151.81 114.359 153.994 115.125C153.994 115.125 154.289 114.694 154.585 114.095C154.585 114.095 157.691 115.751 162.494 113.439L166.063 99.9885Z" fill="#AD6359"/>
<path d="M152.282 98.8304C150.93 99.9904 148.106 102.497 146.508 105.351C144.734 108.521 142.171 115.105 144.525 116.391C146.25 117.333 147.45 114.905 147.45 114.905C147.45 114.905 146.965 117.85 148.709 118.361C150.3 118.826 151.115 116.892 151.115 116.892C151.115 116.892 151.128 118.729 152.746 118.882C154.693 119.066 154.347 115.186 156.479 113.669C156.958 113.329 152.282 98.8304 152.282 98.8304Z" fill="#AD6359"/>
<path d="M150.169 106.667C149.076 107.966 147.351 111.554 147.408 114.841C147.409 114.916 147.466 114.955 147.479 114.887C148.186 111.254 149.541 108.021 150.198 106.683C150.207 106.666 150.181 106.652 150.169 106.667Z" fill="#263238"/>
<path d="M153.32 108.551C152.492 109.769 150.88 113.546 151.052 116.876C151.056 116.95 151.116 116.985 151.126 116.917C151.708 113.09 152.775 109.94 153.351 108.566C153.358 108.547 153.33 108.535 153.32 108.551Z" fill="#263238"/>
<path d="M159.17 97.5039L165.464 113.918C165.464 113.918 187.148 110.744 189.919 102.002C191.061 98.3967 185.795 81.9148 182.385 75.4596C178.975 69.0044 174.422 66.319 175.008 77.3188C175.594 88.3185 175.313 93.6024 174.756 94.101C174.198 94.6 159.17 97.5039 159.17 97.5039Z" fill="#1474DD"/>
<path d="M186.821 106.191C186.693 106.299 186.566 106.403 186.434 106.502C186.41 106.479 186.386 106.455 186.363 106.436C185.527 105.704 184.654 105.029 183.7 104.482C183.209 104.231 182.728 103.962 182.208 103.783C181.703 103.561 181.184 103.419 180.65 103.33C179.574 103.16 178.469 103.259 177.393 103.5C176.482 103.698 175.584 103.995 174.692 104.302C174.584 104.335 174.48 104.368 174.371 104.406C174.315 104.425 174.258 104.444 174.201 104.463C173.139 104.826 172.072 105.19 170.977 105.473C169.886 105.752 168.767 105.969 167.629 106.011C166.496 106.063 165.354 105.969 164.254 105.709C163.489 105.53 162.734 105.284 162.021 104.94L161.912 104.652C162.672 105.02 163.484 105.28 164.31 105.459C165.392 105.7 166.51 105.771 167.615 105.704C168.72 105.643 169.815 105.421 170.887 105.128C171.963 104.836 173.011 104.453 174.069 104.071C174.168 104.038 174.272 104.005 174.371 103.967C175.33 103.632 176.297 103.311 177.298 103.075C178.403 102.815 179.569 102.702 180.716 102.872C181.288 102.961 181.854 103.117 182.383 103.339C182.926 103.523 183.426 103.797 183.936 104.057C184.989 104.652 185.933 105.393 186.821 106.191ZM183.96 78.8271C182.435 79.3889 180.943 80.0215 179.427 80.5739C178.379 80.9563 177.322 81.2962 176.236 81.5087C175.957 81.5653 175.679 81.6126 175.4 81.6456C175.344 81.655 175.292 81.6645 175.24 81.6645C175.226 81.6692 175.216 81.6692 175.207 81.6692C175.212 81.8061 175.216 81.9383 175.221 82.0705C175.311 82.0611 175.405 82.0516 175.495 82.0375C175.551 82.0327 175.608 82.028 175.66 82.0186C175.877 81.9902 176.094 81.9525 176.312 81.91C177.43 81.6975 178.516 81.3576 179.569 80.961C181.099 80.3851 182.591 79.743 184.106 79.1717C184.059 79.0537 184.007 78.9404 183.96 78.8271ZM188.832 93.2973C187.921 93.3068 187.01 93.2124 186.127 93.0046C185.055 92.7686 184.04 92.3153 183.148 91.6591C182.251 91.0123 181.462 90.2239 180.74 89.3741C179.295 87.6745 178.115 85.7624 176.897 83.8787C176.491 83.2508 176.085 82.6323 175.66 82.0186C175.575 81.8958 175.49 81.7731 175.4 81.6456C175.334 81.5465 175.263 81.452 175.193 81.3529C175.197 81.4426 175.202 81.5276 175.207 81.6173C175.221 81.6314 175.23 81.6503 175.24 81.6645C175.33 81.7872 175.415 81.91 175.495 82.0375C175.934 82.6701 176.349 83.3216 176.76 83.9684C177.364 84.9126 177.955 85.8616 178.573 86.8011C179.187 87.7406 179.829 88.6659 180.542 89.544C181.255 90.4127 182.043 91.2389 182.954 91.9235C183.861 92.6128 184.923 93.1227 186.037 93.3823C186.986 93.6089 187.963 93.7128 188.936 93.7034C188.898 93.5664 188.865 93.4343 188.832 93.2973ZM185.022 106.804C183.917 106.965 182.813 107.083 181.703 107.074C180.598 107.074 179.498 106.918 178.441 106.606C177.388 106.304 176.401 105.789 175.551 105.086C175.254 104.84 174.966 104.581 174.692 104.302C174.579 104.194 174.475 104.08 174.371 103.967C173.984 103.552 173.625 103.117 173.285 102.664C171.945 100.879 170.878 98.8966 169.773 96.9468C169.508 96.4747 169.235 96.0026 168.956 95.5304C168.904 95.5399 168.857 95.5493 168.805 95.5635C169.088 96.0498 169.362 96.536 169.631 97.027C170.179 98.0043 170.712 98.991 171.274 99.9636C171.831 100.936 172.412 101.899 173.073 102.815C173.384 103.249 173.715 103.67 174.069 104.071C174.168 104.184 174.267 104.298 174.371 104.406C174.678 104.732 174.999 105.044 175.344 105.336C176.203 106.082 177.237 106.649 178.332 106.974C179.423 107.305 180.565 107.475 181.698 107.48C182.836 107.498 183.969 107.385 185.079 107.206C185.244 107.177 185.414 107.154 185.579 107.126C185.829 106.956 186.075 106.776 186.311 106.597C185.881 106.668 185.452 106.738 185.022 106.804Z" fill="white"/>
<path d="M177.994 110.806C182.611 108.583 186.323 106.526 188.213 104.69C188.932 103.992 188.656 104.572 187.689 105.459C185.934 107.07 183.602 108.6 178.062 110.85C178.018 110.868 177.951 110.826 177.994 110.806Z" fill="#263238"/>
<path d="M163.865 97.9633C164.443 99.0184 164.87 100.177 165.337 101.285C165.824 102.44 166.274 103.61 166.729 104.778C167.184 105.944 168.851 110.673 169.267 111.854C169.286 111.908 169.207 111.936 169.185 111.884C168.695 110.73 166.757 106.152 166.315 105.005C165.874 103.858 165.423 102.713 165.013 101.554C164.598 100.381 164.113 99.1974 163.819 97.9878C163.813 97.9614 163.85 97.9345 163.865 97.9633Z" fill="#263238"/>
<path d="M159.323 97.9034L159.153 97.5106L159.145 97.4912L159.167 97.486C161.416 96.9577 163.674 96.4714 165.927 95.9701C168.185 95.4918 170.441 94.9989 172.683 94.4758C173.24 94.3432 173.806 94.211 174.339 94.0424C174.405 94.0212 174.47 93.9985 174.528 93.9749C174.589 93.9523 174.644 93.9201 174.62 93.9324C174.657 93.8843 174.705 93.7351 174.733 93.61C174.794 93.3451 174.832 93.0614 174.866 92.78C174.986 91.645 175.04 90.4912 175.096 89.3411C175.187 87.0372 175.232 84.7286 175.288 82.419C175.406 84.7267 175.457 87.0372 175.433 89.3501C175.423 90.5072 175.399 91.6634 175.28 92.8258C175.248 93.1171 175.214 93.4074 175.149 93.7063C175.108 93.8592 175.091 93.9995 174.965 94.1921C174.857 94.3266 174.763 94.3399 174.695 94.3762C174.62 94.4083 174.549 94.4333 174.478 94.4574C173.912 94.6439 173.353 94.7813 172.79 94.9234C170.539 95.4668 168.27 95.9035 166.004 96.3525C163.732 96.7708 161.459 97.1787 159.173 97.5228L159.187 97.4983L159.323 97.9034Z" fill="#263238"/>
<path d="M175.307 86.3386C175.093 85.8954 174.952 85.43 174.835 84.959C174.783 84.7221 174.731 84.4851 174.702 84.243C174.671 84.0014 174.645 83.7583 174.654 83.5115C174.825 83.9726 174.95 84.4356 175.065 84.9047C175.172 85.3753 175.27 85.8477 175.307 86.3386Z" fill="#263238"/>
<path d="M169.882 74.0897C171.614 74.6733 174.905 72.2499 176.31 70.1684C176.405 70.0253 176.322 68.4187 176.313 66.4623C176.313 65.2749 176.34 63.953 176.452 62.7482L168.726 63.8808C168.726 63.8808 169.233 66.475 169.025 68.574C169.006 68.7492 168.973 68.9111 168.928 69.0636C168.923 69.0863 168.914 69.1127 168.909 69.1444C168.669 70.0692 168.208 73.5246 169.882 74.0897Z" fill="#AD6359"/>
<path d="M168.725 63.8798C168.725 63.8798 169.234 66.4731 169.025 68.5764C169.005 68.7487 168.976 68.912 168.927 69.0641C168.921 69.0858 168.913 69.1132 168.911 69.1424C169.142 69.2029 169.398 69.2402 169.684 69.2567C174.088 69.5664 175.835 64.2391 176.227 62.7807L168.725 63.8798Z" fill="#263238"/>
<path d="M178.173 53.9545C178.667 56.7239 176.329 64.2711 174.222 65.763C171.168 67.9262 166.63 67.6227 164.909 64.0573C163.24 60.6009 166.461 50.8192 168.771 49.5105C172.174 47.5834 177.443 49.8641 178.173 53.9545Z" fill="#AD6359"/>
<path d="M169.88 57.8406C169.89 57.8232 169.912 57.8774 169.904 57.8977C169.722 58.3938 169.595 58.9927 169.994 59.3099C170.006 59.3198 169.997 59.3443 169.98 59.3363C169.452 59.0743 169.627 58.281 169.88 57.8406Z" fill="#263238"/>
<path d="M170.501 57.4658C171.328 57.673 170.852 59.3112 170.086 59.1191C169.333 58.9303 169.808 57.2921 170.501 57.4658Z" fill="#263238"/>
<path d="M166.899 56.9703C166.901 56.9495 166.852 56.9825 166.847 57.0038C166.716 57.5159 166.48 58.0803 165.972 58.1157C165.956 58.1167 165.95 58.1426 165.968 58.1455C166.551 58.2285 166.857 57.4762 166.899 56.9703Z" fill="#263238"/>
<path d="M166.601 56.309C165.803 56.0102 165.264 57.6286 166.003 57.9052C166.732 58.1775 167.27 56.5591 166.601 56.309Z" fill="#263238"/>
<path d="M171.423 56.3729C171.217 56.252 171.046 56.1062 170.854 55.9655C170.637 55.807 170.448 55.7027 170.352 55.4393C170.301 55.2982 170.397 55.099 170.529 55.0362C170.839 54.8899 171.152 55.0183 171.421 55.1991C171.713 55.3949 171.887 55.6201 171.99 55.9556C172.089 56.2803 171.696 56.5319 171.423 56.3729Z" fill="#263238"/>
<path d="M166.418 54.8618C166.656 54.8906 166.88 54.8774 167.118 54.8817C167.387 54.8864 167.6 54.918 167.836 54.766C167.962 54.6844 168.006 54.4677 167.938 54.3375C167.781 54.0345 167.453 53.9467 167.13 53.9278C166.779 53.9075 166.504 53.9811 166.219 54.1864C165.944 54.3861 166.104 54.8241 166.418 54.8618Z" fill="#263238"/>
<path d="M169.116 62.481C168.979 62.5933 168.838 62.7519 168.646 62.751C168.462 62.7505 168.254 62.6486 168.092 62.5693C168.076 62.5612 168.058 62.5778 168.067 62.5943C168.186 62.8081 168.463 62.9601 168.71 62.9383C168.952 62.9176 169.087 62.7222 169.164 62.5093C169.175 62.4791 169.136 62.4645 169.116 62.481Z" fill="#263238"/>
<path d="M168.899 60.8359C168.487 61.1943 168 61.3137 167.522 61.2703C167.309 61.2523 167.095 61.1976 166.892 61.1183C166.852 61.1055 166.71 61.0408 166.671 61.021C166.615 60.995 166.596 60.937 166.603 60.878L166.604 60.8742C166.61 60.8558 166.951 59.7982 166.951 59.7982C166.788 59.8285 165.965 59.9446 166.036 59.7439C166.627 58.083 167.284 56.2361 168.223 54.7079C168.251 54.656 168.333 54.6937 168.312 54.748C167.807 56.3669 167.021 57.8857 166.488 59.5036C166.746 59.4829 167.172 59.429 167.375 59.4928C167.403 59.5084 166.915 60.801 166.915 60.8133C167.547 61.0876 168.1 61.0328 168.865 60.7764C168.911 60.758 168.941 60.8043 168.899 60.8359Z" fill="#263238"/>
<path d="M167.141 60.9901C167.141 60.9901 167.349 61.5655 167.777 61.8779C167.934 61.9935 168.117 62.0752 168.331 62.0813C168.771 62.096 168.894 61.7236 168.914 61.3809C168.932 61.0992 168.877 60.8353 168.877 60.8353C168.877 60.8353 168.115 61.2157 167.141 60.9901Z" fill="#263238"/>
<path d="M167.777 61.8781C167.935 61.9937 168.117 62.0754 168.331 62.0815C168.772 62.0961 168.894 61.7237 168.914 61.3811C168.463 61.2952 167.941 61.4632 167.777 61.8781Z" fill="#FF9CBD"/>
<path d="M177.823 61.7122C175.666 61.3803 175.131 58.5977 176.089 56.6734C176.089 56.6734 170.274 56.1437 171.03 51.55C171.03 51.55 169.21 53.2916 166.634 52.7789L165.89 54.2807C165.349 53.9823 165.105 52.1968 166.814 51.2266C166.814 51.2266 167.424 48.9897 169.396 48.0106C171.369 47.0319 172.822 48.2981 172.822 48.2981C172.822 48.2981 174.396 47.4927 176.416 48.2301C178.435 48.9676 178.862 51.0581 178.862 51.0581C178.862 51.0581 181.537 52.2261 181.564 54.3204C181.59 56.4147 180.262 57.5142 180.262 57.5142C180.262 57.5142 180.787 58.4537 180.046 60.0679C179.57 61.1061 178.47 61.8119 177.823 61.7122Z" fill="#263238"/>
<path d="M171.247 51.1757C171.125 51.5369 171.027 51.9047 170.983 52.2795C170.921 52.6511 170.916 53.0273 170.945 53.3965C171.018 54.1335 171.334 54.8351 171.884 55.319C172.405 55.8477 173.143 56.0796 173.847 56.3128C174.215 56.3845 174.582 56.4832 174.956 56.5347C175.332 56.5809 175.71 56.6182 176.089 56.6725C175.709 56.6787 175.327 56.6673 174.942 56.6655C174.56 56.64 174.182 56.563 173.799 56.5134C173.06 56.3142 172.288 56.0729 171.703 55.5159C171.119 54.9753 170.77 54.1944 170.741 53.4112C170.714 52.6289 170.902 51.857 171.247 51.1757Z" fill="#263238"/>
<path d="M167.742 53.1358C168.423 53.049 169.074 52.8927 169.663 52.6014C169.962 52.4645 170.229 52.2733 170.48 52.0618C170.74 51.8536 170.935 51.5826 171.149 51.3116C171.035 51.6336 170.871 51.9537 170.625 52.2086C170.391 52.472 170.1 52.6887 169.782 52.8417C169.463 52.9937 169.125 53.1018 168.778 53.1476C168.432 53.1948 168.082 53.2043 167.742 53.1358Z" fill="#263238"/>
<path d="M175.408 60.4749C175.408 60.4749 177.498 58.2305 178.54 59.01C179.582 59.7894 177.766 63.2132 176.371 63.5205C174.976 63.8279 174.666 62.5419 174.666 62.5419L175.408 60.4749Z" fill="#AD6359"/>
<path d="M177.993 59.9787C178.014 59.9797 178.014 60.0104 177.994 60.0151C177.012 60.261 176.402 61.0539 175.933 61.8992C176.258 61.5943 176.661 61.4588 177.075 61.8524C177.097 61.8732 177.069 61.9077 177.043 61.8987C176.674 61.7637 176.39 61.7911 176.09 62.0596C175.878 62.2498 175.715 62.5052 175.549 62.7364C175.494 62.8134 175.35 62.7478 175.395 62.6567C175.399 62.6501 175.402 62.643 175.406 62.6364C175.549 61.448 176.703 59.9193 177.993 59.9787Z" fill="#263238"/>
<path d="M140.619 41.5292C141.233 47.3938 146.487 51.6527 152.351 51.0394C154.721 50.7916 156.828 49.7855 158.46 48.2832L163.802 49.0674L161.129 44.4492C161.778 42.8714 162.051 41.1156 161.862 39.3074C161.249 33.4429 155.994 29.1839 150.13 29.7972C144.265 30.4105 140.006 35.6646 140.619 41.5292Z" fill="white"/>
<path d="M143.815 32.7106C144.975 31.5789 146.39 30.705 147.933 30.1857C149.478 29.6721 151.144 29.5248 152.762 29.7396C154.378 29.9586 155.958 30.5327 157.319 31.4496C158.682 32.3636 159.836 33.5887 160.664 35.0107C162.324 37.8505 162.616 41.4801 161.321 44.528L161.309 44.3453L163.966 48.9725L164.162 49.3138L163.775 49.2543L158.438 48.4348L158.565 48.3961C157.087 49.7359 155.236 50.6504 153.282 51.0045C152.794 51.0942 152.3 51.1471 151.804 51.1584C151.309 51.2018 150.815 51.157 150.321 51.1301C149.341 51.012 148.359 50.8288 147.446 50.4445C146.529 50.0834 145.651 49.6122 144.87 49.0103C144.46 48.7336 144.114 48.3795 143.743 48.0561C143.416 47.6884 143.055 47.3489 142.775 46.9419C141.556 45.3892 140.843 43.4785 140.62 41.5292C140.273 38.3141 141.458 34.9517 143.815 32.7106ZM142.807 46.9174C143.088 47.3206 143.45 47.6567 143.778 48.0202C144.15 48.3394 144.496 48.6897 144.906 48.9616C145.684 49.5589 146.567 50.0074 147.481 50.3496C148.392 50.7146 149.366 50.8779 150.333 50.9776C150.821 50.995 151.308 51.0314 151.795 50.9799C152.282 50.9606 152.766 50.9001 153.243 50.8038C155.154 50.4233 156.943 49.497 158.356 48.1699L158.408 48.1203L158.482 48.1307L163.829 48.8795L163.638 49.1613L160.949 44.5521L160.898 44.4648L160.937 44.3694C161.531 42.9007 161.789 41.2997 161.689 39.7177C161.562 38.1408 161.142 36.5701 160.333 35.1995C159.54 33.8257 158.441 32.6294 157.138 31.7149C155.833 30.8018 154.305 30.215 152.728 29.9728C151.15 29.7348 149.511 29.8496 147.979 30.3288C146.449 30.8146 145.032 31.6526 143.861 32.7583C141.503 34.9692 140.294 38.3108 140.619 41.5287C140.856 43.4776 141.581 45.3788 142.807 46.9174Z" fill="#263238"/>
<path d="M149.641 46.508L145.08 41.8912L146.613 40.3776L149.277 43.0743L154.812 34.3969L156.628 35.555L149.641 46.508Z" fill="#1474DD"/>
<path d="M87.9789 66.6765H81.1699V55.4211H87.8348L87.6428 57.6875L84.3487 57.5915V59.7619H86.9417V62.0091L84.3487 61.817V64.3716L87.9789 64.2756V66.6765ZM93.1053 65.8217L93.0093 65.9274C92.9453 66.0042 92.846 66.0938 92.7116 66.1963C92.5835 66.2987 92.4331 66.4011 92.2602 66.5036C92.0937 66.606 91.8889 66.6925 91.6456 66.7629C91.4023 66.8397 91.1526 66.8781 90.8965 66.8781C89.1679 66.8781 88.3035 66.0234 88.3035 64.314C88.3035 63.981 88.3644 63.6769 88.486 63.4016C88.6076 63.1199 88.7645 62.883 88.9566 62.691C89.1486 62.4989 89.3791 62.3292 89.648 62.182C89.9169 62.0283 90.1858 61.9099 90.4547 61.8266C90.73 61.737 91.0181 61.6634 91.3191 61.6058C91.62 61.5481 91.8889 61.5097 92.1258 61.4905C92.3626 61.4713 92.5899 61.4617 92.8076 61.4617V61.2888C92.8076 60.8983 92.702 60.623 92.4907 60.4629C92.2858 60.3029 91.9529 60.2228 91.4919 60.2228C91.095 60.2228 90.682 60.2709 90.2531 60.3669C89.8241 60.4565 89.488 60.5654 89.2447 60.6934L88.6301 59.3873C89.0654 59.1056 89.632 58.8591 90.3299 58.6479C91.0277 58.4302 91.7384 58.3213 92.4619 58.3213C93.1021 58.3213 93.6303 58.3854 94.0465 58.5134C94.4626 58.6351 94.7988 58.8463 95.0549 59.1472C95.3173 59.4418 95.503 59.8195 95.6119 60.2805C95.7207 60.735 95.7751 61.3145 95.7751 62.0187V65.9274L96.044 66.6765H93.4126L93.1053 65.8217ZM92.3466 65.1879C92.4299 65.1879 92.5067 65.1719 92.5771 65.1399C92.654 65.1015 92.7116 65.0663 92.75 65.0342C92.7884 64.9958 92.8076 64.9766 92.8076 64.9766V62.6718C92.4171 62.6718 92.1066 62.7806 91.8761 62.9983C91.6456 63.2096 91.5303 63.5393 91.5303 63.9874C91.5303 64.7877 91.8024 65.1879 92.3466 65.1879ZM99.5291 66.8781C98.9272 66.8781 98.319 66.7789 97.7044 66.5804C97.0898 66.3755 96.696 66.1771 96.5231 65.985L96.7728 64.4388C96.9905 64.6501 97.3523 64.8326 97.858 64.9862C98.3702 65.1399 98.892 65.2167 99.4234 65.2167C99.8076 65.2167 100.07 65.1687 100.211 65.0727C100.358 64.9766 100.432 64.8422 100.432 64.6693C100.432 64.5028 100.304 64.3556 100.048 64.2275C99.7916 64.0931 99.3754 63.9394 98.7992 63.7666C97.3074 63.3184 96.5616 62.3901 96.5616 60.9815C96.5616 60.4053 96.728 59.9123 97.061 59.5026C97.3939 59.0864 97.8196 58.7855 98.3382 58.5998C98.8568 58.4142 99.4362 58.3213 100.076 58.3213C101.171 58.3213 101.978 58.523 102.497 58.9264C102.612 59.0352 102.669 59.0896 102.669 59.0896L102.247 60.4629C101.824 60.0468 101.242 59.8387 100.499 59.8387C99.8908 59.8387 99.5867 60.018 99.5867 60.3765C99.5867 60.4789 99.6091 60.5654 99.6539 60.6358C99.6987 60.6998 99.7724 60.7574 99.8748 60.8087C99.9836 60.8535 100.089 60.8919 100.192 60.9239C100.294 60.9495 100.438 60.9879 100.624 61.0391C100.81 61.084 100.97 61.1256 101.104 61.164C101.853 61.4137 102.397 61.7658 102.737 62.2204C103.076 62.675 103.246 63.2416 103.246 63.9202C103.246 65.8922 102.007 66.8781 99.5291 66.8781ZM108.003 69.9801C107.343 69.9801 106.722 69.884 106.14 69.692C105.557 69.4999 105.131 69.2406 104.862 68.9141L105.362 67.8769C105.733 68.0882 106.322 68.1938 107.129 68.1938C107.385 68.1938 107.606 68.165 107.792 68.1074C107.977 68.0498 108.144 67.9473 108.291 67.8001C108.438 67.6592 108.55 67.4575 108.627 67.195C108.704 66.9325 108.745 66.6092 108.752 66.2251V65.3992L108.656 65.5528C108.592 65.6553 108.493 65.7801 108.358 65.9274C108.23 66.0682 108.083 66.2123 107.916 66.3595C107.75 66.5004 107.545 66.622 107.302 66.7245C107.065 66.8269 106.822 66.8781 106.572 66.8781C105.618 66.8781 104.946 66.6124 104.555 66.081C104.165 65.5432 103.969 64.6405 103.969 63.3728V59.9635L103.624 59.6178V58.5134H107.119V63.9778C107.119 64.2724 107.164 64.49 107.254 64.6309C107.35 64.7653 107.539 64.8326 107.82 64.8326C107.904 64.8326 107.987 64.8198 108.07 64.7942C108.153 64.7621 108.233 64.7205 108.31 64.6693C108.393 64.6181 108.48 64.5541 108.569 64.4772V59.9635L108.041 59.6178V58.5134H111.7V65.5528C111.7 66.9678 111.399 68.0594 110.797 68.8277C110.196 69.5959 109.264 69.9801 108.003 69.9801Z" fill="black"/>
<path d="M48.1173 86.0245C47.664 86.0245 47.2612 85.9805 46.9091 85.8925C46.5614 85.8044 46.2753 85.6856 46.0508 85.5359C45.8307 85.3863 45.648 85.2014 45.5028 84.9813C45.3619 84.7568 45.2629 84.5214 45.2057 84.2749C45.1484 84.0284 45.1198 83.7555 45.1198 83.4562V78.1478H47.4703V83.159C47.4703 83.7181 47.5275 84.1032 47.642 84.3145C47.7608 84.5214 47.9325 84.6248 48.157 84.6248C48.2802 84.6248 48.388 84.605 48.4805 84.5654C48.5729 84.5214 48.6587 84.4487 48.738 84.3475C48.8172 84.2419 48.8766 84.0922 48.9162 83.8985C48.9603 83.7004 48.9823 83.4606 48.9823 83.1789V78.1478H51.0686V83.4958C51.0686 83.7907 51.0422 84.057 50.9894 84.2947C50.941 84.5324 50.8486 84.7634 50.7121 84.9879C50.5801 85.208 50.404 85.3929 50.1839 85.5425C49.9682 85.6878 49.6843 85.8044 49.3322 85.8925C48.9845 85.9805 48.5795 86.0245 48.1173 86.0245ZM53.7636 86.0245C53.3499 86.0245 52.9317 85.9563 52.5092 85.8198C52.0866 85.679 51.8159 85.5425 51.6971 85.4105L51.8687 84.3475C52.0184 84.4927 52.2671 84.6182 52.6148 84.7238C52.9669 84.8295 53.3257 84.8823 53.691 84.8823C53.9551 84.8823 54.1356 84.8493 54.2324 84.7833C54.3337 84.7172 54.3843 84.6248 54.3843 84.5059C54.3843 84.3915 54.2962 84.2903 54.1202 84.2022C53.9441 84.1098 53.658 84.0042 53.2619 83.8853C52.2363 83.5772 51.7235 82.939 51.7235 81.9706C51.7235 81.5745 51.8379 81.2355 52.0668 80.9538C52.2957 80.6677 52.5884 80.4608 52.9449 80.3332C53.3015 80.2055 53.6998 80.1417 54.14 80.1417C54.8927 80.1417 55.4473 80.2804 55.8038 80.5577C55.883 80.6325 55.9226 80.6699 55.9226 80.6699L55.6321 81.6141C55.3416 81.328 54.9411 81.1849 54.4305 81.1849C54.0123 81.1849 53.8033 81.3082 53.8033 81.5546C53.8033 81.6251 53.8187 81.6845 53.8495 81.7329C53.8803 81.7769 53.9309 81.8165 54.0013 81.8518C54.0762 81.8826 54.1488 81.909 54.2192 81.931C54.2896 81.9486 54.3887 81.975 54.5163 82.0102C54.644 82.041 54.754 82.0696 54.8464 82.0961C55.3614 82.2677 55.7356 82.5098 55.9689 82.8223C56.2021 83.1348 56.3188 83.5244 56.3188 83.991C56.3188 85.3467 55.4671 86.0245 53.7636 86.0245ZM59.8468 82.4724C59.8468 81.9134 59.8182 81.5172 59.761 81.2839C59.7038 81.0507 59.5981 80.934 59.4441 80.934C59.312 80.934 59.2042 80.9582 59.1206 81.0066C59.0369 81.0507 58.9753 81.1233 58.9357 81.2245C58.8961 81.3214 58.8697 81.4226 58.8565 81.5282C58.8477 81.6295 58.8433 81.7593 58.8433 81.9178V82.4724H59.8468ZM59.3186 86.0245C58.8256 86.0245 58.3965 85.9497 58.0312 85.8C57.6702 85.6504 57.3841 85.4413 57.1728 85.1728C56.966 84.9043 56.8141 84.6028 56.7173 84.2683C56.6204 83.9293 56.572 83.553 56.572 83.1392C56.572 82.1533 56.8229 81.4072 57.3247 80.901C57.8265 80.3948 58.5285 80.1417 59.4309 80.1417C60.298 80.1417 60.9186 80.3464 61.2928 80.7558C61.6669 81.1607 61.854 81.8143 61.854 82.7167V83.4496H58.8367V83.575C58.8367 83.8347 58.8631 84.0482 58.9159 84.2154C58.9731 84.3827 59.0545 84.5059 59.1602 84.5852C59.2658 84.6644 59.3737 84.7172 59.4837 84.7436C59.5937 84.77 59.728 84.7833 59.8864 84.7833C60.0405 84.7833 60.2056 84.7634 60.3816 84.7238C60.5621 84.6842 60.7426 84.6226 60.923 84.539C61.1079 84.4553 61.262 84.3563 61.3852 84.2419L61.7747 84.9087C61.6119 85.1728 61.372 85.3951 61.0551 85.5755C60.7426 85.7516 60.4411 85.8705 60.1505 85.9321C59.86 85.9937 59.5827 86.0245 59.3186 86.0245Z" fill="black"/>
</svg>
